<?xml version="1.0" standalone="no"?>
<!DOCTYPE svg PUBLIC "-//W3C//DTD SVG 1.1//EN" "http://www.w3.org/Graphics/SVG/1.1/DTD/svg11.dtd" >
<svg xmlns="http://www.w3.org/2000/svg" xmlns:xlink="http://www.w3.org/1999/xlink" version="1.1">
<metadata>
Created by FontForge 20170731 at Fri Aug 15 14:41:23 2014
 By Aleksey,,,
Copyright (c) 2012 by [29 Arabic Letters] - Pascal Zoghbi. All rights reserved.
</metadata>
<defs>
<font id="29LTBukra-Regular" horiz-adv-x="0" >
  <font-face 
    font-family="29LT Bukra Regular"
    font-weight="400"
    font-stretch="normal"
    units-per-em="1000"
    panose-1="0 11 9 3 2 2 4 2 2 4"
    ascent="825"
    descent="-175"
    x-height="543"
    cap-height="824"
    bbox="-160 -343 1490 1044"
    underline-thickness="50"
    underline-position="-150"
    unicode-range="U+001D-FEFC"
  />
<missing-glyph horiz-adv-x="500" 
 />
    <glyph glyph-name="uniFEF5" unicode="&#xfedf;&#xfe82;" horiz-adv-x="699" arabic-form="isolated" 
d="M127 812h251v-71h-251v71zM30 58h285q43 0 81 10.5t66 31.5q27 20 41 50t14 81v667h150v-71h-79v-606q0 -45 -18.5 -93t-57.5 -77q-44 -34 -102 -49t-123 -15h-249zM217 697h71v-610h-71v610z" />
    <glyph glyph-name="uniFEF6" unicode="&#xfee0;&#xfe82;" horiz-adv-x="736" arabic-form="final" 
d="M769 -13q-65 0 -101.5 9t-63.5 25t-43.5 36.5t-20.5 28.5q-18 -28 -16.5 -27t-11.5 -8q-44 -34 -102 -49t-123 -15h-249l-8 71h285q43 0 81 10.5t66 31.5q27 20 41 50t14 81v667h150v-71h-79v-606q0 -35 -10 -68q9 -20 23.5 -38.5t35 -31t49.5 -19t83 -6.5v-71zM217 697
h71v-610h-71v610zM127 812h251v-71h-251v71z" />
    <glyph glyph-name="uniFEF7" unicode="&#xfedf;&#xfe84;" horiz-adv-x="699" arabic-form="isolated" 
d="M30 58h285q43 0 81 10.5t66 31.5q27 20 41 50t14 81v667h150v-71h-79v-606q0 -45 -18.5 -93t-57.5 -77q-44 -34 -102 -49t-123 -15h-249zM217 697h71v-610h-71v610zM149 784q0 63 29.5 98t89.5 35h49v-71h-42q-32 0 -43 -11.5t-11 -22.5h128v-71h-200v43z" />
    <glyph glyph-name="uniFEF8" unicode="&#xfee0;&#xfe84;" horiz-adv-x="736" arabic-form="final" 
d="M769 -13q-65 0 -101.5 9t-63.5 25t-43.5 36.5t-20.5 28.5q-18 -28 -16.5 -27t-11.5 -8q-44 -34 -102 -49t-123 -15h-249l-8 71h285q43 0 81 10.5t66 31.5q27 20 41 50t14 81v667h150v-71h-79v-606q0 -35 -10 -68q9 -20 23.5 -38.5t35 -31t49.5 -19t83 -6.5v-71zM217 697
h71v-610h-71v610zM151 784q0 63 29.5 98t89.5 35h49v-71h-42q-32 0 -43 -11.5t-11 -22.5h128v-71h-200v43z" />
    <glyph glyph-name="uniFEF9" unicode="&#xfedf;&#xfe88;" horiz-adv-x="699" arabic-form="isolated" 
d="M30 58h285q43 0 81 10.5t66 31.5q27 20 41 50t14 81v667h150v-71h-79v-606q0 -45 -18.5 -93t-57.5 -77q-44 -34 -102 -49t-123 -15h-249zM217 697h71v-610h-71v610zM264 -288q-60 0 -89.5 35t-29.5 98v43h200v-71h-128q0 -11 11 -22.5t43 -11.5h42v-71h-49z" />
    <glyph glyph-name="uniFEFA" unicode="&#xfee0;&#xfe88;" horiz-adv-x="736" arabic-form="final" 
d="M769 -13q-65 0 -101.5 9t-63.5 25t-43.5 36.5t-20.5 28.5q-18 -28 -16.5 -27t-11.5 -8q-44 -34 -102 -49t-123 -15h-249l-8 71h285q43 0 81 10.5t66 31.5q27 20 41 50t14 81v667h150v-71h-79v-606q0 -18 -2.5 -37t-7.5 -32q9 -20 23.5 -38t35 -30.5t49.5 -19t83 -6.5v-71
zM217 697h71v-610h-71v610zM272 -288q-60 0 -89.5 35t-29.5 98v43h200v-71h-128q0 -11 11 -22.5t43 -11.5h42v-71h-49z" />
    <glyph glyph-name="uniFEFB" unicode="&#xfedf;&#xfe8e;" horiz-adv-x="699" arabic-form="isolated" 
d="M30 58h285q43 0 81 10.5t66 31.5q27 20 41 50t14 81v667h150v-71h-79v-606q0 -45 -18.5 -93t-57.5 -77q-44 -34 -102 -49t-123 -15h-249zM217 697h71v-610h-71v610z" />
    <glyph glyph-name="uniFEFC" unicode="&#xfee0;&#xfe8e;" horiz-adv-x="736" arabic-form="final" 
d="M769 -13q-65 0 -101.5 9t-63.5 25t-43.5 36.5t-20.5 28.5q-18 -28 -16.5 -27t-11.5 -8q-44 -34 -102 -49t-123 -15h-249l-8 71h285q43 0 81 10.5t66 31.5q27 20 41 50t14 81v667h150v-71h-79v-606q0 -18 -2.5 -37t-7.5 -32q9 -20 23.5 -38t35 -30.5t49.5 -19t83 -6.5v-71
zM217 697h71v-610h-71v610z" />
    <glyph glyph-name="uni06440671" unicode="&#xfedf;&#xfb51;" horiz-adv-x="699" 
d="M30 58h285q43 0 81 10.5t66 31.5q27 20 41 50t14 81v667h150v-71h-79v-606q0 -45 -18.5 -93t-57.5 -77q-44 -34 -102 -49t-123 -15h-249zM217 697h71v-610h-71v610zM127 807h55q0 30 26 57.5t67 27.5q51 0 77 -29.5t26 -72.5v-49h-251v66zM275 831q-14 0 -23 -9t-9 -15
h63q0 3 -8 13.5t-23 10.5z" />
    <glyph glyph-name="uni06440671.fina" unicode="&#xfee0;&#xfb51;" horiz-adv-x="736" 
d="M769 -13q-65 0 -101.5 9t-63.5 25t-43.5 36.5t-20.5 28.5q-18 -28 -16.5 -27t-11.5 -8q-44 -34 -102 -49t-123 -15h-249l-8 71h285q43 0 81 10.5t66 31.5q27 20 41 50t14 81v667h150v-71h-79v-606q0 -35 -10 -68q9 -20 23.5 -38.5t35 -31t49.5 -19t83 -6.5v-71zM217 697
h71v-610h-71v610zM127 807h55q0 30 26 57.5t67 27.5q51 0 77 -29.5t26 -72.5v-49h-251v66zM275 831q-14 0 -23 -9t-9 -15h63q0 3 -8 13.5t-23 10.5z" />
    <glyph glyph-name="uni0621" unicode="&#x621;" horiz-adv-x="543" arabic-form="isolated" 
d="M117 218q0 123 55.5 190t158.5 67h106v-71h-120q-57 0 -93 -45.5t-36 -124.5v-176h293v-71h-364v231z" />
    <glyph glyph-name="uni0622" unicode="&#x622;" horiz-adv-x="265" arabic-form="isolated" 
d="M28 812h251v-71h-251v71zM115 703h71v-716h-71v716z" />
    <glyph glyph-name="uni0623" unicode="&#x623;" horiz-adv-x="265" arabic-form="isolated" 
d="M52 785q0 63 29.5 98t89.5 35h49v-71h-42q-32 0 -43 -11.5t-11 -22.5h128v-71h-200v43zM118 703h71v-716h-71v716z" />
    <glyph glyph-name="uni0624" unicode="&#x624;" horiz-adv-x="575" arabic-form="isolated" 
d="M300 -233q-49 0 -87.5 14t-89.5 44l33 63q47 -26 79 -38t69 -12q65 0 101.5 30t36.5 84v35h-47q-65 0 -126 14.5t-109.5 47.5t-78 86.5t-29.5 129.5q0 61 24 112.5t69 88.5t108 57t142 20h118v-591q0 -86 -58.5 -135.5t-154.5 -49.5zM123 265q0 -52 19 -90.5t52.5 -64
t78 -39t94.5 -13.5h75v414h-75q-45 0 -89 -15t-78.5 -42t-55.5 -64.5t-21 -85.5zM304 725q0 63 29.5 98t89.5 35h69v-71h-62q-32 0 -43 -11.5t-11 -35.5v-27h148v-71h-220v83z" />
    <glyph glyph-name="uni0625" unicode="&#x625;" horiz-adv-x="275" arabic-form="isolated" 
d="M132 824h71v-837h-71v837zM184 -233q-60 0 -89.5 35t-29.5 98v43h200v-71h-128q0 -11 11 -22.5t43 -11.5h42v-71h-49z" />
    <glyph glyph-name="uni0626" unicode="&#x626;" horiz-adv-x="1044" arabic-form="isolated" 
d="M410 -138q-42 0 -74 3.5t-58.5 11.5t-48.5 20t-44 29q-39 29 -57.5 77t-18.5 93v267h71v-257q0 -51 14 -81t41 -50q28 -21 66 -31.5t81 -10.5h204v408q0 51 17 87.5t51 67.5q29 25 66.5 36t75.5 11h186v-556h-71v485h-103q-36 0 -61 -7t-45.5 -23t-32.5 -42.5t-12 -52.5
v-485h-247zM42 532q0 63 29.5 98t89.5 35h69v-71h-62q-32 0 -43 -11.5t-11 -35.5v-27h148v-71h-220v83z" />
    <glyph glyph-name="uni0627" unicode="&#x627;" horiz-adv-x="270" arabic-form="isolated" 
d="M117 824h71v-837h-71v837z" />
    <glyph glyph-name="uni0628" unicode="&#x628;" horiz-adv-x="797" arabic-form="isolated" 
d="M353 -13q-42 0 -74 3.5t-58.5 11.5t-48.5 20t-44 29q-39 29 -57.5 77t-18.5 93v223h71v-213q0 -51 14 -81t41 -50q28 -21 66 -31.5t81 -10.5h339v485h71v-556h-382zM439 -220q-22 0 -38 16t-16 38t16 38t38 16t38 -16t16 -38t-16 -38t-38 -16z" />
    <glyph glyph-name="uni0629" unicode="&#x629;" horiz-adv-x="584" arabic-form="isolated" 
d="M390 -13q-65 0 -126 15.5t-108 49.5t-75.5 87t-28.5 126q0 59 23.5 110t68.5 88.5t107 58.5t139 21h47v50h71v-606h-118zM437 58v414h-75q-45 0 -88.5 -15.5t-77 -42t-53.5 -65t-20 -84.5q0 -49 18.5 -87.5t50.5 -64.5t76 -40.5t94 -14.5h75zM289 685q-22 0 -38 16
t-16 38t16 38t38 16t38 -16t16 -38t-16 -38t-38 -16zM468 685q-22 0 -38 16t-16 38t16 38t38 16t38 -16t16 -38t-16 -38t-38 -16z" />
    <glyph glyph-name="uni062A" unicode="&#x62a;" horiz-adv-x="797" arabic-form="isolated" 
d="M353 -13q-42 0 -74 3.5t-58.5 11.5t-48.5 20t-44 29q-39 29 -57.5 77t-18.5 93v223h71v-213q0 -51 14 -81t41 -50q28 -21 66 -31.5t81 -10.5h339v485h71v-556h-382zM309 546q-22 0 -38 16t-16 38t16 38t38 16t38 -16t16 -38t-16 -38t-38 -16zM488 546q-22 0 -38 16
t-16 38t16 38t38 16t38 -16t16 -38t-16 -38t-38 -16z" />
    <glyph glyph-name="uni062B" unicode="&#x62b;" horiz-adv-x="797" arabic-form="isolated" 
d="M353 -13q-42 0 -74 3.5t-58.5 11.5t-48.5 20t-44 29q-39 29 -57.5 77t-18.5 93v223h71v-213q0 -51 14 -81t41 -50q28 -21 66 -31.5t81 -10.5h339v485h71v-556h-382zM309 548q-22 0 -38 16t-16 38t16 38t38 16t38 -16t16 -38t-16 -38t-38 -16zM398 682q-22 0 -38 16
t-16 38t16 38t38 16t38 -16t16 -38t-16 -38t-38 -16zM488 548q-22 0 -38 16t-16 38t16 38t38 16t38 -16t16 -38t-16 -38t-38 -16z" />
    <glyph glyph-name="uni062C" unicode="&#x62c;" horiz-adv-x="553" arabic-form="isolated" 
d="M94 -238q-21 35 -33 58.5t-21 49.5t-13.5 55t-4.5 65q0 11 1.5 28.5t5.5 39.5h389q9 31 15 84t6 141q0 43 -13 79t-49 67q-24 19 -58 31t-80 12q-38 0 -80.5 -13.5t-88.5 -48.5l-27 68q34 21 56.5 32t46.5 18.5t50.5 11t59.5 3.5q46 0 89.5 -16t75.5 -43q44 -36 67 -89.5
t23 -126.5q0 -40 -3 -79.5t-8 -75t-11.5 -65.5t-17.5 -61h-378v-7q0 -46 12.5 -86t43.5 -98zM282 -220q-22 0 -38 16t-16 38t16 38t38 16t38 -16t16 -38t-16 -38t-38 -16z" />
    <glyph glyph-name="uni062D" unicode="&#x62d;" horiz-adv-x="553" arabic-form="isolated" 
d="M94 -238q-21 35 -33 58.5t-21 49.5t-13.5 55t-4.5 65q0 11 1.5 28.5t5.5 39.5h389q9 31 15 84t6 141q0 43 -13 79t-49 67q-24 19 -58 31t-80 12q-38 0 -80.5 -13.5t-88.5 -48.5l-27 68q34 21 56.5 32t46.5 18.5t50.5 11t59.5 3.5q46 0 89.5 -16t75.5 -43q44 -36 67 -89.5
t23 -126.5q0 -40 -3 -79.5t-8 -75t-11.5 -65.5t-17.5 -61h-378v-7q0 -46 12.5 -86t43.5 -98z" />
    <glyph glyph-name="uni062E" unicode="&#x62e;" horiz-adv-x="553" arabic-form="isolated" 
d="M94 -238q-21 35 -33 58.5t-21 49.5t-13.5 55t-4.5 65q0 11 1.5 28.5t5.5 39.5h389q9 31 15 84t6 141q0 43 -13 79t-49 67q-24 19 -58 31t-80 12q-38 0 -80.5 -13.5t-88.5 -48.5l-27 68q34 21 56.5 32t46.5 18.5t50.5 11t59.5 3.5q46 0 89.5 -16t75.5 -43q44 -36 67 -89.5
t23 -126.5q0 -40 -3 -79.5t-8 -75t-11.5 -65.5t-17.5 -61h-378v-7q0 -46 12.5 -86t43.5 -98zM252 634q-22 0 -38 16t-16 38t16 38t38 16t38 -16t16 -38t-16 -38t-38 -16z" />
    <glyph glyph-name="uni062F" unicode="&#x62f;" horiz-adv-x="533" arabic-form="isolated" 
d="M22 58h388v263q0 36 -7 61t-23 45.5t-42.5 32.5t-52.5 12h-86v71h80q51 0 87.5 -17t67.5 -51q25 -29 36 -66.5t11 -75.5v-346h-459v71z" />
    <glyph glyph-name="uni0630" unicode="&#x630;" horiz-adv-x="533" arabic-form="isolated" 
d="M22 58h388v263q0 36 -7 61t-23 45.5t-42.5 32.5t-52.5 12h-86v71h80q51 0 87.5 -17t67.5 -51q25 -29 36 -66.5t11 -75.5v-346h-459v71zM263 634q-22 0 -38 16t-16 38t16 38t38 16t38 -16t16 -38t-16 -38t-38 -16z" />
    <glyph glyph-name="uni0631" unicode="&#x631;" horiz-adv-x="290" arabic-form="isolated" 
d="M85 -234q-28 0 -67 17l26 66q29 -12 45 -12q24 0 37 9.5t20 25.5t9 37.5t2 41.5v592h71v-592q0 -36 -5.5 -69.5t-21 -59.5t-44 -41t-72.5 -15z" />
    <glyph glyph-name="uni0632" unicode="&#x632;" horiz-adv-x="290" arabic-form="isolated" 
d="M85 -234q-28 0 -67 17l26 66q29 -12 45 -12q24 0 37 9.5t20 25.5t9 37.5t2 41.5v592h71v-592q0 -36 -5.5 -69.5t-21 -59.5t-44 -41t-72.5 -15zM192 646q-22 0 -38 16t-16 38t16 38t38 16t38 -16t16 -38t-16 -38t-38 -16z" />
    <glyph glyph-name="uni0633" unicode="&#x633;" horiz-adv-x="1356" arabic-form="isolated" 
d="M1081 -23q-70 0 -126 30t-71 62q-11 -24 -56.5 -53t-106.5 -29h-176v-125h-182q-42 0 -74 3.5t-58.5 11.5t-48.5 20t-44 29q-39 29 -57.5 77t-18.5 93v379h71v-369q0 -51 14 -81t41 -50q28 -21 66 -31.5t81 -10.5h139v610h71v-485h176q54 0 88 32.5t34 95.5v307h71v-292
q0 -30 11.5 -59t33 -50t52.5 -34t70 -13q78 0 115 43t37 113v412h71v-402q0 -121 -60.5 -177.5t-162.5 -56.5z" />
    <glyph glyph-name="uni0634" unicode="&#x634;" horiz-adv-x="1356" arabic-form="isolated" 
d="M1081 -23q-70 0 -126 30t-71 62q-11 -24 -56.5 -53t-106.5 -29h-176v-125h-182q-42 0 -74 3.5t-58.5 11.5t-48.5 20t-44 29q-39 29 -57.5 77t-18.5 93v379h71v-369q0 -51 14 -81t41 -50q28 -21 66 -31.5t81 -10.5h139v610h71v-485h176q54 0 88 32.5t34 95.5v307h71v-299
q1 -29 13 -56t33.5 -48t52 -33t68.5 -12q78 0 115 43t37 113v412h71v-402q0 -121 -60.5 -177.5t-162.5 -56.5zM789 646q-22 0 -38 16t-16 38t16 38t38 16t38 -16t16 -38t-16 -38t-38 -16zM878 780q-22 0 -38 16t-16 38t16 38t38 16t38 -16t16 -38t-16 -38t-38 -16zM968 646
q-22 0 -38 16t-16 38t16 38t38 16t38 -16t16 -38t-16 -38t-38 -16z" />
    <glyph glyph-name="uni0635" unicode="&#x635;" horiz-adv-x="1177" arabic-form="isolated" 
d="M545 -13v-125h-182q-42 0 -74 3.5t-58.5 11.5t-48.5 20t-44 29q-39 29 -57.5 77t-18.5 93v379h71v-369q0 -51 14 -81t41 -50q28 -21 66 -31.5t81 -10.5h139v610h71v-68h378q51 0 87.5 -17t67.5 -51q25 -29 36 -66.5t11 -75.5v-278h-580zM545 404v-346h509v195q0 36 -7 61
t-23 45.5t-42.5 32.5t-52.5 12h-384z" />
    <glyph glyph-name="uni0636" unicode="&#x636;" horiz-adv-x="1177" arabic-form="isolated" 
d="M545 -13v-125h-182q-42 0 -74 3.5t-58.5 11.5t-48.5 20t-44 29q-39 29 -57.5 77t-18.5 93v379h71v-369q0 -51 14 -81t41 -50q28 -21 66 -31.5t81 -10.5h139v610h71v-68h378q51 0 87.5 -17t67.5 -51q25 -29 36 -66.5t11 -75.5v-278h-580zM545 404v-346h509v195q0 36 -7 61
t-23 45.5t-42.5 32.5t-52.5 12h-384zM777 587q-22 0 -38 16t-16 38t16 38t38 16t38 -16t16 -38t-16 -38t-38 -16z" />
    <glyph glyph-name="uni0637" unicode="&#x637;" horiz-adv-x="872" arabic-form="isolated" 
d="M22 58h156v766h71v-349h369q51 0 87.5 -17t67.5 -51q25 -29 36 -66.5t11 -75.5v-278h-798v71zM249 404v-346h500v195q0 36 -7 61t-23 45.5t-42.5 32.5t-52.5 12h-375z" />
    <glyph glyph-name="uni0638" unicode="&#x638;" horiz-adv-x="872" arabic-form="isolated" 
d="M22 58h156v766h71v-349h369q51 0 87.5 -17t67.5 -51q25 -29 36 -66.5t11 -75.5v-278h-798v71zM249 404v-346h500v195q0 36 -7 61t-23 45.5t-42.5 32.5t-52.5 12h-375zM485 587q-22 0 -38 16t-16 38t16 38t38 16t38 -16t16 -38t-16 -38t-38 -16z" />
    <glyph glyph-name="uni0639" unicode="&#x639;" horiz-adv-x="630" arabic-form="isolated" 
d="M114 -238q-21 35 -33 58.5t-21 49.5t-13.5 55t-4.5 65q0 11 1.5 28.5t5.5 39.5h89l-16 29q-13 26 -23.5 55t-17 61t-6.5 65q0 73 28.5 126.5t71.5 89.5q32 27 75.5 43t89.5 16q32 0 58.5 -3.5t50 -11t46 -18.5t56.5 -32l-25 -68q-46 35 -88.5 48.5t-80.5 13.5
q-46 0 -80 -12t-58 -31q-72 -61 -72 -146q0 -43 6.5 -76.5t16.5 -60.5t23 -49l23 -39h362v-71h-465v-7q0 -46 12.5 -86t43.5 -98z" />
    <glyph glyph-name="uni063A" unicode="&#x63a;" horiz-adv-x="630" arabic-form="isolated" 
d="M114 -238q-21 35 -33 58.5t-21 49.5t-13.5 55t-4.5 65q0 11 1.5 28.5t5.5 39.5h89l-16 29q-13 26 -23.5 55t-17 61t-6.5 65q0 73 28.5 126.5t71.5 89.5q32 27 75.5 43t89.5 16q32 0 58.5 -3.5t50 -11t46 -18.5t56.5 -32l-25 -68q-46 35 -88.5 48.5t-80.5 13.5
q-46 0 -80 -12t-58 -31q-72 -61 -72 -146q0 -43 6.5 -76.5t16.5 -60.5t23 -49l23 -39h362v-71h-465v-7q0 -46 12.5 -86t43.5 -98zM335 646q-22 0 -38 16t-16 38t16 38t38 16t38 -16t16 -38t-16 -38t-38 -16z" />
    <glyph glyph-name="uni0641" unicode="&#x641;" horiz-adv-x="992" arabic-form="isolated" 
d="M353 -13q-42 0 -74 3.5t-58.5 11.5t-48.5 20t-44 29q-39 29 -57.5 77t-18.5 93v223h71v-213q0 -51 14 -81t41 -50q28 -21 66 -31.5t81 -10.5h236q-18 13 -55 70t-37 138q0 59 21.5 110t64 88.5t105 58t142.5 20.5h138v-556h-587zM540 266q0 -70 41 -123t101 -85h187v414
h-95q-49 0 -91 -14.5t-74 -42t-50.5 -65.5t-18.5 -84zM772 646q-22 0 -38 16t-16 38t16 38t38 16t38 -16t16 -38t-16 -38t-38 -16z" />
    <glyph glyph-name="uni0642" unicode="&#x642;" horiz-adv-x="807" arabic-form="isolated" 
d="M353 -233q-42 0 -74 3.5t-58.5 11.5t-48.5 20t-44 29q-39 29 -57.5 77t-18.5 93v267h71v-257q0 -51 14 -81t41 -50q28 -21 66 -31.5t81 -10.5h349v149h-47q-68 0 -129 14.5t-109 47t-76.5 86t-28.5 130.5q0 59 23.5 110t68.5 88.5t108.5 58.5t142.5 21h118v-776h-392z
M355 265q0 -52 18.5 -91t51.5 -64.5t78 -38.5t96 -13h75v414h-75q-48 0 -92.5 -15.5t-78 -42t-53.5 -65t-20 -84.5zM675 646q-22 0 -38 16t-16 38t16 38t38 16t38 -16t16 -38t-16 -38t-38 -16zM496 646q-22 0 -38 16t-16 38t16 38t38 16t38 -16t16 -38t-16 -38t-38 -16z" />
    <glyph glyph-name="uni0643" unicode="&#x643;" horiz-adv-x="817" arabic-form="isolated" 
d="M353 -13q-42 0 -74 3.5t-58.5 11.5t-48.5 20t-44 29q-39 29 -57.5 77t-18.5 93v223h71v-213q0 -51 14 -81t41 -50q28 -21 66 -31.5t81 -10.5h339v766h71v-837h-382zM300 382q0 63 29.5 98t89.5 35h69v-71h-62q-32 0 -43 -11.5t-11 -35.5v-27h148v-71h-220v83z" />
    <glyph glyph-name="uni0644" unicode="&#x644;" horiz-adv-x="666" arabic-form="isolated" 
d="M353 -138q-42 0 -74 3.5t-58.5 11.5t-48.5 20t-44 29q-39 29 -57.5 77t-18.5 93v379h71v-369q0 -51 14 -81t41 -50q28 -21 66 -31.5t81 -10.5h139v891h170v-71h-99v-891h-182z" />
    <glyph glyph-name="uni0645" unicode="&#x645;" horiz-adv-x="880" arabic-form="isolated" 
d="M549 -119q-60 0 -110.5 21t-89 58t-62 87t-26.5 94q-34 -1 -66.5 -15.5t-51.5 -39.5q-21 -28 -31.5 -66t-10.5 -81v-172h-71v144q0 83 15.5 136t48.5 91t78.5 55.5t88.5 18.5q3 45 26.5 95.5t62.5 87.5t89.5 58.5t109.5 21.5q65 0 119.5 -23t94.5 -63t62.5 -94t22.5 -118
q0 -65 -23 -118.5t-63.5 -93.5t-94.5 -62t-118 -22zM549 -48q49 0 91 17t72 46.5t47.5 71t17.5 90.5t-17 91t-47.5 72t-72.5 47t-91 17q-48 0 -88 -18t-69 -49t-45.5 -72.5t-16.5 -87.5q0 -45 16.5 -86.5t46 -72t69.5 -48.5t87 -18z" />
    <glyph glyph-name="uni0646" unicode="&#x646;" horiz-adv-x="597" arabic-form="isolated" 
d="M353 -138q-42 0 -74 3.5t-58.5 11.5t-48.5 20t-44 29q-39 29 -57.5 77t-18.5 93v379h71v-369q0 -51 14 -81t41 -50q28 -21 66 -31.5t81 -10.5h139v542h71v-613h-182zM300 587q-22 0 -38 16t-16 38t16 38t38 16t38 -16t16 -38t-16 -38t-38 -16z" />
    <glyph glyph-name="uni0648" unicode="&#x648;" horiz-adv-x="575" arabic-form="isolated" 
d="M300 -233q-49 0 -87.5 14t-89.5 44l33 63q47 -26 79 -38t69 -12q65 0 101.5 30t36.5 84v35h-47q-65 0 -126 14.5t-109.5 47.5t-78 86.5t-29.5 129.5q0 61 24 112.5t69 88.5t108 57t142 20h118v-591q0 -86 -58.5 -135.5t-154.5 -49.5zM123 265q0 -52 19 -90.5t52.5 -64
t78 -39t94.5 -13.5h75v414h-75q-45 0 -89 -15t-78.5 -42t-55.5 -64.5t-21 -85.5z" />
    <glyph glyph-name="uni0649" unicode="&#x649;" horiz-adv-x="987" arabic-form="isolated" 
d="M353 -138q-42 0 -74 3.5t-58.5 11.5t-48.5 20t-44 29q-39 29 -57.5 77t-18.5 93v267h71v-257q0 -51 14 -81t41 -50q28 -21 66 -31.5t81 -10.5h204v408q0 51 17 87.5t51 67.5q29 25 66.5 36t75.5 11h186v-556h-71v485h-103q-36 0 -61 -7t-45.5 -23t-32.5 -42.5t-12 -52.5
v-485h-247z" />
    <glyph glyph-name="uni064A" unicode="&#x64a;" horiz-adv-x="910" arabic-form="isolated" 
d="M236 -138q-38 0 -68.5 3.5t-56.5 11t-50 17.5t-59 30l35 61q52 -30 90 -41t81 -11h244v408q0 51 17 87.5t51 67.5q29 25 66.5 36t75.5 11h186v-556h-71v485h-103q-36 0 -61 -7t-45.5 -23t-32.5 -42.5t-12 -52.5v-485h-287zM278 32q-22 0 -38 16t-16 38t16 38t38 16
t38 -16t16 -38t-16 -38t-38 -16zM278 209q-22 0 -38 16t-16 38t16 38t38 16t38 -16t16 -38t-16 -38t-38 -16z" />
    <glyph glyph-name="uni066E.init" unicode="&#x66e;" horiz-adv-x="246" 
d="M-13 58h126v485h71v-556h-197v71z" />
    <glyph glyph-name="uni066E.medi" unicode="&#x66e;" horiz-adv-x="285" 
d="M-13 58h126v485h71v-485h134v-71h-331v71z" />
    <glyph glyph-name="uni066E.fina" unicode="&#x66e;" horiz-adv-x="836" 
d="M353 -13q-42 0 -74 3.5t-58.5 11.5t-48.5 20t-44 29q-39 29 -57.5 77t-18.5 93v223h71v-213q0 -51 14 -81t41 -50q28 -21 66 -31.5t81 -10.5h339v485h71v-485h134v-71h-516z" />
    <glyph glyph-name="uni066F.init" unicode="&#x66f;" horiz-adv-x="627" 
d="M-13 58h210q-23 15 -35 27t-30 41t-28 63.5t-10 76.5q0 61 22.5 112.5t66 88t105 56.5t140.5 20h137v-556h-578v71zM165 266q0 -37 11.5 -68.5t30.5 -57.5t45.5 -47t54.5 -35h187v414h-94q-45 0 -88 -14t-75.5 -40t-52 -64.5t-19.5 -87.5z" />
    <glyph glyph-name="uni066F.medi" unicode="&#x66f;" horiz-adv-x="666" 
d="M-13 58h210q-23 15 -35 27t-30 41t-28 63.5t-10 76.5q0 61 22.5 112.5t66 88t105 56.5t140.5 20h137v-485h134v-71h-712v71zM165 266q0 -37 11.5 -68.5t30.5 -57.5t45.5 -47t54.5 -35h187v414h-94q-45 0 -88 -14t-75.5 -40t-52 -64.5t-19.5 -87.5z" />
    <glyph glyph-name="uni066F.fina" unicode="&#x66f;" horiz-adv-x="867" 
d="M353 -233q-42 0 -74 3.5t-58.5 11.5t-48.5 20t-44 29q-39 29 -57.5 77t-18.5 93v267h71v-257q0 -51 14 -81t41 -50q28 -21 66 -31.5t81 -10.5h349v149h-47q-68 0 -129 14.5t-109 47t-76.5 86t-28.5 130.5q0 59 23.5 110t68.5 88.5t108.5 58.5t142.5 21h118v-485h155v-71
h-155v-220h-392zM355 265q0 -52 18.5 -91t51.5 -64.5t78 -38.5t96 -13h75v414h-75q-48 0 -92.5 -15.5t-78 -42t-53.5 -65t-20 -84.5z" />
    <glyph glyph-name="uni0671" unicode="&#x671;" horiz-adv-x="265" arabic-form="isolated" 
d="M119 703h71v-716h-71v716zM32 807h55q0 30 26 57.5t67 27.5q51 0 77 -29.5t26 -72.5v-49h-251v66zM180 831q-14 0 -23 -9t-9 -15h63q0 3 -8 13.5t-23 10.5z" />
    <glyph glyph-name="uni0679" unicode="&#x679;" horiz-adv-x="797" arabic-form="isolated" 
d="M353 -13q-42 0 -74 3.5t-58.5 11.5t-48.5 20t-44 29q-39 29 -57.5 77t-18.5 93v223h71v-213q0 -51 14 -81t41 -50q28 -21 66 -31.5t81 -10.5h339v485h71v-556h-382zM268 607h46v142h70v-57h35q46 0 73 -29.5t27 -72.5v-49h-251v66zM384 631v-24h68q0 3 -8 13.5t-25 10.5
h-35z" />
    <glyph glyph-name="uni067E" unicode="&#x67e;" horiz-adv-x="797" arabic-form="isolated" 
d="M353 -13q-42 0 -74 3.5t-58.5 11.5t-48.5 20t-44 29q-39 29 -57.5 77t-18.5 93v223h71v-213q0 -51 14 -81t41 -50q28 -21 66 -31.5t81 -10.5h339v485h71v-556h-382zM366 -220q-22 0 -38 16t-16 38t16 38t38 16t38 -16t16 -38t-16 -38t-38 -16zM455 -343q-22 0 -38 16
t-16 38t16 38t38 16t38 -16t16 -38t-16 -38t-38 -16zM545 -220q-22 0 -38 16t-16 38t16 38t38 16t38 -16t16 -38t-16 -38t-38 -16z" />
    <glyph glyph-name="uni0686" unicode="&#x686;" horiz-adv-x="553" arabic-form="isolated" 
d="M94 -238q-21 35 -33 58.5t-21 49.5t-13.5 55t-4.5 65q0 11 1.5 28.5t5.5 39.5h389q9 31 15 84t6 141q0 43 -13 79t-49 67q-24 19 -58 31t-80 12q-38 0 -80.5 -13.5t-88.5 -48.5l-27 68q34 21 56.5 32t46.5 18.5t50.5 11t59.5 3.5q46 0 89.5 -16t75.5 -43q44 -36 67 -89.5
t23 -126.5q0 -40 -3 -79.5t-8 -75t-11.5 -65.5t-17.5 -61h-378v-7q0 -46 12.5 -86t43.5 -98zM214 -177q-22 0 -38 16t-16 38t16 38t38 16t38 -16t16 -38t-16 -38t-38 -16zM303 -300q-22 0 -38 16t-16 38t16 38t38 16t38 -16t16 -38t-16 -38t-38 -16zM393 -177q-22 0 -38 16
t-16 38t16 38t38 16t38 -16t16 -38t-16 -38t-38 -16z" />
    <glyph glyph-name="uni0688" unicode="&#x688;" horiz-adv-x="533" arabic-form="isolated" 
d="M22 58h388v263q0 36 -7 61t-23 45.5t-42.5 32.5t-52.5 12h-86v71h80q51 0 87.5 -17t67.5 -51q25 -29 36 -66.5t11 -75.5v-346h-459v71zM141 708h46v142h70v-57h35q46 0 73 -29.5t27 -72.5v-49h-251v66zM257 732v-24h68q0 3 -8 13.5t-25 10.5h-35z" />
    <glyph glyph-name="uni0691" unicode="&#x691;" horiz-adv-x="290" arabic-form="isolated" 
d="M85 -234q-28 0 -67 17l26 66q29 -12 45 -12q24 0 37 9.5t20 25.5t9 37.5t2 41.5v592h71v-592q0 -36 -5.5 -69.5t-21 -59.5t-44 -41t-72.5 -15zM66 708h46v142h70v-57h35q46 0 73 -29.5t27 -72.5v-49h-251v66zM182 732v-24h68q0 3 -8 13.5t-25 10.5h-35z" />
    <glyph glyph-name="uni0698" unicode="&#x698;" horiz-adv-x="290" arabic-form="isolated" 
d="M85 -234q-28 0 -67 17l26 66q29 -12 45 -12q24 0 37 9.5t20 25.5t9 37.5t2 41.5v592h71v-592q0 -36 -5.5 -69.5t-21 -59.5t-44 -41t-72.5 -15zM103 646q-22 0 -38 16t-16 38t16 38t38 16t38 -16t16 -38t-16 -38t-38 -16zM192 780q-22 0 -38 16t-16 38t16 38t38 16t38 -16
t16 -38t-16 -38t-38 -16zM282 646q-22 0 -38 16t-16 38t16 38t38 16t38 -16t16 -38t-16 -38t-38 -16z" />
    <glyph glyph-name="uni06A1.init" unicode="&#x6a1;" horiz-adv-x="627" 
d="M-13 58h210q-23 15 -35 27t-30 41t-28 63.5t-10 76.5q0 61 22.5 112.5t66 88t105 56.5t140.5 20h137v-556h-578v71zM165 266q0 -37 11.5 -68.5t30.5 -57.5t45.5 -47t54.5 -35h187v414h-94q-45 0 -88 -14t-75.5 -40t-52 -64.5t-19.5 -87.5z" />
    <glyph glyph-name="uni06A1.medi" unicode="&#x6a1;" horiz-adv-x="666" 
d="M-13 58h210q-23 15 -35 27t-30 41t-28 63.5t-10 76.5q0 61 22.5 112.5t66 88t105 56.5t140.5 20h137v-485h134v-71h-712v71zM165 266q0 -37 11.5 -68.5t30.5 -57.5t45.5 -47t54.5 -35h187v414h-94q-45 0 -88 -14t-75.5 -40t-52 -64.5t-19.5 -87.5z" />
    <glyph glyph-name="uni06A1.fina" unicode="&#x6a1;" horiz-adv-x="1112" 
d="M424 -13q-42 0 -74 3.5t-58.5 11.5t-48.5 20t-44 29q-39 29 -57.5 77t-18.5 93v223h71v-213q0 -51 14 -81t41 -50q28 -21 66 -31.5t81 -10.5h236q-18 13 -55 70t-37 138q0 59 21.5 110t64 88.5t105 58t142.5 20.5h138v-485h134v-71h-721zM611 266q0 -70 41 -123t101 -85
h187v414h-95q-49 0 -91 -14.5t-74 -42t-50.5 -65.5t-18.5 -84z" />
    <glyph glyph-name="uni06A4" unicode="&#x6a4;" horiz-adv-x="1002" arabic-form="isolated" 
d="M353 -13q-42 0 -74 3.5t-58.5 11.5t-48.5 20t-44 29q-39 29 -57.5 77t-18.5 93v223h71v-213q0 -51 14 -81t41 -50q28 -21 66 -31.5t81 -10.5h236q-18 13 -55 70t-37 138q0 59 21.5 110t64 88.5t105 58t142.5 20.5h138v-556h-587zM540 266q0 -70 41 -123t101 -85h187v414
h-95q-49 0 -91 -14.5t-74 -42t-50.5 -65.5t-18.5 -84zM773 780q-22 0 -38 16t-16 38t16 38t38 16t38 -16t16 -38t-16 -38t-38 -16zM684 646q-22 0 -38 16t-16 38t16 38t38 16t38 -16t16 -38t-16 -38t-38 -16zM863 646q-22 0 -38 16t-16 38t16 38t38 16t38 -16t16 -38
t-16 -38t-38 -16z" />
    <glyph glyph-name="uni06A9" unicode="&#x6a9;" horiz-adv-x="965" arabic-form="isolated" 
d="M353 -13q-42 0 -74 3.5t-58.5 11.5t-48.5 20t-44 29q-39 29 -57.5 77t-18.5 93v223h71v-213q0 -51 14 -81t41 -50q28 -21 66 -31.5t81 -10.5h517v203q0 36 -7 61t-23 45.5t-42.5 32.5t-52.5 12h-313q-17 16 -23.5 27t-12.5 32l178 354h79l-170 -342h256q51 0 87.5 -17
t67.5 -51q25 -29 36 -66.5t11 -75.5v-286h-560z" />
    <glyph glyph-name="uni06AF" unicode="&#x6af;" horiz-adv-x="965" arabic-form="isolated" 
d="M305 457h-74l185 368h74zM353 -13q-42 0 -74 3.5t-58.5 11.5t-48.5 20t-44 29q-39 29 -57.5 77t-18.5 93v223h71v-213q0 -51 14 -81t41 -50q28 -21 66 -31.5t81 -10.5h517v203q0 36 -7 61t-23 45.5t-42.5 32.5t-52.5 12h-313q-17 16 -23.5 27t-12.5 32l178 354h79
l-170 -342h256q51 0 87.5 -17t67.5 -51q25 -29 36 -66.5t11 -75.5v-286h-560z" />
    <glyph glyph-name="uni06BA" unicode="&#x6ba;" horiz-adv-x="597" arabic-form="isolated" 
d="M353 -138q-42 0 -74 3.5t-58.5 11.5t-48.5 20t-44 29q-39 29 -57.5 77t-18.5 93v379h71v-369q0 -51 14 -81t41 -50q28 -21 66 -31.5t81 -10.5h139v542h71v-613h-182z" />
    <glyph glyph-name="uni06BE" unicode="&#x6be;" horiz-adv-x="851" arabic-form="isolated" 
d="M52 58h145q-2 5 -8 41.5t-6 72.5q0 57 14 104.5t42 81.5t67.5 53t90.5 19t90 -19t66.5 -53t41 -81.5t13.5 -104.5q0 -36 -5 -72t-7 -42h126q6 28 11 69t5 77q0 65 -8.5 115t-32.5 100q-34 72 -106 112.5t-179 40.5q-60 0 -113.5 -19.5t-107.5 -48.5l-30 65
q74 38 136 56.5t139 18.5q56 0 106 -15t91 -40t72.5 -58t50.5 -70q29 -56 41 -118t12 -126q0 -58 -8.5 -113.5t-22.5 -116.5h-726v71zM254 172q0 -37 5 -70.5t7 -43.5h259q2 10 7 43t5 71q0 40 -9 74.5t-27 59.5t-43.5 39t-60.5 14q-36 0 -62.5 -13.5t-44.5 -38.5t-27 -59.5
t-9 -75.5z" />
    <glyph glyph-name="uni06C0" unicode="&#x6c0;" horiz-adv-x="584" arabic-form="isolated" 
d="M390 -13q-65 0 -126 15.5t-108 49.5t-75.5 87t-28.5 126q0 59 23.5 110t68.5 88.5t107 58.5t139 21h47v50h71v-606h-118zM437 58v414h-75q-45 0 -88.5 -15.5t-77 -42t-53.5 -65t-20 -84.5q0 -49 18.5 -87.5t50.5 -64.5t76 -40.5t94 -14.5h75zM288 725q0 63 29.5 98
t89.5 35h69v-71h-62q-32 0 -43 -11.5t-11 -35.5v-27h148v-71h-220v83z" />
    <glyph glyph-name="uni06C1" unicode="&#x6c1;" horiz-adv-x="584" arabic-form="isolated" 
d="M390 -13q-65 0 -126 15.5t-108 49.5t-75.5 87t-28.5 126q0 59 23.5 110t68.5 88.5t107 58.5t139 21h47v50h71v-606h-118zM437 58v414h-75q-45 0 -88.5 -15.5t-77 -42t-53.5 -65t-20 -84.5q0 -49 18.5 -87.5t50.5 -64.5t76 -40.5t94 -14.5h75z" />
    <glyph glyph-name="uni06CC" unicode="&#x6cc;" horiz-adv-x="1044" arabic-form="isolated" 
d="M410 -138q-42 0 -74 3.5t-58.5 11.5t-48.5 20t-44 29q-39 29 -57.5 77t-18.5 93v267h71v-257q0 -51 14 -81t41 -50q28 -21 66 -31.5t81 -10.5h204v408q0 51 17 87.5t51 67.5q29 25 66.5 36t75.5 11h186v-556h-71v485h-103q-36 0 -61 -7t-45.5 -23t-32.5 -42.5t-12 -52.5
v-485h-247z" />
    <glyph glyph-name="uni06D2" unicode="&#x6d2;" horiz-adv-x="909" arabic-form="isolated" 
d="M32 -13v189q0 38 11 75.5t36 66.5q31 34 67.5 51t87.5 17h45q19 0 25.5 5t6.5 22v62h71v-75q0 -39 -27.5 -62t-74.5 -23h-52q-26 0 -52.5 -12t-42.5 -32.5t-23 -45.5t-7 -61v-106h645v-71h-716z" />
    <glyph glyph-name="uni06D3" unicode="&#x6d3;" horiz-adv-x="909" arabic-form="isolated" 
d="M32 -13v189q0 38 11 75.5t36 66.5q31 34 67.5 51t87.5 17h45q19 0 25.5 5t6.5 22v62h71v-75q0 -39 -27.5 -62t-74.5 -23h-52q-26 0 -52.5 -12t-42.5 -32.5t-23 -45.5t-7 -61v-106h645v-71h-716zM84 600q0 63 29.5 98t89.5 35h69v-71h-62q-32 0 -43 -11.5t-11 -35.5v-27
h148v-71h-220v83z" />
    <glyph glyph-name="uni06D5.fina" unicode="&#x6d5;" horiz-adv-x="609" 
d="M642 58v-71h-252q-65 0 -126 15.5t-108 49.5t-75.5 87t-28.5 126q0 59 23.5 110t68.5 88.5t107 58.5t139 21h47v50h71v-535h134zM437 58v414h-75q-45 0 -88.5 -15.5t-77 -42t-53.5 -65t-20 -84.5q0 -49 18.5 -87.5t50.5 -64.5t76 -40.5t94 -14.5h75z" />
    <glyph glyph-name="uniFB51" unicode="&#x671;" horiz-adv-x="315" arabic-form="final" 
d="M121 703h71v-645h156v-71h-227v716zM32 807h55q0 30 26 57.5t67 27.5q51 0 77 -29.5t26 -72.5v-49h-251v66zM180 831q-14 0 -23 -9t-9 -15h63q0 3 -8 13.5t-23 10.5z" />
    <glyph glyph-name="uniFB57" unicode="&#x67e;" horiz-adv-x="836" arabic-form="final" 
d="M353 -13q-42 0 -74 3.5t-58.5 11.5t-48.5 20t-44 29q-39 29 -57.5 77t-18.5 93v223h71v-213q0 -51 14 -81t41 -50q28 -21 66 -31.5t81 -10.5h339v485h71v-485h134v-71h-516zM538 -220q-22 0 -38 16t-16 38t16 38t38 16t38 -16t16 -38t-16 -38t-38 -16zM448 -343
q-22 0 -38 16t-16 38t16 38t38 16t38 -16t16 -38t-16 -38t-38 -16zM359 -220q-22 0 -38 16t-16 38t16 38t38 16t38 -16t16 -38t-16 -38t-38 -16z" />
    <glyph glyph-name="uniFB58" unicode="&#x67e;" horiz-adv-x="346" arabic-form="initial" 
d="M-13 58h226v485h71v-556h-297v71zM65 -220q-22 0 -38 16t-16 38t16 38t38 16t38 -16t16 -38t-16 -38t-38 -16zM154 -343q-22 0 -38 16t-16 38t16 38t38 16t38 -16t16 -38t-16 -38t-38 -16zM244 -220q-22 0 -38 16t-16 38t16 38t38 16t38 -16t16 -38t-16 -38t-38 -16z" />
    <glyph glyph-name="uniFB59" unicode="&#x67e;" horiz-adv-x="465" arabic-form="medial" 
d="M-13 58h226v485h71v-485h214v-71h-511v71zM248 -343q-22 0 -38 16t-16 38t16 38t38 16t38 -16t16 -38t-16 -38t-38 -16zM159 -220q-22 0 -38 16t-16 38t16 38t38 16t38 -16t16 -38t-16 -38t-38 -16zM338 -220q-22 0 -38 16t-16 38t16 38t38 16t38 -16t16 -38t-16 -38
t-38 -16z" />
    <glyph glyph-name="uniFB67" unicode="&#x679;" horiz-adv-x="836" arabic-form="final" 
d="M353 -13q-42 0 -74 3.5t-58.5 11.5t-48.5 20t-44 29q-39 29 -57.5 77t-18.5 93v223h71v-213q0 -51 14 -81t41 -50q28 -21 66 -31.5t81 -10.5h339v485h71v-485h134v-71h-516zM268 607h46v142h70v-57h35q46 0 73 -29.5t27 -72.5v-49h-251v66zM384 631v-24h68q0 3 -8 13.5
t-25 10.5h-35z" />
    <glyph glyph-name="uniFB68" unicode="&#x679;" horiz-adv-x="389" arabic-form="initial" 
d="M-13 58h226v485h71v-556h-297v71zM121 708h46v142h70v-57h35q46 0 73 -29.5t27 -72.5v-49h-251v66zM237 732v-24h68q0 3 -8 13.5t-25 10.5h-35z" />
    <glyph glyph-name="uniFB69" unicode="&#x679;" horiz-adv-x="465" arabic-form="medial" 
d="M-13 58h226v485h71v-485h214v-71h-511v71zM121 708h46v142h70v-57h35q46 0 73 -29.5t27 -72.5v-49h-251v66zM237 732v-24h68q0 3 -8 13.5t-25 10.5h-35z" />
    <glyph glyph-name="uniFB6B" unicode="&#x6a4;" horiz-adv-x="1041" arabic-form="final" 
d="M353 -13q-42 0 -74 3.5t-58.5 11.5t-48.5 20t-44 29q-39 29 -57.5 77t-18.5 93v223h71v-213q0 -51 14 -81t41 -50q28 -21 66 -31.5t81 -10.5h236q-18 13 -55 70t-37 138q0 59 21.5 110t64 88.5t105 58t142.5 20.5h138v-485h134v-71h-721zM540 266q0 -70 41 -123t101 -85
h187v414h-95q-49 0 -91 -14.5t-74 -42t-50.5 -65.5t-18.5 -84zM774 780q-22 0 -38 16t-16 38t16 38t38 16t38 -16t16 -38t-16 -38t-38 -16zM685 646q-22 0 -38 16t-16 38t16 38t38 16t38 -16t16 -38t-16 -38t-38 -16zM864 646q-22 0 -38 16t-16 38t16 38t38 16t38 -16
t16 -38t-16 -38t-38 -16z" />
    <glyph glyph-name="uniFB6C" unicode="&#x6a4;" horiz-adv-x="627" arabic-form="initial" 
d="M-13 58h210q-23 15 -35 27t-30 41t-28 63.5t-10 76.5q0 61 22.5 112.5t66 88t105 56.5t140.5 20h137v-556h-578v71zM165 266q0 -37 11.5 -68.5t30.5 -57.5t45.5 -47t54.5 -35h187v414h-94q-45 0 -88 -14t-75.5 -40t-52 -64.5t-19.5 -87.5zM410 780q-22 0 -38 16t-16 38
t16 38t38 16t38 -16t16 -38t-16 -38t-38 -16zM321 646q-22 0 -38 16t-16 38t16 38t38 16t38 -16t16 -38t-16 -38t-38 -16zM500 646q-22 0 -38 16t-16 38t16 38t38 16t38 -16t16 -38t-16 -38t-38 -16z" />
    <glyph glyph-name="uniFB6D" unicode="&#x6a4;" horiz-adv-x="666" arabic-form="medial" 
d="M-13 58h210q-23 15 -35 27t-30 41t-28 63.5t-10 76.5q0 61 22.5 112.5t66 88t105 56.5t140.5 20h137v-485h134v-71h-712v71zM165 266q0 -37 11.5 -68.5t30.5 -57.5t45.5 -47t54.5 -35h187v414h-94q-45 0 -88 -14t-75.5 -40t-52 -64.5t-19.5 -87.5zM499 646q-22 0 -38 16
t-16 38t16 38t38 16t38 -16t16 -38t-16 -38t-38 -16zM320 646q-22 0 -38 16t-16 38t16 38t38 16t38 -16t16 -38t-16 -38t-38 -16zM409 780q-22 0 -38 16t-16 38t16 38t38 16t38 -16t16 -38t-16 -38t-38 -16z" />
    <glyph glyph-name="uniFB7B" unicode="&#x686;" horiz-adv-x="588" arabic-form="final" 
d="M94 -238q-21 35 -33 58.5t-21 49.5t-13.5 55t-4.5 65q0 11 1.5 28.5t5.5 39.5h389q9 31 15 84t6 141q0 43 -13 79t-49 67q-24 19 -58 31t-80 12q-38 0 -80.5 -13.5t-88.5 -48.5l-27 68q34 21 56.5 32t46.5 18.5t50.5 11t59.5 3.5q46 0 89.5 -16t75.5 -43q44 -36 67 -89.5
t23 -126.5q0 -63 -7 -122t-14 -88h131v-71h-528v-7q0 -46 12.5 -86t43.5 -98zM393 -177q-22 0 -38 16t-16 38t16 38t38 16t38 -16t16 -38t-16 -38t-38 -16zM303 -300q-22 0 -38 16t-16 38t16 38t38 16t38 -16t16 -38t-16 -38t-38 -16zM214 -177q-22 0 -38 16t-16 38t16 38
t38 16t38 -16t16 -38t-16 -38t-38 -16z" />
    <glyph glyph-name="uniFB7C" unicode="&#x686;" horiz-adv-x="582" arabic-form="initial" 
d="M-13 58h460q9 31 15 84t6 141q0 43 -13 79t-49 67q-24 19 -58 31t-80 12q-38 0 -80.5 -13.5t-88.5 -48.5l-27 68q34 21 56.5 32t46.5 18.5t50.5 11t59.5 3.5q46 0 89.5 -16t75.5 -43q44 -36 67 -89.5t23 -126.5q0 -40 -3 -79.5t-8 -75t-11.5 -65.5t-17.5 -61h-513v71z
M179 -177q-22 0 -38 16t-16 38t16 38t38 16t38 -16t16 -38t-16 -38t-38 -16zM268 -300q-22 0 -38 16t-16 38t16 38t38 16t38 -16t16 -38t-16 -38t-38 -16zM358 -177q-22 0 -38 16t-16 38t16 38t38 16t38 -16t16 -38t-16 -38t-38 -16z" />
    <glyph glyph-name="uniFB7D" unicode="&#x686;" horiz-adv-x="617" arabic-form="medial" 
d="M-13 58h460q9 31 15 84t6 141q0 43 -13 79t-49 67q-24 19 -58 31t-80 12q-38 0 -80.5 -13.5t-88.5 -48.5l-27 68q34 21 56.5 32t46.5 18.5t50.5 11t59.5 3.5q46 0 89.5 -16t75.5 -43q44 -36 67 -89.5t23 -126.5q0 -63 -7 -122t-14 -88h131v-71h-663v71zM358 -177
q-22 0 -38 16t-16 38t16 38t38 16t38 -16t16 -38t-16 -38t-38 -16zM268 -300q-22 0 -38 16t-16 38t16 38t38 16t38 -16t16 -38t-16 -38t-38 -16zM179 -177q-22 0 -38 16t-16 38t16 38t38 16t38 -16t16 -38t-16 -38t-38 -16z" />
    <glyph glyph-name="uniFB89" unicode="&#x688;" horiz-adv-x="582" arabic-form="final" 
d="M22 58h388v263q0 36 -7 61t-23 45.5t-42.5 32.5t-52.5 12h-86v71h80q51 0 87.5 -17t67.5 -51q25 -29 36 -66.5t11 -75.5v-275h134v-71h-593v71zM141 708h46v142h70v-57h35q46 0 73 -29.5t27 -72.5v-49h-251v66zM257 732v-24h68q0 3 -8 13.5t-25 10.5h-35z" />
    <glyph glyph-name="uniFB8B" unicode="&#x698;" horiz-adv-x="350" arabic-form="final" 
d="M85 -234q-28 0 -67 17l26 66q29 -12 45 -12q24 0 37 9.5t20 25.5t9 37.5t2 41.5v592h71v-485h155v-71h-155v-36q0 -36 -5.5 -69.5t-21 -59.5t-44 -41t-72.5 -15zM282 646q-22 0 -38 16t-16 38t16 38t38 16t38 -16t16 -38t-16 -38t-38 -16zM192 780q-22 0 -38 16t-16 38
t16 38t38 16t38 -16t16 -38t-16 -38t-38 -16zM103 646q-22 0 -38 16t-16 38t16 38t38 16t38 -16t16 -38t-16 -38t-38 -16z" />
    <glyph glyph-name="uniFB8D" unicode="&#x691;" horiz-adv-x="350" arabic-form="final" 
d="M85 -234q-28 0 -67 17l26 66q29 -12 45 -12q24 0 37 9.5t20 25.5t9 37.5t2 41.5v592h71v-485h155v-71h-155v-36q0 -36 -5.5 -69.5t-21 -59.5t-44 -41t-72.5 -15zM66 708h46v142h70v-57h35q46 0 73 -29.5t27 -72.5v-49h-251v66zM182 732v-24h68q0 3 -8 13.5t-25 10.5h-35z
" />
    <glyph glyph-name="uniFB8F" unicode="&#x6a9;" horiz-adv-x="1014" arabic-form="final" 
d="M353 -13q-42 0 -74 3.5t-58.5 11.5t-48.5 20t-44 29q-39 29 -57.5 77t-18.5 93v223h71v-213q0 -51 14 -81t41 -50q28 -21 66 -31.5t81 -10.5h517v203q0 36 -7 61t-23 45.5t-42.5 32.5t-52.5 12h-313q-17 16 -23.5 27t-12.5 32l178 354h79l-170 -342h256q51 0 87.5 -17
t67.5 -51q25 -29 36 -66.5t11 -75.5v-215h134v-71h-694z" />
    <glyph glyph-name="uniFB90" unicode="&#x6a9;" horiz-adv-x="761" arabic-form="initial" 
d="M-13 58h651v203q0 36 -7 61t-23 45.5t-42.5 32.5t-52.5 12h-423q-17 16 -23.5 27t-12.5 32l178 354h79l-170 -342h366q51 0 87.5 -17t67.5 -51q25 -29 36 -66.5t11 -75.5v-286h-722v71z" />
    <glyph glyph-name="uniFB91" unicode="&#x6a9;" horiz-adv-x="810" arabic-form="medial" 
d="M-13 58h651v203q0 36 -7 61t-23 45.5t-42.5 32.5t-52.5 12h-423q-17 16 -23.5 27t-12.5 32l178 354h79l-170 -342h366q51 0 87.5 -17t67.5 -51q25 -29 36 -66.5t11 -75.5v-215h134v-71h-856v71z" />
    <glyph glyph-name="uniFB93" unicode="&#x6af;" horiz-adv-x="1014" arabic-form="final" 
d="M353 -13q-42 0 -74 3.5t-58.5 11.5t-48.5 20t-44 29q-39 29 -57.5 77t-18.5 93v223h71v-213q0 -51 14 -81t41 -50q28 -21 66 -31.5t81 -10.5h517v203q0 36 -7 61t-23 45.5t-42.5 32.5t-52.5 12h-313q-17 16 -23.5 27t-12.5 32l178 354h79l-170 -342h256q51 0 87.5 -17
t67.5 -51q25 -29 36 -66.5t11 -75.5v-215h134v-71h-694zM305 457h-74l185 368h74z" />
    <glyph glyph-name="uniFB94" unicode="&#x6af;" horiz-adv-x="823" arabic-form="initial" 
d="M53 457h-74l185 368h74zM-13 58h713v203q0 36 -7 61t-23 45.5t-42.5 32.5t-52.5 12h-423q-17 16 -23.5 27t-12.5 32l178 354h79l-170 -342h366q51 0 87.5 -17t67.5 -51q25 -29 36 -66.5t11 -75.5v-286h-784v71z" />
    <glyph glyph-name="uniFB95" unicode="&#x6af;" horiz-adv-x="872" arabic-form="medial" 
d="M-13 58h713v203q0 36 -7 61t-23 45.5t-42.5 32.5t-52.5 12h-423q-17 16 -23.5 27t-12.5 32l178 354h79l-170 -342h366q51 0 87.5 -17t67.5 -51q25 -29 36 -66.5t11 -75.5v-215h134v-71h-918v71zM53 457h-74l185 368h74z" />
    <glyph glyph-name="uniFB9F" unicode="&#x6ba;" horiz-adv-x="636" arabic-form="final" 
d="M353 -138q-42 0 -74 3.5t-58.5 11.5t-48.5 20t-44 29q-39 29 -57.5 77t-18.5 93v379h71v-369q0 -51 14 -81t41 -50q28 -21 66 -31.5t81 -10.5h139v542h71v-417h134v-71h-134v-125h-182z" />
    <glyph glyph-name="uniFBA5" unicode="&#x6c0;" horiz-adv-x="609" arabic-form="final" 
d="M390 -13q-65 0 -126 15.5t-108 49.5t-75.5 87t-28.5 126q0 59 23.5 110t68.5 88.5t107 58.5t139 21h47v50h71v-535h134v-71h-252zM437 58v414h-75q-45 0 -88.5 -15.5t-77 -42t-53.5 -65t-20 -84.5q0 -49 18.5 -87.5t50.5 -64.5t76 -40.5t94 -14.5h75zM288 725
q0 63 29.5 98t89.5 35h69v-71h-62q-32 0 -43 -11.5t-11 -35.5v-27h148v-71h-220v83z" />
    <glyph glyph-name="uniFBA7" unicode="&#x6c1;" horiz-adv-x="533" arabic-form="final" 
d="M377 -13v485h-103q-36 0 -61 -7t-45.5 -23t-32.5 -42.5t-12 -52.5v-186h-71v180q0 51 17 87.5t51 67.5q29 25 66.5 36t75.5 11h186v-485h118v-71h-189z" />
    <glyph glyph-name="uniFBA8" unicode="&#x6c1;" horiz-adv-x="246" arabic-form="initial" 
d="M50 -228l57 199l71 -22l-74 -197zM-13 58h126v485h71v-556h-197v71z" />
    <glyph glyph-name="uniFBA9" unicode="&#x6c1;" horiz-adv-x="595" arabic-form="medial" 
d="M277 -233q-38 0 -75.5 11t-66.5 36q-34 31 -51 67.5t-17 87.5v18h-80v71h80v255h71v-350q0 -26 12 -52.5t32.5 -42.5t45 -23t60.5 -7h68v220h272v-71h-201v-220h-150zM455 -228l57 199l71 -22l-74 -197z" />
    <glyph glyph-name="uniFBAB" unicode="&#x6be;" horiz-adv-x="889" arabic-form="final" 
d="M52 58h145q-2 5 -8 41.5t-6 72.5q0 57 14 104.5t42 81.5t67.5 53t90.5 19t90 -19t66.5 -53t41 -81.5t13.5 -104.5q0 -36 -5 -72t-7 -42h126q6 28 11 69t5 77q0 65 -8.5 115t-32.5 100q-34 72 -106 112.5t-179 40.5q-60 0 -113.5 -19.5t-107.5 -48.5l-30 65
q74 38 136 56.5t139 18.5q56 0 106 -15t91 -40t72.5 -58t50.5 -70q29 -56 41 -118t12 -126q0 -46 -5.5 -89.5t-10.5 -69.5h129v-71h-870v71zM254 172q0 -37 5 -70.5t7 -43.5h259q2 10 7 43t5 71q0 40 -9 74.5t-27 59.5t-43.5 39t-60.5 14q-36 0 -62.5 -13.5t-44.5 -38.5
t-27 -59.5t-9 -75.5z" />
    <glyph glyph-name="uniFBAC" unicode="&#x6be;" horiz-adv-x="766" arabic-form="initial" 
d="M-33 58h145q-2 5 -8 41.5t-6 72.5q0 57 14 104.5t42 81.5t67.5 53t90.5 19t90 -19t66.5 -53t41 -81.5t13.5 -104.5q0 -36 -5 -72t-7 -42h126q6 28 11 69t5 77q0 65 -8.5 115t-32.5 100q-34 72 -106 112.5t-179 40.5q-60 0 -113.5 -19.5t-107.5 -48.5l-30 65
q74 38 136 56.5t139 18.5q56 0 106 -15t91 -40t72.5 -58t50.5 -70q29 -56 41 -118t12 -126q0 -58 -8.5 -113.5t-22.5 -116.5h-726v71zM169 172q0 -37 5 -70.5t7 -43.5h259q2 10 7 43t5 71q0 40 -9 74.5t-27 59.5t-43.5 39t-60.5 14q-36 0 -62.5 -13.5t-44.5 -38.5t-27 -59.5
t-9 -75.5z" />
    <glyph glyph-name="uniFBAD" unicode="&#x6be;" horiz-adv-x="804" arabic-form="medial" 
d="M-33 58h145q-2 5 -8 41.5t-6 72.5q0 57 14 104.5t42 81.5t67.5 53t90.5 19t90 -19t66.5 -53t41 -81.5t13.5 -104.5q0 -36 -5 -72t-7 -42h126q6 28 11 69t5 77q0 65 -8.5 115t-32.5 100q-34 72 -106 112.5t-179 40.5q-60 0 -113.5 -19.5t-107.5 -48.5l-30 65
q74 38 136 56.5t139 18.5q56 0 106 -15t91 -40t72.5 -58t50.5 -70q29 -56 41 -118t12 -126q0 -46 -5.5 -89.5t-10.5 -69.5h129v-71h-870v71zM169 172q0 -37 5 -70.5t7 -43.5h259q2 10 7 43t5 71q0 40 -9 74.5t-27 59.5t-43.5 39t-60.5 14q-36 0 -62.5 -13.5t-44.5 -38.5
t-27 -59.5t-9 -75.5z" />
    <glyph glyph-name="uniFBAF" unicode="&#x6d2;" horiz-adv-x="655" arabic-form="final" 
d="M688 -13h-585v2q0 -36 7 -61t23 -45.5t42.5 -32.5t52.5 -12h314v-71h-308q-51 0 -87.5 17t-67.5 51q-25 29 -36 66.5t-11 75.5v81h656v-71z" />
    <glyph glyph-name="uniFBB1" unicode="&#x6d3;" horiz-adv-x="655" arabic-form="final" 
d="M688 -13h-585v2q0 -36 7 -61t23 -45.5t42.5 -32.5t52.5 -12h314v-71h-308q-51 0 -87.5 17t-67.5 51q-25 29 -36 66.5t-11 75.5v81h656v-71zM22 220q0 63 29.5 98t89.5 35h69v-71h-62q-32 0 -43 -11.5t-11 -35.5v-27h148v-71h-220v83z" />
    <glyph glyph-name="uniFBE8" unicode="&#x649;" horiz-adv-x="246" arabic-form="initial" 
d="M-13 58h126v485h71v-556h-197v71z" />
    <glyph glyph-name="uniFBE9" unicode="&#x649;" horiz-adv-x="285" arabic-form="medial" 
d="M-13 58h126v485h71v-485h134v-71h-331v71z" />
    <glyph glyph-name="uniFBFD" unicode="&#x6cc;" horiz-adv-x="1083" arabic-form="final" 
d="M911 472h-103q-36 0 -61 -7t-45.5 -23t-32.5 -42.5t-12 -52.5v-485h-247q-42 0 -74 3.5t-58.5 11.5t-48.5 20t-44 29q-39 29 -57.5 77t-18.5 93v267h71v-257q0 -51 14 -81t41 -50q28 -21 66 -31.5t81 -10.5h204v408q0 51 17 87.5t51 67.5q29 25 66.5 36t75.5 11h186v-485
h134v-71h-205v485z" />
    <glyph glyph-name="uniFBFE" unicode="&#x6cc;" horiz-adv-x="355" arabic-form="initial" 
d="M-13 58h226v485h71v-556h-297v71zM60 -220q-22 0 -38 16t-16 38t16 38t38 16t38 -16t16 -38t-16 -38t-38 -16zM239 -220q-22 0 -38 16t-16 38t16 38t38 16t38 -16t16 -38t-16 -38t-38 -16z" />
    <glyph glyph-name="uniFBFF" unicode="&#x6cc;" horiz-adv-x="465" arabic-form="medial" 
d="M-13 58h226v485h71v-485h214v-71h-511v71zM329 -220q-22 0 -38 16t-16 38t16 38t38 16t38 -16t16 -38t-16 -38t-38 -16zM150 -220q-22 0 -38 16t-16 38t16 38t38 16t38 -16t16 -38t-16 -38t-38 -16z" />
    <glyph glyph-name="uniFC5E" unicode="&#xfc5e;" arabic-form="isolated" 
d="M-45 219q-2 7 -2 25q0 40 22.5 67t67.5 27q34 0 55 -24.5t21 -59.5q0 -14 -1 -25t-7 -41l-227 -33l-44 115l54 20l28 -76zM-41 -13q-25 0 -48 15t-30 53l-11 61l56 11l12 -58q4 -17 10 -21.5t14 -4.5q12 0 20 10t8 28q0 19 -7 56l57 9l12 -59q2 -10 8 -16t15 -6
q13 0 19.5 5.5t6.5 19.5q0 28 -15 70l59 14q4 -26 7 -37q2 -11 3.5 -22t1.5 -20q0 -41 -23 -63.5t-63 -22.5q-21 0 -31.5 9t-12.5 14q-3 -13 -19 -29t-49 -16zM8 252q0 -17 2 -24l61 9q-12 -61 -9 -28t3 39q0 14 -6.5 24.5t-22.5 10.5q-12 0 -20 -8t-8 -23z" />
    <glyph glyph-name="uniFC5F" unicode="&#xfc5f;" arabic-form="isolated" 
d="M-58 141q-25 0 -48 15t-30 53l-11 61l56 11l12 -58q4 -17 10 -21.5t14 -4.5q12 0 20 10t8 28q0 19 -7 56l57 9l12 -59q2 -10 8 -16t15 -6q13 0 19.5 5.5t6.5 19.5q0 28 -15 70l59 14q4 -26 7 -37q2 -11 3.5 -22t1.5 -20q0 -41 -23 -63.5t-63 -22.5q-21 0 -31.5 9
t-12.5 14q-3 -13 -19 -29t-49 -16zM-102 39l250 36v-54l-250 -36v54zM-103 106l250 36v-54l-250 -36v54z" />
    <glyph glyph-name="uniFC60" unicode="&#xfc60;" arabic-form="isolated" 
d="M-54 -13q-25 0 -48 15t-30 53l-11 61l56 11l12 -58q4 -17 10 -21.5t14 -4.5q12 0 20 10t8 28q0 19 -7 56l57 9l12 -59q2 -10 8 -16t15 -6q13 0 19.5 5.5t6.5 19.5q0 28 -15 70l59 14q4 -26 7 -37q2 -11 3.5 -22t1.5 -20q0 -41 -23 -63.5t-63 -22.5q-21 0 -31.5 9
t-12.5 14q-3 -13 -19 -29t-49 -16zM-140 237l250 36v-56l-250 -36v56z" />
    <glyph glyph-name="uniFC61" unicode="&#xfc61;" arabic-form="isolated" 
d="M-135 214l81 12q-2 7 -2 26q0 40 22.5 67t67.5 27q34 0 55 -24.5t21 -59.5q0 -14 -1 -25t-7 -41l-231 -33zM-54 -13q-25 0 -48 15t-30 53l-11 61l56 11l12 -58q4 -17 10 -21.5t14 -4.5q12 0 20 10t8 28q0 19 -7 56l57 9l12 -59q2 -10 8 -16t15 -6q13 0 19.5 5.5t6.5 19.5
q0 28 -15 70l59 14q4 -26 7 -37q2 -11 3.5 -22t1.5 -20q0 -41 -23 -63.5t-63 -22.5q-21 0 -31.5 9t-12.5 14q-3 -13 -19 -29t-49 -16zM-1 258q0 -17 2 -22l61 9q-12 -61 -9 -28t3 39q0 14 -6.5 24.5t-22.5 10.5q-12 0 -20 -8t-8 -25z" />
    <glyph glyph-name="uniFC62" unicode="&#xfc62;" arabic-form="isolated" 
d="M-57 78q-25 0 -48 15t-30 53l-11 61l56 11l12 -58q4 -17 10 -21.5t14 -4.5q12 0 20 10t8 28q0 19 -7 56l57 9l12 -59q2 -10 8 -16t15 -6q13 0 19.5 5.5t6.5 19.5q0 28 -15 70l59 14q4 -26 7 -37q2 -11 3.5 -22t1.5 -20q0 -41 -23 -63.5t-63 -22.5q-21 0 -31.5 9t-12.5 14
q-3 -13 -19 -29t-49 -16zM-103 41l250 36v-56l-250 -36v56z" />
    <glyph glyph-name="uniFC63" unicode="&#xfc63;" arabic-form="isolated" 
d="M-54 -13q-25 0 -48 15t-30 53l-11 61l56 11l12 -58q4 -17 10 -21.5t14 -4.5q12 0 20 10t8 28q0 19 -7 56l57 9l12 -59q2 -10 8 -16t15 -6q13 0 19.5 5.5t6.5 19.5q0 28 -15 70l59 14q4 -26 7 -37q2 -11 3.5 -22t1.5 -20q0 -41 -23 -63.5t-63 -22.5q-21 0 -31.5 9
t-12.5 14q-3 -13 -19 -29t-49 -16zM-41 397h62v-210l-62 -9v219z" />
    <glyph glyph-name="uniFE70" unicode="&#xfe70;" arabic-form="isolated" 
d="M-29 776l250 36v-54l-250 -36v54zM-30 843l250 36v-54l-250 -36v54z" />
    <glyph glyph-name="uniFE72" unicode="&#xfe72;" arabic-form="isolated" 
d="M81 773q-2 7 -2 25q0 40 22.5 67t67.5 27q34 0 55 -24.5t21 -59.5q0 -14 -1 -25t-7 -41l-227 -33l-44 115l54 20l28 -76zM134 806q0 -17 2 -24l61 9q-12 -61 -9 -28t3 39q0 14 -6.5 24.5t-22.5 10.5q-12 0 -20 -8t-8 -23z" />
    <glyph glyph-name="uniFE74" unicode="&#xfe74;" arabic-form="isolated" 
d="M-29 -170l250 36v-54l-250 -36v54zM-30 -103l250 36v-54l-250 -36v54z" />
    <glyph glyph-name="uniFE76" unicode="&#xfe76;" arabic-form="isolated" 
d="M-24 746l250 36v-56l-250 -36v56z" />
    <glyph glyph-name="uniFE78" unicode="&#xfe78;" arabic-form="isolated" 
d="M-30 760l81 12q-2 7 -2 26q0 40 22.5 67t67.5 27q34 0 55 -24.5t21 -59.5q0 -14 -1 -25t-7 -41l-231 -33zM104 804q0 -17 2 -22l61 9q-12 -61 -9 -28t3 39q0 14 -6.5 24.5t-22.5 10.5q-12 0 -20 -8t-8 -25z" />
    <glyph glyph-name="uniFE7A" unicode="&#xfe7a;" arabic-form="isolated" 
d="M-24 -175l250 36v-56l-250 -36v56z" />
    <glyph glyph-name="uniFE7C" unicode="&#xfe7c;" arabic-form="isolated" 
d="M43 695q-25 0 -48 15t-30 53l-11 61l56 11l12 -58q4 -17 10 -21.5t14 -4.5q12 0 20 10t8 28q0 19 -7 56l57 9l12 -59q2 -10 8 -16t15 -6q13 0 19.5 5.5t6.5 19.5q0 28 -15 70l59 14q4 -26 7 -37q2 -11 3.5 -22t1.5 -20q0 -41 -23 -63.5t-63 -22.5q-21 0 -31.5 9t-12.5 14
q-3 -13 -19 -29t-49 -16z" />
    <glyph glyph-name="uniFE7E" unicode="&#xfe7e;" arabic-form="isolated" 
d="M65 699q-37 0 -60 22.5t-23 68.5q0 43 25 68t64 25q41 0 63 -25.5t22 -68t-26 -66.5t-65 -24zM68 750q12 0 23 7t11 32q0 23 -10.5 32.5t-23.5 9.5q-10 0 -20.5 -8t-10.5 -32q0 -27 9 -34t22 -7z" />
    <glyph glyph-name="uniFE82" unicode="&#x622;" horiz-adv-x="307" arabic-form="final" 
d="M113 703h71v-645h156v-71h-227v716zM22 813h251v-71h-251v71z" />
    <glyph glyph-name="uniFE84" unicode="&#x623;" horiz-adv-x="306" arabic-form="final" 
d="M112 703h71v-645h156v-71h-227v716zM47 784q0 63 29.5 98t89.5 35h49v-71h-42q-32 0 -43 -11.5t-11 -22.5h128v-71h-200v43z" />
    <glyph glyph-name="uniFE86" unicode="&#x624;" horiz-adv-x="635" arabic-form="final" 
d="M300 -233q-49 0 -87.5 14t-89.5 44l33 63q47 -26 79 -38t69 -12q65 0 101.5 30t36.5 84v35h-47q-65 0 -126 14.5t-109.5 47.5t-78 86.5t-29.5 129.5q0 61 24 112.5t69 88.5t108 57t142 20h118v-485h155v-71h-155v-35q0 -86 -58.5 -135.5t-154.5 -49.5zM123 265
q0 -52 19 -90.5t52.5 -64t78 -39t94.5 -13.5h75v414h-75q-45 0 -89 -15t-78.5 -42t-55.5 -64.5t-21 -85.5zM304 725q0 63 29.5 98t89.5 35h69v-71h-62q-32 0 -43 -11.5t-11 -35.5v-27h148v-71h-220v83z" />
    <glyph glyph-name="uniFE88" unicode="&#x625;" horiz-adv-x="306" arabic-form="final" 
d="M171 -234q-60 0 -89.5 35t-29.5 98v43h200v-71h-128q0 -11 11 -22.5t43 -11.5h42v-71h-49zM112 824h71v-766h156v-71h-227v837z" />
    <glyph glyph-name="uniFE8A" unicode="&#x626;" horiz-adv-x="1083" arabic-form="final" 
d="M911 472h-103q-36 0 -61 -7t-45.5 -23t-32.5 -42.5t-12 -52.5v-485h-247q-42 0 -74 3.5t-58.5 11.5t-48.5 20t-44 29q-39 29 -57.5 77t-18.5 93v267h71v-257q0 -51 14 -81t41 -50q28 -21 66 -31.5t81 -10.5h204v408q0 51 17 87.5t51 67.5q29 25 66.5 36t75.5 11h186v-485
h134v-71h-205v485zM42 532q0 63 29.5 98t89.5 35h69v-71h-62q-32 0 -43 -11.5t-11 -35.5v-27h148v-71h-220v83z" />
    <glyph glyph-name="uniFE8B" unicode="&#x626;" horiz-adv-x="266" arabic-form="initial" 
d="M-13 58h126v485h71v-556h-197v71zM44 725q0 63 29.5 98t89.5 35h69v-71h-62q-32 0 -43 -11.5t-11 -35.5v-27h148v-71h-220v83z" />
    <glyph glyph-name="uniFE8C" unicode="&#x626;" horiz-adv-x="285" arabic-form="medial" 
d="M-13 58h126v485h71v-485h134v-71h-331v71zM41 725q0 63 29.5 98t89.5 35h69v-71h-62q-32 0 -43 -11.5t-11 -35.5v-27h148v-71h-220v83z" />
    <glyph glyph-name="uniFE8E" unicode="&#x627;" horiz-adv-x="311" arabic-form="final" 
d="M117 824h71v-766h156v-71h-227v837z" />
    <glyph glyph-name="uniFE90" unicode="&#x628;" horiz-adv-x="836" arabic-form="final" 
d="M353 -13q-42 0 -74 3.5t-58.5 11.5t-48.5 20t-44 29q-39 29 -57.5 77t-18.5 93v223h71v-213q0 -51 14 -81t41 -50q28 -21 66 -31.5t81 -10.5h339v485h71v-485h134v-71h-516zM446 -220q-22 0 -38 16t-16 38t16 38t38 16t38 -16t16 -38t-16 -38t-38 -16z" />
    <glyph glyph-name="uniFE91" unicode="&#x628;" horiz-adv-x="244" arabic-form="initial" 
d="M-13 58h126v485h71v-556h-197v71zM148 -220q-22 0 -38 16t-16 38t16 38t38 16t38 -16t16 -38t-16 -38t-38 -16z" />
    <glyph glyph-name="uniFE92" unicode="&#x628;" horiz-adv-x="285" arabic-form="medial" 
d="M-13 58h126v485h71v-485h134v-71h-331v71zM149 -220q-22 0 -38 16t-16 38t16 38t38 16t38 -16t16 -38t-16 -38t-38 -16z" />
    <glyph glyph-name="uniFE94" unicode="&#x629;" horiz-adv-x="609" arabic-form="final" 
d="M390 -13q-65 0 -126 15.5t-108 49.5t-75.5 87t-28.5 126q0 59 23.5 110t68.5 88.5t107 58.5t139 21h47v50h71v-535h134v-71h-252zM437 58v414h-75q-45 0 -88.5 -15.5t-77 -42t-53.5 -65t-20 -84.5q0 -49 18.5 -87.5t50.5 -64.5t76 -40.5t94 -14.5h75zM289 685
q-22 0 -38 16t-16 38t16 38t38 16t38 -16t16 -38t-16 -38t-38 -16zM468 685q-22 0 -38 16t-16 38t16 38t38 16t38 -16t16 -38t-16 -38t-38 -16z" />
    <glyph glyph-name="uniFE96" unicode="&#x62a;" horiz-adv-x="836" arabic-form="final" 
d="M353 -13q-42 0 -74 3.5t-58.5 11.5t-48.5 20t-44 29q-39 29 -57.5 77t-18.5 93v223h71v-213q0 -51 14 -81t41 -50q28 -21 66 -31.5t81 -10.5h339v485h71v-485h134v-71h-516zM495 546q-22 0 -38 16t-16 38t16 38t38 16t38 -16t16 -38t-16 -38t-38 -16zM316 546
q-22 0 -38 16t-16 38t16 38t38 16t38 -16t16 -38t-16 -38t-38 -16z" />
    <glyph glyph-name="uniFE97" unicode="&#x62a;" horiz-adv-x="402" arabic-form="initial" 
d="M-13 58h226v485h71v-556h-297v71zM152 646q-22 0 -38 16t-16 38t16 38t38 16t38 -16t16 -38t-16 -38t-38 -16zM331 646q-22 0 -38 16t-16 38t16 38t38 16t38 -16t16 -38t-16 -38t-38 -16z" />
    <glyph glyph-name="uniFE98" unicode="&#x62a;" horiz-adv-x="465" arabic-form="medial" 
d="M-13 58h226v485h71v-485h214v-71h-511v71zM330 646q-22 0 -38 16t-16 38t16 38t38 16t38 -16t16 -38t-16 -38t-38 -16zM151 646q-22 0 -38 16t-16 38t16 38t38 16t38 -16t16 -38t-16 -38t-38 -16z" />
    <glyph glyph-name="uniFE9A" unicode="&#x62b;" horiz-adv-x="836" arabic-form="final" 
d="M353 -13q-42 0 -74 3.5t-58.5 11.5t-48.5 20t-44 29q-39 29 -57.5 77t-18.5 93v223h71v-213q0 -51 14 -81t41 -50q28 -21 66 -31.5t81 -10.5h339v485h71v-485h134v-71h-516zM497 546q-22 0 -38 16t-16 38t16 38t38 16t38 -16t16 -38t-16 -38t-38 -16zM407 680
q-22 0 -38 16t-16 38t16 38t38 16t38 -16t16 -38t-16 -38t-38 -16zM318 546q-22 0 -38 16t-16 38t16 38t38 16t38 -16t16 -38t-16 -38t-38 -16z" />
    <glyph glyph-name="uniFE9B" unicode="&#x62b;" horiz-adv-x="397" arabic-form="initial" 
d="M-13 58h226v485h71v-556h-297v71zM147 646q-22 0 -38 16t-16 38t16 38t38 16t38 -16t16 -38t-16 -38t-38 -16zM236 780q-22 0 -38 16t-16 38t16 38t38 16t38 -16t16 -38t-16 -38t-38 -16zM326 646q-22 0 -38 16t-16 38t16 38t38 16t38 -16t16 -38t-16 -38t-38 -16z" />
    <glyph glyph-name="uniFE9C" unicode="&#x62b;" horiz-adv-x="465" arabic-form="medial" 
d="M-13 58h226v485h71v-485h214v-71h-511v71zM237 780q-22 0 -38 16t-16 38t16 38t38 16t38 -16t16 -38t-16 -38t-38 -16zM148 646q-22 0 -38 16t-16 38t16 38t38 16t38 -16t16 -38t-16 -38t-38 -16zM327 646q-22 0 -38 16t-16 38t16 38t38 16t38 -16t16 -38t-16 -38
t-38 -16z" />
    <glyph glyph-name="uniFE9E" unicode="&#x62c;" horiz-adv-x="588" arabic-form="final" 
d="M93 -20q0 -46 12.5 -86t43.5 -98l-55 -34q-21 35 -33 58.5t-21 49.5t-13.5 55t-4.5 65q0 11 1.5 28.5t5.5 39.5h389q9 31 15 84t6 141q0 43 -13 79t-49 67q-24 19 -58 31t-80 12q-38 0 -80.5 -13.5t-88.5 -48.5l-27 68q34 21 56.5 32t46.5 18.5t50.5 11t59.5 3.5
q46 0 89.5 -16t75.5 -43q44 -36 67 -89.5t23 -126.5q0 -63 -7 -122t-14 -88h131v-71h-528v-7zM282 -220q-22 0 -38 16t-16 38t16 38t38 16t38 -16t16 -38t-16 -38t-38 -16z" />
    <glyph glyph-name="uniFE9F" unicode="&#x62c;" horiz-adv-x="582" arabic-form="initial" 
d="M-13 58h460q9 31 15 84t6 141q0 43 -13 79t-49 67q-24 19 -58 31t-80 12q-38 0 -80.5 -13.5t-88.5 -48.5l-27 68q34 21 56.5 32t46.5 18.5t50.5 11t59.5 3.5q46 0 89.5 -16t75.5 -43q44 -36 67 -89.5t23 -126.5q0 -40 -3 -79.5t-8 -75t-11.5 -65.5t-17.5 -61h-513v71z
M274 -220q-22 0 -38 16t-16 38t16 38t38 16t38 -16t16 -38t-16 -38t-38 -16z" />
    <glyph glyph-name="uniFEA0" unicode="&#x62c;" horiz-adv-x="617" arabic-form="medial" 
d="M-13 58h460q9 31 15 84t6 141q0 43 -13 79t-49 67q-24 19 -58 31t-80 12q-38 0 -80.5 -13.5t-88.5 -48.5l-27 68q34 21 56.5 32t46.5 18.5t50.5 11t59.5 3.5q46 0 89.5 -16t75.5 -43q44 -36 67 -89.5t23 -126.5q0 -63 -7 -122t-14 -88h131v-71h-663v71zM274 -220
q-22 0 -38 16t-16 38t16 38t38 16t38 -16t16 -38t-16 -38t-38 -16z" />
    <glyph glyph-name="uniFEA2" unicode="&#x62d;" horiz-adv-x="588" arabic-form="final" 
d="M94 -238q-21 35 -33 58.5t-21 49.5t-13.5 55t-4.5 65q0 11 1.5 28.5t5.5 39.5h389q9 31 15 84t6 141q0 43 -13 79t-49 67q-24 19 -58 31t-80 12q-38 0 -80.5 -13.5t-88.5 -48.5l-27 68q34 21 56.5 32t46.5 18.5t50.5 11t59.5 3.5q46 0 89.5 -16t75.5 -43q44 -36 67 -89.5
t23 -126.5q0 -63 -7 -122t-14 -88h131v-71h-528v-7q0 -46 12.5 -86t43.5 -98z" />
    <glyph glyph-name="uniFEA3" unicode="&#x62d;" horiz-adv-x="582" arabic-form="initial" 
d="M-13 58h460q9 31 15 84t6 141q0 43 -13 79t-49 67q-24 19 -58 31t-80 12q-38 0 -80.5 -13.5t-88.5 -48.5l-27 68q34 21 56.5 32t46.5 18.5t50.5 11t59.5 3.5q46 0 89.5 -16t75.5 -43q44 -36 67 -89.5t23 -126.5q0 -40 -3 -79.5t-8 -75t-11.5 -65.5t-17.5 -61h-513v71z
" />
    <glyph glyph-name="uniFEA4" unicode="&#x62d;" horiz-adv-x="617" arabic-form="medial" 
d="M-13 58h460q9 31 15 84t6 141q0 43 -13 79t-49 67q-24 19 -58 31t-80 12q-38 0 -80.5 -13.5t-88.5 -48.5l-27 68q34 21 56.5 32t46.5 18.5t50.5 11t59.5 3.5q46 0 89.5 -16t75.5 -43q44 -36 67 -89.5t23 -126.5q0 -63 -7 -122t-14 -88h131v-71h-663v71z" />
    <glyph glyph-name="uniFEA6" unicode="&#x62e;" horiz-adv-x="588" arabic-form="final" 
d="M93 -20q0 -46 12.5 -86t43.5 -98l-55 -34q-21 35 -33 58.5t-21 49.5t-13.5 55t-4.5 65q0 11 1.5 28.5t5.5 39.5h389q9 31 15 84t6 141q0 43 -13 79t-49 67q-24 19 -58 31t-80 12q-38 0 -80.5 -13.5t-88.5 -48.5l-27 68q34 21 56.5 32t46.5 18.5t50.5 11t59.5 3.5
q46 0 89.5 -16t75.5 -43q44 -36 67 -89.5t23 -126.5q0 -63 -7 -122t-14 -88h131v-71h-528v-7zM252 634q-22 0 -38 16t-16 38t16 38t38 16t38 -16t16 -38t-16 -38t-38 -16z" />
    <glyph glyph-name="uniFEA7" unicode="&#x62e;" horiz-adv-x="582" arabic-form="initial" 
d="M-13 58h460q9 31 15 84t6 141q0 43 -13 79t-49 67q-24 19 -58 31t-80 12q-38 0 -80.5 -13.5t-88.5 -48.5l-27 68q34 21 56.5 32t46.5 18.5t50.5 11t59.5 3.5q46 0 89.5 -16t75.5 -43q44 -36 67 -89.5t23 -126.5q0 -40 -3 -79.5t-8 -75t-11.5 -65.5t-17.5 -61h-513v71z
M272 646q-22 0 -38 16t-16 38t16 38t38 16t38 -16t16 -38t-16 -38t-38 -16z" />
    <glyph glyph-name="uniFEA8" unicode="&#x62e;" horiz-adv-x="617" arabic-form="medial" 
d="M-13 58h460q9 31 15 84t6 141q0 43 -13 79t-49 67q-24 19 -58 31t-80 12q-38 0 -80.5 -13.5t-88.5 -48.5l-27 68q34 21 56.5 32t46.5 18.5t50.5 11t59.5 3.5q46 0 89.5 -16t75.5 -43q44 -36 67 -89.5t23 -126.5q0 -63 -7 -122t-14 -88h131v-71h-663v71zM272 646
q-22 0 -38 16t-16 38t16 38t38 16t38 -16t16 -38t-16 -38t-38 -16z" />
    <glyph glyph-name="uniFEAA" unicode="&#x62f;" horiz-adv-x="582" arabic-form="final" 
d="M22 58h388v263q0 36 -7 61t-23 45.5t-42.5 32.5t-52.5 12h-86v71h80q51 0 87.5 -17t67.5 -51q25 -29 36 -66.5t11 -75.5v-275h134v-71h-593v71z" />
    <glyph glyph-name="uniFEAC" unicode="&#x630;" horiz-adv-x="582" arabic-form="final" 
d="M22 58h388v263q0 36 -7 61t-23 45.5t-42.5 32.5t-52.5 12h-86v71h80q51 0 87.5 -17t67.5 -51q25 -29 36 -66.5t11 -75.5v-275h134v-71h-593v71zM263 634q-22 0 -38 16t-16 38t16 38t38 16t38 -16t16 -38t-16 -38t-38 -16z" />
    <glyph glyph-name="uniFEAE" unicode="&#x631;" horiz-adv-x="350" arabic-form="final" 
d="M85 -234q-28 0 -67 17l26 66q29 -12 45 -12q24 0 37 9.5t20 25.5t9 37.5t2 41.5v592h71v-485h155v-71h-155v-36q0 -36 -5.5 -69.5t-21 -59.5t-44 -41t-72.5 -15z" />
    <glyph glyph-name="uniFEB0" unicode="&#x632;" horiz-adv-x="350" arabic-form="final" 
d="M85 -234q-28 0 -67 17l26 66q29 -12 45 -12q24 0 37 9.5t20 25.5t9 37.5t2 41.5v592h71v-485h155v-71h-155v-36q0 -36 -5.5 -69.5t-21 -59.5t-44 -41t-72.5 -15zM193 646q-22 0 -38 16t-16 38t16 38t38 16t38 -16t16 -38t-16 -38t-38 -16z" />
    <glyph glyph-name="uniFEB2" unicode="&#x633;" horiz-adv-x="1457" arabic-form="final" 
d="M363 -138q-42 0 -74 3.5t-58.5 11.5t-48.5 20t-44 29q-39 29 -57.5 77t-18.5 93v379h71v-369q0 -51 14 -81t41 -50q28 -21 66 -31.5t81 -10.5h139v610h71v-485h176q54 0 88 32.5t34 95.5v307h71v-299q1 -29 13 -56t33.5 -48t52 -33t68.5 -12q78 0 115 43t37 113v412h71
v-402q0 -18 -1.5 -33.5t-3.5 -25.5q19 -44 59 -69t132 -25v-71q-62 0 -97.5 8.5t-61 22.5t-42.5 32.5t-17 17.5q-15 -36 -67 -63.5t-124 -27.5q-70 0 -126 30t-71 62q-11 -24 -56.5 -53t-106.5 -29h-176v-125h-182z" />
    <glyph glyph-name="uniFEB3" unicode="&#x633;" horiz-adv-x="1095" arabic-form="initial" 
d="M-13 58h226v435h71v-435h176q54 0 88 32.5t34 95.5v307h71v-292q0 -30 11.5 -59t33 -50t52.5 -34t70 -13q78 0 115 43t37 113v412h71v-402q0 -121 -60.5 -177.5t-162.5 -56.5q-70 0 -126 30t-71 62q-11 -24 -56.5 -53t-106.5 -29h-473v71z" />
    <glyph glyph-name="uniFEB4" unicode="&#x633;" horiz-adv-x="1197" arabic-form="medial" 
d="M-13 58h226v435h71v-435h176q54 0 88 32.5t34 95.5v307h71v-292q0 -30 11.5 -59t33 -50t52.5 -34t70 -13q78 0 115 43t37 113v412h71v-402q0 -18 -1.5 -32.5t-3.5 -24.5q10 -21 24.5 -39.5t35 -31t49.5 -19t83 -6.5v-71q-62 0 -97.5 8.5t-61.5 23t-43.5 33t-16.5 16.5
q-15 -35 -67 -63t-124 -28q-70 0 -126 30t-71 62q-11 -24 -56.5 -53t-106.5 -29h-473v71z" />
    <glyph glyph-name="uniFEB6" unicode="&#x634;" horiz-adv-x="1457" arabic-form="final" 
d="M363 -138q-42 0 -74 3.5t-58.5 11.5t-48.5 20t-44 29q-39 29 -57.5 77t-18.5 93v379h71v-369q0 -51 14 -81t41 -50q28 -21 66 -31.5t81 -10.5h139v610h71v-485h176q54 0 88 32.5t34 95.5v307h71v-299q1 -29 13 -56t33.5 -48t52 -33t68.5 -12q78 0 115 43t37 113v412h71
v-402q0 -18 -1.5 -33.5t-3.5 -25.5q19 -44 59 -69t132 -25v-71q-62 0 -97.5 8.5t-61 22.5t-42.5 32.5t-17 17.5q-15 -36 -67 -63.5t-124 -27.5q-70 0 -126 30t-71 62q-11 -24 -56.5 -53t-106.5 -29h-176v-125h-182zM968 646q-22 0 -38 16t-16 38t16 38t38 16t38 -16t16 -38
t-16 -38t-38 -16zM789 646q-22 0 -38 16t-16 38t16 38t38 16t38 -16t16 -38t-16 -38t-38 -16zM878 780q-22 0 -38 16t-16 38t16 38t38 16t38 -16t16 -38t-16 -38t-38 -16z" />
    <glyph glyph-name="uniFEB7" unicode="&#x634;" horiz-adv-x="1095" arabic-form="initial" 
d="M-13 58h226v435h71v-435h176q54 0 88 32.5t34 95.5v307h71v-292q0 -30 11.5 -59t33 -50t52.5 -34t70 -13q78 0 115 43t37 113v412h71v-402q0 -121 -60.5 -177.5t-162.5 -56.5q-70 0 -126 30t-71 62q-11 -24 -56.5 -53t-106.5 -29h-473v71zM526 646q-22 0 -38 16t-16 38
t16 38t38 16t38 -16t16 -38t-16 -38t-38 -16zM615 780q-22 0 -38 16t-16 38t16 38t38 16t38 -16t16 -38t-16 -38t-38 -16zM705 646q-22 0 -38 16t-16 38t16 38t38 16t38 -16t16 -38t-16 -38t-38 -16z" />
    <glyph glyph-name="uniFEB8" unicode="&#x634;" horiz-adv-x="1197" arabic-form="medial" 
d="M-13 58h226v435h71v-435h176q54 0 88 32.5t34 95.5v307h71v-299q1 -29 13 -56t33.5 -48t52 -33t68.5 -12q78 0 115 43t37 113v412h71v-402q0 -18 -1.5 -33t-3.5 -25q10 -21 24.5 -39t35 -30.5t49.5 -19t83 -6.5v-71q-62 0 -97.5 8.5t-61.5 23t-43.5 33t-16.5 16.5
q-15 -35 -67 -63t-124 -28q-70 0 -126 30t-71 62q-11 -24 -56.5 -53t-106.5 -29h-473v71zM704 646q-22 0 -38 16t-16 38t16 38t38 16t38 -16t16 -38t-16 -38t-38 -16zM525 646q-22 0 -38 16t-16 38t16 38t38 16t38 -16t16 -38t-16 -38t-38 -16zM614 780q-22 0 -38 16t-16 38
t16 38t38 16t38 -16t16 -38t-16 -38t-38 -16z" />
    <glyph glyph-name="uniFEBA" unicode="&#x635;" horiz-adv-x="1226" arabic-form="final" 
d="M363 -138q-42 0 -74 3.5t-58.5 11.5t-48.5 20t-44 29q-39 29 -57.5 77t-18.5 93v379h71v-369q0 -51 14 -81t41 -50q28 -21 66 -31.5t81 -10.5h139v610h71v-68h378q51 0 87.5 -17t67.5 -51q25 -29 36 -66.5t11 -75.5v-207h134v-71h-714v-125h-182zM545 404v-346h509v195
q0 36 -7 61t-23 45.5t-42.5 32.5t-52.5 12h-384z" />
    <glyph glyph-name="uniFEBB" unicode="&#x635;" horiz-adv-x="837" arabic-form="initial" 
d="M-13 58h156v485h71v-68h369q51 0 87.5 -17t67.5 -51q25 -29 36 -66.5t11 -75.5v-278h-798v71zM214 404v-346h500v195q0 36 -7 61t-23 45.5t-42.5 32.5t-52.5 12h-375z" />
    <glyph glyph-name="uniFEBC" unicode="&#x635;" horiz-adv-x="886" arabic-form="medial" 
d="M-13 58h156v485h71v-68h369q51 0 87.5 -17t67.5 -51q25 -29 36 -66.5t11 -75.5v-207h134v-71h-932v71zM214 404v-346h500v195q0 36 -7 61t-23 45.5t-42.5 32.5t-52.5 12h-375z" />
    <glyph glyph-name="uniFEBE" unicode="&#x636;" horiz-adv-x="1226" arabic-form="final" 
d="M545 -138h-182q-42 0 -74 3.5t-58.5 11.5t-48.5 20t-44 29q-39 29 -57.5 77t-18.5 93v379h71v-369q0 -51 14 -81t41 -50q28 -21 66 -31.5t81 -10.5h139v610h71v-68h378q51 0 87.5 -17t67.5 -51q25 -29 36 -66.5t11 -75.5v-207h134v-71h-714v-125zM545 404v-346h509v195
q0 36 -7 61t-23 45.5t-42.5 32.5t-52.5 12h-384zM777 587q-22 0 -38 16t-16 38t16 38t38 16t38 -16t16 -38t-16 -38t-38 -16z" />
    <glyph glyph-name="uniFEBF" unicode="&#x636;" horiz-adv-x="837" arabic-form="initial" 
d="M-13 58h156v485h71v-68h369q51 0 87.5 -17t67.5 -51q25 -29 36 -66.5t11 -75.5v-278h-798v71zM214 404v-346h500v195q0 36 -7 61t-23 45.5t-42.5 32.5t-52.5 12h-375zM450 587q-22 0 -38 16t-16 38t16 38t38 16t38 -16t16 -38t-16 -38t-38 -16z" />
    <glyph glyph-name="uniFEC0" unicode="&#x636;" horiz-adv-x="886" arabic-form="medial" 
d="M-13 58h156v485h71v-68h369q51 0 87.5 -17t67.5 -51q25 -29 36 -66.5t11 -75.5v-207h134v-71h-932v71zM214 404v-346h500v195q0 36 -7 61t-23 45.5t-42.5 32.5t-52.5 12h-375zM450 587q-22 0 -38 16t-16 38t16 38t38 16t38 -16t16 -38t-16 -38t-38 -16z" />
    <glyph glyph-name="uniFEC2" unicode="&#x637;" horiz-adv-x="921" arabic-form="final" 
d="M22 58h156v766h71v-349h369q51 0 87.5 -17t67.5 -51q25 -29 36 -66.5t11 -75.5v-207h134v-71h-932v71zM249 404v-346h500v195q0 36 -7 61t-23 45.5t-42.5 32.5t-52.5 12h-375z" />
    <glyph glyph-name="uniFEC3" unicode="&#x637;" horiz-adv-x="837" arabic-form="initial" 
d="M-13 58h156v766h71v-349h369q51 0 87.5 -17t67.5 -51q25 -29 36 -66.5t11 -75.5v-278h-798v71zM214 404v-346h500v195q0 36 -7 61t-23 45.5t-42.5 32.5t-52.5 12h-375z" />
    <glyph glyph-name="uniFEC4" unicode="&#x637;" horiz-adv-x="886" arabic-form="medial" 
d="M-13 58h156v766h71v-349h369q51 0 87.5 -17t67.5 -51q25 -29 36 -66.5t11 -75.5v-207h134v-71h-932v71zM214 404v-346h500v195q0 36 -7 61t-23 45.5t-42.5 32.5t-52.5 12h-375z" />
    <glyph glyph-name="uniFEC6" unicode="&#x638;" horiz-adv-x="921" arabic-form="final" 
d="M22 58h156v766h71v-349h369q51 0 87.5 -17t67.5 -51q25 -29 36 -66.5t11 -75.5v-207h134v-71h-932v71zM249 404v-346h500v195q0 36 -7 61t-23 45.5t-42.5 32.5t-52.5 12h-375zM485 587q-22 0 -38 16t-16 38t16 38t38 16t38 -16t16 -38t-16 -38t-38 -16z" />
    <glyph glyph-name="uniFEC7" unicode="&#x638;" horiz-adv-x="837" arabic-form="initial" 
d="M-13 58h156v766h71v-349h369q51 0 87.5 -17t67.5 -51q25 -29 36 -66.5t11 -75.5v-278h-798v71zM214 404v-346h500v195q0 36 -7 61t-23 45.5t-42.5 32.5t-52.5 12h-375zM450 587q-22 0 -38 16t-16 38t16 38t38 16t38 -16t16 -38t-16 -38t-38 -16z" />
    <glyph glyph-name="uniFEC8" unicode="&#x638;" horiz-adv-x="886" arabic-form="medial" 
d="M-13 58h156v766h71v-349h369q51 0 87.5 -17t67.5 -51q25 -29 36 -66.5t11 -75.5v-207h134v-71h-932v71zM214 404v-346h500v195q0 36 -7 61t-23 45.5t-42.5 32.5t-52.5 12h-375zM450 587q-22 0 -38 16t-16 38t16 38t38 16t38 -16t16 -38t-16 -38t-38 -16z" />
    <glyph glyph-name="uniFECA" unicode="&#x639;" horiz-adv-x="719" arabic-form="final" 
d="M114 -238q-21 35 -33 58.5t-21 49.5t-13.5 55t-4.5 65q0 11 1.5 28.5t5.5 39.5h169l-140 356q70 61 147 95t152 34q74 0 151 -34t149 -95l-147 -356h222v-71h-639v-7q0 -46 12.5 -86t43.5 -98zM377 472q-57 0 -113.5 -22t-100.5 -59l136 -333h155l137 333
q-12 11 -38.5 26.5t-56 28t-60.5 19.5t-59 7z" />
    <glyph glyph-name="uniFECB" unicode="&#x639;" horiz-adv-x="619" arabic-form="initial" 
d="M-13 58h140l-16 29q-13 26 -23.5 55t-17 61t-6.5 65q0 73 28.5 126.5t71.5 89.5q32 27 75.5 43t89.5 16q32 0 58.5 -3.5t50 -11t46 -18.5t56.5 -32l-25 -68q-46 35 -88.5 48.5t-80.5 13.5q-46 0 -80 -12t-58 -31q-72 -61 -72 -146q0 -43 6.5 -76.5t16.5 -61t22 -48.5
l23 -39h363v-71h-580v71z" />
    <glyph glyph-name="uniFECC" unicode="&#x639;" horiz-adv-x="685" arabic-form="medial" 
d="M-13 58h197l-140 356q70 61 147 95t152 34q74 0 151 -34t149 -95l-147 -356h222v-71h-731v71zM343 472q-57 0 -113.5 -22t-100.5 -59l136 -333h155l137 333q-12 11 -38.5 26.5t-56 28t-60.5 19.5t-59 7z" />
    <glyph glyph-name="uniFECE" unicode="&#x63a;" horiz-adv-x="719" arabic-form="final" 
d="M114 -238q-21 35 -33 58.5t-21 49.5t-13.5 55t-4.5 65q0 11 1.5 28.5t5.5 39.5h169l-140 356q70 61 147 95t152 34q74 0 151 -34t149 -95l-147 -356h222v-71h-639v-7q0 -46 12.5 -86t43.5 -98zM377 472q-57 0 -113.5 -22t-100.5 -59l136 -333h155l137 333
q-12 11 -38.5 26.5t-56 28t-60.5 19.5t-59 7zM376 646q-22 0 -38 16t-16 38t16 38t38 16t38 -16t16 -38t-16 -38t-38 -16z" />
    <glyph glyph-name="uniFECF" unicode="&#x63a;" horiz-adv-x="619" arabic-form="initial" 
d="M-13 58h140l-16 29q-13 26 -23.5 55t-17 61t-6.5 65q0 73 28.5 126.5t71.5 89.5q32 27 75.5 43t89.5 16q32 0 58.5 -3.5t50 -11t46 -18.5t56.5 -32l-25 -68q-46 35 -88.5 48.5t-80.5 13.5q-46 0 -80 -12t-58 -31q-72 -61 -72 -146q0 -43 6.5 -76.5t16.5 -61t22 -48.5
l23 -39h363v-71h-580v71zM321 646q-22 0 -38 16t-16 38t16 38t38 16t38 -16t16 -38t-16 -38t-38 -16z" />
    <glyph glyph-name="uniFED0" unicode="&#x63a;" horiz-adv-x="685" arabic-form="medial" 
d="M-13 58h197l-140 356q70 61 147 95t152 34q74 0 151 -34t149 -95l-147 -356h222v-71h-731v71zM343 472q-57 0 -113.5 -22t-100.5 -59l136 -333h155l137 333q-12 11 -38.5 26.5t-56 28t-60.5 19.5t-59 7zM340 646q-22 0 -38 16t-16 38t16 38t38 16t38 -16t16 -38t-16 -38
t-38 -16z" />
    <glyph glyph-name="uniFED2" unicode="&#x641;" horiz-adv-x="1041" arabic-form="final" 
d="M353 -13q-42 0 -74 3.5t-58.5 11.5t-48.5 20t-44 29q-39 29 -57.5 77t-18.5 93v223h71v-213q0 -51 14 -81t41 -50q28 -21 66 -31.5t81 -10.5h236q-18 13 -55 70t-37 138q0 59 21.5 110t64 88.5t105 58t142.5 20.5h138v-485h134v-71h-721zM540 266q0 -70 41 -123t101 -85
h187v414h-95q-49 0 -91 -14.5t-74 -42t-50.5 -65.5t-18.5 -84zM772 646q-22 0 -38 16t-16 38t16 38t38 16t38 -16t16 -38t-16 -38t-38 -16z" />
    <glyph glyph-name="uniFED3" unicode="&#x641;" horiz-adv-x="627" arabic-form="initial" 
d="M-13 58h210q-23 15 -35 27t-30 41t-28 63.5t-10 76.5q0 61 22.5 112.5t66 88t105 56.5t140.5 20h137v-556h-578v71zM165 266q0 -37 11.5 -68.5t30.5 -57.5t45.5 -47t54.5 -35h187v414h-94q-45 0 -88 -14t-75.5 -40t-52 -64.5t-19.5 -87.5zM408 646q-22 0 -38 16t-16 38
t16 38t38 16t38 -16t16 -38t-16 -38t-38 -16z" />
    <glyph glyph-name="uniFED4" unicode="&#x641;" horiz-adv-x="667" arabic-form="medial" 
d="M-13 58h210q-23 15 -35 27t-30 41t-28 63.5t-10 76.5q0 61 22.5 112.5t66 88t105 56.5t140.5 20h137v-440l-15 -45h150v-71h-713v71zM165 266q0 -37 11.5 -68.5t30.5 -57.5t45.5 -47t54.5 -35h187v414h-94q-45 0 -88 -14t-75.5 -40t-52 -64.5t-19.5 -87.5zM407 646
q-22 0 -38 16t-16 38t16 38t38 16t38 -16t16 -38t-16 -38t-38 -16z" />
    <glyph glyph-name="uniFED6" unicode="&#x642;" horiz-adv-x="867" arabic-form="final" 
d="M353 -233q-42 0 -74 3.5t-58.5 11.5t-48.5 20t-44 29q-39 29 -57.5 77t-18.5 93v267h71v-257q0 -51 14 -81t41 -50q28 -21 66 -31.5t81 -10.5h349v149h-47q-68 0 -129 14.5t-109 47t-76.5 86t-28.5 130.5q0 59 23.5 110t68.5 88.5t108.5 58.5t142.5 21h118v-485h155v-71
h-155v-220h-392zM355 265q0 -52 18.5 -91t51.5 -64.5t78 -38.5t96 -13h75v414h-75q-48 0 -92.5 -15.5t-78 -42t-53.5 -65t-20 -84.5zM678 646q-22 0 -38 16t-16 38t16 38t38 16t38 -16t16 -38t-16 -38t-38 -16zM499 646q-22 0 -38 16t-16 38t16 38t38 16t38 -16t16 -38
t-16 -38t-38 -16z" />
    <glyph glyph-name="uniFED7" unicode="&#x642;" horiz-adv-x="627" arabic-form="initial" 
d="M-13 58h210q-23 15 -35 27t-30 41t-28 63.5t-10 76.5q0 61 22.5 112.5t66 88t105 56.5t140.5 20h137v-556h-578v71zM165 266q0 -37 11.5 -68.5t30.5 -57.5t45.5 -47t54.5 -35h187v414h-94q-45 0 -88 -14t-75.5 -40t-52 -64.5t-19.5 -87.5zM320 646q-22 0 -38 16t-16 38
t16 38t38 16t38 -16t16 -38t-16 -38t-38 -16zM499 646q-22 0 -38 16t-16 38t16 38t38 16t38 -16t16 -38t-16 -38t-38 -16z" />
    <glyph glyph-name="uniFED8" unicode="&#x642;" horiz-adv-x="666" arabic-form="medial" 
d="M-13 58h210q-23 15 -35 27t-30 41t-28 63.5t-10 76.5q0 61 22.5 112.5t66 88t105 56.5t140.5 20h137v-485h134v-71h-712v71zM165 266q0 -37 11.5 -68.5t30.5 -57.5t45.5 -47t54.5 -35h187v414h-94q-45 0 -88 -14t-75.5 -40t-52 -64.5t-19.5 -87.5zM320 646q-22 0 -38 16
t-16 38t16 38t38 16t38 -16t16 -38t-16 -38t-38 -16zM499 646q-22 0 -38 16t-16 38t16 38t38 16t38 -16t16 -38t-16 -38t-38 -16z" />
    <glyph glyph-name="uniFEDA" unicode="&#x643;" horiz-adv-x="836" arabic-form="final" 
d="M353 -13q-42 0 -74 3.5t-58.5 11.5t-48.5 20t-44 29q-39 29 -57.5 77t-18.5 93v223h71v-213q0 -51 14 -81t41 -50q28 -21 66 -31.5t81 -10.5h339v766h71v-766h134v-71h-516zM300 382q0 63 29.5 98t89.5 35h69v-71h-62q-32 0 -43 -11.5t-11 -35.5v-27h148v-71h-220v83z
" />
    <glyph glyph-name="uniFEDB" unicode="&#x643;" horiz-adv-x="761" arabic-form="initial" 
d="M-13 58h651v203q0 36 -7 61t-23 45.5t-42.5 32.5t-52.5 12h-423q-17 16 -23.5 27t-12.5 32l178 354h79l-170 -342h366q51 0 87.5 -17t67.5 -51q25 -29 36 -66.5t11 -75.5v-286h-722v71z" />
    <glyph glyph-name="uniFEDC" unicode="&#x643;" horiz-adv-x="810" arabic-form="medial" 
d="M-13 58h651v203q0 36 -7 61t-23 45.5t-42.5 32.5t-52.5 12h-423q-17 16 -23.5 27t-12.5 32l178 354h79l-170 -342h366q51 0 87.5 -17t67.5 -51q25 -29 36 -66.5t11 -75.5v-215h134v-71h-856v71z" />
    <glyph glyph-name="uniFEDE" unicode="&#x644;" horiz-adv-x="658" arabic-form="final" 
d="M353 -138q-42 0 -74 3.5t-58.5 11.5t-48.5 20t-44 29q-39 29 -57.5 77t-18.5 93v379h71v-369q0 -51 14 -81t41 -50q28 -21 66 -31.5t81 -10.5h139v891h170v-71h-99v-695h156v-71h-156v-125h-182z" />
    <glyph glyph-name="uniFEDF" unicode="&#x644;" horiz-adv-x="325" arabic-form="initial" 
d="M-13 58h156v766h170v-71h-99v-766h-227v71z" />
    <glyph glyph-name="uniFEE0" unicode="&#x644;" horiz-adv-x="317" arabic-form="medial" 
d="M-13 58h136v766h71v-766h156v-71h-363v71z" />
    <glyph glyph-name="uniFEE2" unicode="&#x645;" horiz-adv-x="912" arabic-form="final" 
d="M551 -119q-60 0 -110.5 21t-89 58t-62 87t-26.5 94q-34 -1 -66.5 -15.5t-51.5 -39.5q-21 -28 -31.5 -66t-10.5 -81v-172h-71v144q0 83 15.5 136t48.5 91t78.5 55.5t88.5 18.5q3 45 26.5 95.5t62.5 87.5t89.5 58.5t109.5 21.5q65 0 119.5 -23t94.5 -63t62.5 -94t22.5 -118
q0 -75 -23 -119h118v-71h-161q-37 -47 -98 -76.5t-135 -29.5zM551 -48q49 0 91 17t72 46.5t47.5 71t17.5 90.5t-17 91t-47.5 72t-72.5 47t-91 17q-48 0 -88 -18t-69 -49t-45.5 -72.5t-16.5 -87.5q0 -45 16.5 -86.5t46 -72t69.5 -48.5t87 -18z" />
    <glyph glyph-name="uniFEE3" unicode="&#x645;" horiz-adv-x="679" arabic-form="initial" 
d="M-13 58h103q-32 51 -32 140q0 61 22.5 115t61 95t91.5 64.5t115 23.5q65 0 119.5 -23t94.5 -63t62.5 -94t22.5 -118q0 -65 -23 -118.5t-63.5 -93.5t-94.5 -62t-118 -22t-117.5 24t-88.5 61h-155v71zM348 -27q49 0 91 17t72 46.5t47.5 71t17.5 90.5t-17 91t-47.5 72
t-72.5 47t-91 17q-48 0 -88 -18t-69 -49t-45.5 -72.5t-16.5 -87.5q0 -45 16.5 -86.5t46 -72t69.5 -48.5t87 -18z" />
    <glyph glyph-name="uniFEE4" unicode="&#x645;" horiz-adv-x="690" arabic-form="medial" 
d="M-13 58h103q-32 51 -32 140q0 61 22.5 115t61 95t91.5 64.5t115 23.5q65 0 119.5 -23t94.5 -63t62.5 -94t22.5 -118q0 -46 -12 -86t-21 -54h109v-71h-161q-37 -38 -92.5 -61.5t-121.5 -23.5q-64 0 -117.5 24t-88.5 61h-155v71zM348 -27q49 0 91 17t72 46.5t47.5 71
t17.5 90.5t-17 91t-47.5 72t-72.5 47t-91 17q-48 0 -88 -18t-69 -49t-45.5 -72.5t-16.5 -87.5q0 -45 16.5 -86.5t46 -72t69.5 -48.5t87 -18z" />
    <glyph glyph-name="uniFEE6" unicode="&#x646;" horiz-adv-x="636" arabic-form="final" 
d="M353 -138q-42 0 -74 3.5t-58.5 11.5t-48.5 20t-44 29q-39 29 -57.5 77t-18.5 93v379h71v-369q0 -51 14 -81t41 -50q28 -21 66 -31.5t81 -10.5h139v542h71v-417h134v-71h-134v-125h-182zM300 587q-22 0 -38 16t-16 38t16 38t38 16t38 -16t16 -38t-16 -38t-38 -16z" />
    <glyph glyph-name="uniFEE7" unicode="&#x646;" horiz-adv-x="262" arabic-form="initial" 
d="M-13 58h126v485h71v-556h-197v71zM146 646q-22 0 -38 16t-16 38t16 38t38 16t38 -16t16 -38t-16 -38t-38 -16z" />
    <glyph glyph-name="uniFEE8" unicode="&#x646;" horiz-adv-x="285" arabic-form="medial" 
d="M-13 58h126v485h71v-485h134v-71h-331v71zM145 646q-22 0 -38 16t-16 38t16 38t38 16t38 -16t16 -38t-16 -38t-38 -16z" />
    <glyph glyph-name="uniFEE9" unicode="&#x647;" horiz-adv-x="570" arabic-form="isolated" 
d="M390 -13q-65 0 -126 15.5t-108 49.5t-75.5 87t-28.5 126q0 59 23.5 110t68.5 88.5t107 58.5t139 21h47v50h71v-606h-118zM437 58v414h-75q-45 0 -88.5 -15.5t-77 -42t-53.5 -65t-20 -84.5q0 -49 18.5 -87.5t50.5 -64.5t76 -40.5t94 -14.5h75z" />
    <glyph glyph-name="uniFEEA" unicode="&#x647;" horiz-adv-x="609" arabic-form="final" 
d="M642 58v-71h-252q-65 0 -126 15.5t-108 49.5t-75.5 87t-28.5 126q0 59 23.5 110t68.5 88.5t107 58.5t139 21h47v50h71v-535h134zM437 58v414h-75q-45 0 -88.5 -15.5t-77 -42t-53.5 -65t-20 -84.5q0 -49 18.5 -87.5t50.5 -64.5t76 -40.5t94 -14.5h75z" />
    <glyph glyph-name="uniFEEB" unicode="&#x647;" horiz-adv-x="766" arabic-form="initial" 
d="M-33 58h145q-2 5 -8 41.5t-6 72.5q0 57 14 104.5t42 81.5t67.5 53t90.5 19t90 -19t66.5 -53t41 -81.5t13.5 -104.5q0 -36 -5 -72t-7 -42h126q6 28 11 69t5 77q0 65 -8.5 115t-32.5 100q-34 72 -106 112.5t-179 40.5q-60 0 -113.5 -19.5t-107.5 -48.5l-30 65
q74 38 136 56.5t139 18.5q56 0 106 -15t91 -40t72.5 -58t50.5 -70q29 -56 41 -118t12 -126q0 -58 -8.5 -113.5t-22.5 -116.5h-726v71zM169 172q0 -37 5 -70.5t7 -43.5h259q2 10 7 43t5 71q0 40 -9 74.5t-27 59.5t-43.5 39t-60.5 14q-36 0 -62.5 -13.5t-44.5 -38.5t-27 -59.5
t-9 -75.5z" />
    <glyph glyph-name="uniFEEC" unicode="&#x647;" horiz-adv-x="804" arabic-form="medial" 
d="M-33 58h145q-2 5 -8 41.5t-6 72.5q0 57 14 104.5t42 81.5t67.5 53t90.5 19t90 -19t66.5 -53t41 -81.5t13.5 -104.5q0 -36 -5 -72t-7 -42h126q6 28 11 69t5 77q0 65 -8.5 115t-32.5 100q-34 72 -106 112.5t-179 40.5q-60 0 -113.5 -19.5t-107.5 -48.5l-30 65
q74 38 136 56.5t139 18.5q56 0 106 -15t91 -40t72.5 -58t50.5 -70q29 -56 41 -118t12 -126q0 -46 -5.5 -89.5t-10.5 -69.5h129v-71h-870v71zM169 172q0 -37 5 -70.5t7 -43.5h259q2 10 7 43t5 71q0 40 -9 74.5t-27 59.5t-43.5 39t-60.5 14q-36 0 -62.5 -13.5t-44.5 -38.5
t-27 -59.5t-9 -75.5z" />
    <glyph glyph-name="uniFEEE" unicode="&#x648;" horiz-adv-x="635" arabic-form="final" 
d="M300 -233q-49 0 -87.5 14t-89.5 44l33 63q47 -26 79 -38t69 -12q65 0 101.5 30t36.5 84v35h-47q-65 0 -126 14.5t-109.5 47.5t-78 86.5t-29.5 129.5q0 61 24 112.5t69 88.5t108 57t142 20h118v-485h155v-71h-155v-35q0 -86 -58.5 -135.5t-154.5 -49.5zM123 265
q0 -52 19 -90.5t52.5 -64t78 -39t94.5 -13.5h75v414h-75q-45 0 -89 -15t-78.5 -42t-55.5 -64.5t-21 -85.5z" />
    <glyph glyph-name="uniFEF0" unicode="&#x649;" horiz-adv-x="1026" arabic-form="final" 
d="M854 472h-103q-36 0 -61 -7t-45.5 -23t-32.5 -42.5t-12 -52.5v-485h-247q-42 0 -74 3.5t-58.5 11.5t-48.5 20t-44 29q-39 29 -57.5 77t-18.5 93v267h71v-257q0 -51 14 -81t41 -50q28 -21 66 -31.5t81 -10.5h204v408q0 51 17 87.5t51 67.5q29 25 66.5 36t75.5 11h186v-485
h134v-71h-205v485z" />
    <glyph glyph-name="uniFEF2" unicode="&#x64a;" horiz-adv-x="949" arabic-form="final" 
d="M777 472h-103q-36 0 -61 -7t-45.5 -23t-32.5 -42.5t-12 -52.5v-485h-287q-38 0 -68.5 3.5t-56.5 11t-50 17.5t-59 30l35 61q52 -30 90 -41t81 -11h244v408q0 51 17 87.5t51 67.5q29 25 66.5 36t75.5 11h186v-485h134v-71h-205v485zM278 209q-22 0 -38 16t-16 38t16 38
t38 16t38 -16t16 -38t-16 -38t-38 -16zM278 32q-22 0 -38 16t-16 38t16 38t38 16t38 -16t16 -38t-16 -38t-38 -16z" />
    <glyph glyph-name="uniFEF3" unicode="&#x64a;" horiz-adv-x="355" arabic-form="initial" 
d="M-13 58h226v485h71v-556h-297v71zM60 -220q-22 0 -38 16t-16 38t16 38t38 16t38 -16t16 -38t-16 -38t-38 -16zM239 -220q-22 0 -38 16t-16 38t16 38t38 16t38 -16t16 -38t-16 -38t-38 -16z" />
    <glyph glyph-name="uniFEF4" unicode="&#x64a;" horiz-adv-x="465" arabic-form="medial" 
d="M-13 58h226v485h71v-485h214v-71h-511v71zM329 -220q-22 0 -38 16t-16 38t16 38t38 16t38 -16t16 -38t-16 -38t-38 -16zM150 -220q-22 0 -38 16t-16 38t16 38t38 16t38 -16t16 -38t-16 -38t-38 -16z" />
    <glyph glyph-name=".notdef" horiz-adv-x="500" 
 />
    <glyph glyph-name=".null" horiz-adv-x="500" 
 />
    <glyph glyph-name=".null" horiz-adv-x="500" 
 />
    <glyph glyph-name="nonmarkingreturn" horiz-adv-x="500" 
 />
    <glyph glyph-name="space" unicode=" " horiz-adv-x="330" 
 />
    <glyph glyph-name="space" unicode="&#xa0;" horiz-adv-x="330" 
 />
    <glyph glyph-name="exclam" unicode="!" horiz-adv-x="264" 
d="M132 -23q-22 0 -38 16t-16 38t16 38t38 16t38 -16t16 -38t-16 -38t-38 -16zM96 824h71v-627h-71v627z" />
    <glyph glyph-name="quotedbl" unicode="&#x22;" horiz-adv-x="391" 
d="M66 824h79l-15 -298h-48zM246 824h79l-15 -298h-48z" />
    <glyph glyph-name="numbersign" unicode="#" horiz-adv-x="791" 
d="M249 591l33 233h70l-33 -233h205l33 233h69l-32 -233h172l-11 -69h-171l-29 -213h171l-11 -70h-170l-35 -252h-71l35 252h-205l-35 -252h-70l35 252h-175l13 70h172l30 213h-176l14 69h172zM279 309h205l30 213h-205z" />
    <glyph glyph-name="dollar" unicode="$" horiz-adv-x="693" 
d="M313 -23q-61 2 -129 21.5t-132 58.5l39 64q57 -35 116.5 -54.5t125.5 -19.5q102 0 159.5 41.5t57.5 119.5q0 36 -13 63t-38 48t-61.5 37t-81.5 30l-60 18q-110 33 -162.5 90.5t-52.5 137.5q0 51 21 89t55.5 62.5t78.5 37t77 13.5v115h71v-116q55 -4 114.5 -22.5
t119.5 -55.5l-38 -63q-57 36 -116.5 54.5t-126.5 18.5q-37 0 -70.5 -8t-57 -23.5t-37.5 -39.5t-14 -56q0 -63 40.5 -100.5t122.5 -63.5l66 -20q43 -13 85.5 -32t76.5 -47.5t55.5 -68t21.5 -92.5q0 -107 -67 -167t-175 -67v-113h-71v110z" />
    <glyph glyph-name="percent" unicode="%" horiz-adv-x="982" 
d="M157 -13l585 837h83l-585 -837h-83zM736 -23q-50 0 -87 19t-60.5 53t-35 80t-11.5 102t11.5 101.5t35 79.5t60.5 52.5t87 18.5q49 0 86 -18.5t61 -52t35.5 -79.5t11.5 -102t-11.5 -102.5t-35.5 -80t-61 -52.5t-86 -19zM736 45q56 0 89 44.5t33 141.5t-33 141t-89 44
t-89 -44t-33 -141t33.5 -141.5t88.5 -44.5zM246 329q-50 0 -87 19t-60.5 53t-35 80t-11.5 102t11.5 101.5t35 79.5t60.5 52.5t87 18.5q49 0 86 -18.5t61 -52t35.5 -79.5t11.5 -102t-11.5 -102.5t-35.5 -80t-61 -52.5t-86 -19zM246 397q56 0 89 44.5t33 141.5t-33 141t-89 44
t-89 -44t-33 -141t33.5 -141.5t88.5 -44.5z" />
    <glyph glyph-name="ampersand" unicode="&#x26;" horiz-adv-x="839" 
d="M313 -23q-61 0 -113 18.5t-89.5 51t-58 78.5t-20.5 101q0 97 63 158t162 90q-34 37 -65.5 86t-31.5 105q0 40 17 72t46 53.5t68.5 33t85.5 11.5q41 0 78.5 -10t67 -31t47 -55t17.5 -79q0 -83 -59.5 -136t-140.5 -79l218 -223q22 35 42 92t30 129h74q-13 -90 -37.5 -158
t-57.5 -116l179 -182h-99l-124 126q-47 -57 -124.5 -96.5t-174.5 -39.5zM315 47q82 0 145.5 33.5t102.5 81.5l-255 259q-94 -25 -147 -72t-53 -122q0 -42 16 -75.5t43 -56t65 -35.5t83 -13zM236 667q0 -23 9.5 -46t24 -45.5t33.5 -43.5l33 -35q37 11 72 27t58.5 35.5
t35.5 44t12 55.5q0 26 -10 45.5t-28 33t-43.5 20.5t-55.5 7t-56 -6t-44.5 -18t-29.5 -30.5t-11 -43.5z" />
    <glyph glyph-name="quotesingle" unicode="'" horiz-adv-x="211" 
d="M66 824h79l-15 -298h-48z" />
    <glyph glyph-name="parenleft" unicode="(" horiz-adv-x="274" 
d="M62 296q0 80 12 156t32.5 143t45 124t55.5 105h74q-37 -67 -62 -122.5t-43.5 -119.5t-30 -135.5t-11.5 -150.5t11.5 -150.5t30 -135.5t43.5 -120t62 -123h-74q-31 48 -55.5 105t-45 124t-32.5 143t-12 157z" />
    <glyph glyph-name="parenright" unicode=")" horiz-adv-x="274" 
d="M212 295q0 -81 -12 -156.5t-32.5 -143t-45.5 -124t-55 -104.5h-74q37 67 62 122.5t43.5 119.5t30 135.5t11.5 150.5t-11.5 150.5t-30 135.5t-43.5 120t-62 123h74q30 -48 55 -104.5t45.5 -124t32.5 -144t12 -156.5z" />
    <glyph glyph-name="asterisk" unicode="*" horiz-adv-x="413" 
d="M238 685l143 47l18 -62l-140 -46l86 -118l-52 -38l-87 118l-85 -118l-53 37l85 118l-139 49l18 62l141 -49v139h65v-139z" />
    <glyph glyph-name="plus" unicode="+" horiz-adv-x="615" 
d="M272 233h-240v69h240v241h71v-241h240v-69h-240v-246h-71v246z" />
    <glyph glyph-name="comma" unicode="," horiz-adv-x="247" 
d="M111 87h79l-98 -266h-60z" />
    <glyph glyph-name="hyphen" unicode="-" horiz-adv-x="368" 
d="M32 302h304v-69h-304v69z" />
    <glyph glyph-name="period" unicode="." horiz-adv-x="242" 
d="M121 -23q-22 0 -38 16t-16 38t16 38t38 16t38 -16t16 -38t-16 -38t-38 -16z" />
    <glyph glyph-name="slash" unicode="/" horiz-adv-x="527" 
d="M505 824h74l-554 -987h-77z" />
    <glyph glyph-name="zero" unicode="0" horiz-adv-x="659" 
d="M330 49q89 0 141.5 68t52.5 212t-53 214.5t-141 70.5q-90 0 -141.5 -70t-51.5 -215q0 -144 51.5 -212t141.5 -68zM330 -21q-68 0 -119.5 26t-84.5 72t-49 110.5t-16 141.5t16 141t49 111.5t84.5 74t119.5 26.5t118.5 -26.5t83.5 -74t49 -111.5t16 -141t-16 -141.5
t-49 -110.5t-83.5 -72t-118.5 -26z" />
    <glyph glyph-name="one" unicode="1" horiz-adv-x="347" 
d="M170 582l-147 -42v66l218 62v-681h-71v595z" />
    <glyph glyph-name="two" unicode="2" horiz-adv-x="570" 
d="M269 612q-53 0 -91 -15t-85 -53l-41 61q54 41 105 59t113 18q45 0 84.5 -12t69.5 -35t48 -58.5t18 -80.5q0 -56 -25.5 -110.5t-74 -111t-118.5 -116t-128 -102.5h365v-69h-482v64q98 72 170 132t120.5 113.5t73 101.5t24.5 93q0 32 -11.5 54t-31.5 37t-47 22.5t-56 7.5z
" />
    <glyph glyph-name="three" unicode="3" horiz-adv-x="550" 
d="M234 -21q-62 0 -115 18t-107 59l41 61q47 -38 87 -53t93 -15q37 0 69.5 8.5t56.5 25t37.5 40t13.5 55.5q0 36 -13 60.5t-37 40.5t-59 23.5t-80 7.5h-24v69h21q94 0 135 32t41 88q0 26 -11 46t-31.5 35t-49 23.5t-62.5 8.5q-52 0 -90 -15t-86 -53l-39 61q53 41 104 59
t113 18q47 0 88 -12t72 -35t49.5 -56.5t18.5 -74.5q0 -34 -11.5 -63t-30 -50.5t-34 -30.5t-29.5 -13q18 -3 36 -12.5t38.5 -32t33 -54t12.5 -70.5q0 -48 -20.5 -86t-55 -63t-79.5 -37.5t-96 -12.5z" />
    <glyph glyph-name="four" unicode="4" horiz-adv-x="638" 
d="M395 165h-361v58l366 440h66v-430h130v-68h-130v-178h-71v178zM395 233v322l-266 -322h266z" />
    <glyph glyph-name="five" unicode="5" horiz-adv-x="597" 
d="M275 -21q-62 0 -117 18t-110 59l41 61q46 -37 89.5 -52.5t95.5 -15.5q36 0 70 10t59.5 29.5t41 47.5t15.5 66q0 41 -13.5 71.5t-36.5 50t-56.5 29.5t-72.5 10q-40 0 -85.5 -10.5t-113.5 -39.5l44 350h381v-69h-323l-23 -180q53 18 125 18q50 0 95 -13t79.5 -41.5
t54.5 -72t20 -103.5q0 -54 -22 -96t-58.5 -70t-83 -42.5t-96.5 -14.5z" />
    <glyph glyph-name="six" unicode="6" horiz-adv-x="616" 
d="M307 -21q-52 0 -97.5 19t-79.5 51.5t-54 77.5t-20 98q0 48 17.5 90t58.5 100l179 248h87l-146 -203q9 5 24 8t39 3q51 0 95 -19t77.5 -52.5t53 -78t19.5 -96.5q0 -49 -19 -93t-53 -78.5t-80 -54.5t-101 -20zM308 49q38 0 70 14t56 38.5t37.5 57t13.5 68.5
q0 35 -13.5 67.5t-37 56t-56 37.5t-70.5 14t-70.5 -14t-56 -37.5t-37 -56t-13.5 -67.5q0 -36 13 -68.5t37 -57t56.5 -38.5t70.5 -14z" />
    <glyph glyph-name="seven" unicode="7" horiz-adv-x="531" 
d="M418 594h-391v69h476v-59l-345 -617h-84z" />
    <glyph glyph-name="eight" unicode="8" horiz-adv-x="623" 
d="M311 682q48 0 90 -12.5t73 -36t49 -57t18 -72.5q0 -60 -33.5 -104.5t-56.5 -51.5q24 -8 34 -14.5t30.5 -28.5t33.5 -53t13 -73q0 -48 -21 -86t-55.5 -63.5t-79.5 -38t-95 -12.5q-49 0 -94 12.5t-79.5 38t-55.5 63.5t-21 86q0 42 13 73t33 53t30 28t44 18q-22 7 -36 17.5
t-30 31.5t-25 47.5t-9 56.5q0 39 18 72.5t49.5 57t73 36t89.5 12.5zM311 318q-83 0 -129 -36t-46 -101q0 -32 13 -56t36 -41t55.5 -26t70.5 -9t71 9t56 26t36 41t13 56q0 65 -46.5 101t-129.5 36zM311 612q-34 0 -62.5 -8t-49 -23t-32 -35t-11.5 -47q0 -23 9.5 -44t28 -36.5
t48 -25.5t69.5 -10t70 10t48.5 25.5t28 36.5t9.5 44q0 27 -11.5 47t-32 35t-49.5 23t-63 8z" />
    <glyph glyph-name="nine" unicode="9" horiz-adv-x="616" 
d="M308 682q52 0 97.5 -19t80 -51.5t54.5 -78t20 -97.5q0 -48 -18.5 -89.5t-57.5 -99.5l-179 -260h-87l148 214q-12 -5 -27 -8.5t-39 -3.5q-51 0 -95 19t-77.5 52.5t-52.5 78.5t-19 97q0 49 19 93t53 78t80 54.5t100 20.5zM308 612q-38 0 -70.5 -14t-56.5 -38.5t-37 -57
t-13 -68.5q0 -35 13 -67.5t36.5 -56t56.5 -37.5t71 -14q37 0 70 14t56.5 37.5t37 56t13.5 67.5q0 36 -13 68.5t-37 57t-56.5 38.5t-70.5 14z" />
    <glyph glyph-name="colon" unicode=":" horiz-adv-x="242" 
d="M121 -23q-22 0 -38 16t-16 38t16 38t38 16t38 -16t16 -38t-16 -38t-38 -16zM121 446q-22 0 -38 16t-16 38t16 38t38 16t38 -16t16 -38t-16 -38t-38 -16z" />
    <glyph glyph-name="semicolon" unicode=";" horiz-adv-x="247" 
d="M111 87h79l-98 -266h-60zM145 446q-22 0 -38 16t-16 38t16 38t38 16t38 -16t16 -38t-16 -38t-38 -16z" />
    <glyph glyph-name="less" unicode="&#x3c;" horiz-adv-x="667" 
d="M635 556v-76l-506 -219l506 -216v-78l-603 265v59z" />
    <glyph glyph-name="equal" unicode="=" horiz-adv-x="595" 
d="M32 412h531v-69h-531v69zM32 192h531v-69h-531v69z" />
    <glyph glyph-name="greater" unicode="&#x3e;" horiz-adv-x="667" 
d="M635 291v-59l-603 -265v78l506 216l-506 219v76z" />
    <glyph glyph-name="question" unicode="?" horiz-adv-x="551" 
d="M216 -23q-25 0 -42 17t-17 42t17 42t42 17t42 -17t17 -42t-17 -42t-42 -17zM232 835q59 0 108.5 -19t85 -51t54.5 -76t19 -95q0 -60 -21.5 -105.5t-57 -77t-81.5 -50.5t-83 -23v-188h-74v254h19q40 0 80 13t71.5 37.5t51 60t19.5 82.5q0 37 -15 68t-40.5 53.5t-60 34.5
t-75.5 12q-51 0 -91.5 -13t-94.5 -44l3 80q52 27 92 37t91 10z" />
    <glyph glyph-name="at" unicode="@" horiz-adv-x="980" 
d="M731 166q-32 0 -56.5 11.5t-42 31.5t-23.5 36t-6 20q-10 -20 -61.5 -55t-121.5 -35q-35 0 -66.5 12t-54 37t-35.5 62t-13 87q0 56 18.5 107.5t51 90t77.5 62t99 23.5q34 0 60.5 -10.5t45 -27t24 -25.5t4.5 -6l7 47h69l-44 -281q-4 -25 -2 -47.5t10.5 -39t23 -25.5
t36.5 -9q24 0 46.5 14t40 42.5t27.5 71t10 96.5q0 78 -26 135.5t-71 95.5t-108.5 57.5t-138.5 19.5q-87 0 -158.5 -29.5t-122 -80.5t-78 -119.5t-27.5 -146.5q0 -77 24 -141.5t69 -111t109.5 -72.5t144.5 -26q56 0 115 11.5t122 36.5l26 -63q-68 -29 -135.5 -41.5
t-127.5 -12.5q-96 0 -173 31.5t-132 88t-85 133.5t-30 168q0 93 34 173t95.5 140.5t145.5 95t185 34.5q90 0 166 -24.5t132 -72.5t87 -117.5t31 -158.5q0 -70 -16 -124t-43 -91.5t-63 -57.5t-75 -20zM495 587q-36 0 -66.5 -16.5t-53.5 -45.5t-36.5 -68t-13.5 -83
q0 -70 29.5 -101t76.5 -31q38 0 69 17.5t53.5 48t35.5 70t13 82.5q0 127 -107 127z" />
    <glyph glyph-name="A" unicode="A" horiz-adv-x="762" 
d="M751 -13h-80l-106 264h-368l-106 -264h-80l336 837h68zM226 324h310l-155 384z" />
    <glyph glyph-name="B" unicode="B" horiz-adv-x="757" 
d="M654 615q0 -29 -7.5 -57.5t-24 -55t-43 -48t-23.5 -20.5q8 -2 43.5 -25t58 -54t32.5 -66t10 -69q0 -62 -23.5 -106.5t-63 -72.5t-91.5 -41t-111 -13h-294v837h248q75 0 129.5 -16t90.5 -44.5t52.5 -67t16.5 -81.5zM624 218q0 51 -18.5 83.5t-49.5 52t-73 27t-89 7.5h-203
v-330h217q111 0 163.5 44t52.5 116zM576 611q0 25 -12 50.5t-36 45.5t-63 33t-92 13h-182v-294h182q102 0 152.5 39.5t50.5 112.5z" />
    <glyph glyph-name="C" unicode="C" horiz-adv-x="785" 
d="M470 765q-70 0 -132.5 -24t-110 -70t-75.5 -112.5t-28 -152.5t28 -152.5t75.5 -112.5t110 -70t132.5 -24q69 0 128 16.5t116 50.5l33 -63q-64 -39 -132 -56.5t-145 -17.5q-98 0 -176.5 33.5t-133 91.5t-84 136.5t-29.5 167.5t29.5 167.5t84 136.5t133 91.5t176.5 33.5
q77 0 145 -17.5t132 -56.5l-33 -63q-57 34 -116 50.5t-128 16.5z" />
    <glyph glyph-name="D" unicode="D" horiz-adv-x="823" 
d="M305 58q96 0 169.5 24.5t123 70t75.5 109.5t26 144t-29 144t-81 109t-124.5 69.5t-159.5 24.5h-114v-695h114zM117 824h189q101 0 186.5 -26.5t149 -80t99 -131.5t35.5 -180t-35.5 -180.5t-99 -131.5t-149 -80t-186.5 -27h-189v837z" />
    <glyph glyph-name="E" unicode="E" horiz-adv-x="667" 
d="M117 824h488v-71h-414v-294h375v-73h-375v-328h419v-71h-493v837z" />
    <glyph glyph-name="F" unicode="F" horiz-adv-x="614" 
d="M117 -13v837h480v-71h-406v-294h364v-73h-364v-399h-74z" />
    <glyph glyph-name="G" unicode="G" horiz-adv-x="877" 
d="M470 -23q-98 0 -176.5 33.5t-133 91.5t-84 136.5t-29.5 167.5t29.5 167.5t84 136.5t133 91.5t176.5 33.5q77 0 145 -17.5t132 -56.5l-33 -63q-57 34 -116 50.5t-128 16.5q-70 0 -132.5 -24t-110 -70t-75.5 -112.5t-28 -152.5t28 -152.5t75.5 -112.5t110 -70t132.5 -24
q58 0 117 13.5t99 32.5v228h-242v73h316v-343q-60 -37 -135.5 -55.5t-154.5 -18.5z" />
    <glyph glyph-name="H" unicode="H" horiz-adv-x="868" 
d="M117 -13v837h74v-365h486v365h74v-837h-74v399h-486v-399h-74z" />
    <glyph glyph-name="I" unicode="I" horiz-adv-x="308" 
d="M117 -13v837h74v-837h-74z" />
    <glyph glyph-name="J" unicode="J" horiz-adv-x="405" 
d="M-5 83q34 -19 62.5 -27.5t63.5 -8.5q46 0 74.5 27.5t28.5 92.5v657h74v-649q0 -55 -14 -93t-38.5 -62t-56.5 -33.5t-68 -9.5q-44 0 -80 9.5t-78 29.5z" />
    <glyph glyph-name="K" unicode="K" horiz-adv-x="708" 
d="M117 -13v837h74v-386l381 386h100l-409 -418l448 -419h-106l-414 385v-385h-74z" />
    <glyph glyph-name="L" unicode="L" horiz-adv-x="623" 
d="M192 58h414v-71h-489v837h75v-766z" />
    <glyph glyph-name="M" unicode="M" horiz-adv-x="1050" 
d="M491 -13l-300 715v-715h-74v837h103l305 -735l305 735h103v-837h-74v715l-300 -715h-68z" />
    <glyph glyph-name="N" unicode="N" horiz-adv-x="863" 
d="M192 722v-735h-75v837h98l456 -735v735h75v-837h-98z" />
    <glyph glyph-name="O" unicode="O" horiz-adv-x="942" 
d="M47 406q0 93 32.5 171.5t89.5 136t134.5 89.5t167.5 32t167.5 -32t134.5 -89.5t89.5 -136t32.5 -171.5t-32.5 -171.5t-89.5 -136t-134.5 -89.5t-167.5 -32t-167.5 32t-134.5 89.5t-89.5 136t-32.5 171.5zM124 406q0 -83 28 -150t75.5 -113t110.5 -71t132.5 -25t132.5 25
t110.5 71.5t76 113t28.5 149.5t-28.5 149.5t-76 113t-110.5 71.5t-132.5 25t-132.5 -25t-110.5 -71t-75.5 -113t-28 -150z" />
    <glyph glyph-name="P" unicode="P" horiz-adv-x="695" 
d="M191 336v-349h-74v837h269q75 0 130.5 -19t91.5 -51.5t53 -76t17 -91.5q0 -49 -17 -94t-53 -80t-91.5 -55.5t-130.5 -20.5h-195zM191 753v-346h182q108 0 168 43t60 136q0 38 -12 68t-38.5 52t-70.5 34.5t-107 12.5h-182z" />
    <glyph glyph-name="Q" unicode="Q" horiz-adv-x="942" 
d="M47 406q0 93 32.5 171.5t89.5 136t134.5 89.5t167.5 32t167.5 -32t134.5 -89.5t89.5 -136t32.5 -171.5q0 -106 -42 -192.5t-102 -135.5l146 -152l-51 -52l-155 161q-41 -25 -98 -41.5t-122 -16.5q-90 0 -167.5 32t-134.5 89.5t-89.5 136t-32.5 171.5zM124 406
q0 -83 28 -150t75.5 -113t110.5 -71t133 -25q99 0 168 42l-100 104l55 48l106 -110q49 38 83.5 109.5t34.5 165.5q0 83 -28.5 149.5t-76 113t-110.5 71.5t-132.5 25t-132.5 -25t-110.5 -71t-75.5 -113t-28 -150z" />
    <glyph glyph-name="R" unicode="R" horiz-adv-x="749" 
d="M191 351v-364h-74v837h269q78 0 133.5 -18.5t90.5 -50t51 -74.5t16 -90q0 -35 -8.5 -71t-32.5 -68t-65 -56.5t-87 -32.5l239 -376h-87l-233 364h-15h-25h-172zM191 753v-331h181q55 0 98 9t71.5 29.5t43.5 52.5t15 79q0 37 -12 67t-38.5 50.5t-70.5 32t-107 11.5h-181z
" />
    <glyph glyph-name="S" unicode="S" horiz-adv-x="693" 
d="M91 121q57 -35 116.5 -54.5t125.5 -19.5q102 0 159.5 41.5t57.5 119.5q0 36 -13 63t-38 48t-61.5 37t-81.5 30l-60 18q-110 33 -162.5 90.5t-52.5 137.5q0 53 22.5 91.5t59.5 63.5t82.5 36.5t93.5 11.5q77 0 145.5 -20t133.5 -60l-38 -63q-57 36 -116.5 54.5t-126.5 18.5
q-37 0 -70.5 -8t-57 -23.5t-37.5 -39.5t-14 -56q0 -63 40.5 -100.5t122.5 -63.5l66 -20q43 -13 85.5 -32t76.5 -47.5t55.5 -68t21.5 -92.5q0 -115 -77 -176t-216 -61q-75 0 -145.5 20t-135.5 60z" />
    <glyph glyph-name="T" unicode="T" horiz-adv-x="702" 
d="M314 753h-297v71h668v-71h-297v-766h-74v766z" />
    <glyph glyph-name="U" unicode="U" horiz-adv-x="899" 
d="M450 -23q-97 0 -162.5 27t-106 73.5t-57.5 107.5t-17 128v511h73v-500q0 -139 64 -208t206 -69q141 0 205 68.5t64 208.5v500h73v-511q0 -67 -17 -128t-57 -107.5t-106 -73.5t-162 -27z" />
    <glyph glyph-name="V" unicode="V" horiz-adv-x="762" 
d="M21 824h80l280 -720l280 720h80l-326 -837h-68z" />
    <glyph glyph-name="W" unicode="W" horiz-adv-x="1046" 
d="M747 146l202 678h80l-253 -837h-62l-191 705l-191 -705h-62l-253 837h80l202 -678l183 678h82z" />
    <glyph glyph-name="X" unicode="X" horiz-adv-x="759" 
d="M422 423l323 -436h-91l-277 374l-273 -374h-90l318 435l-297 402h91l251 -341l249 341h90z" />
    <glyph glyph-name="Y" unicode="Y" horiz-adv-x="718" 
d="M616 824h85l-305 -497v-340h-74v340l-305 497h85l257 -416z" />
    <glyph glyph-name="Z" unicode="Z" horiz-adv-x="713" 
d="M87 824h567v-64l-520 -702h532v-71h-629v63l521 703h-471v71z" />
    <glyph glyph-name="bracketleft" unicode="[" horiz-adv-x="293" 
d="M97 824h189v-69h-118v-919h118v-69h-189v1057z" />
    <glyph glyph-name="backslash" unicode="\" horiz-adv-x="527" 
d="M502 -163l-554 987h74l557 -987h-77z" />
    <glyph glyph-name="bracketright" unicode="]" horiz-adv-x="293" 
d="M196 -233h-189v69h118v919h-118v69h189v-1057z" />
    <glyph glyph-name="asciicircum" unicode="^" horiz-adv-x="537" 
d="M549 358h-80l-201 372l-201 -372h-79l249 466h63z" />
    <glyph glyph-name="underscore" unicode="_" horiz-adv-x="590" 
d="M32 13h526v-69h-526v69z" />
    <glyph glyph-name="grave" unicode="`" horiz-adv-x="212" 
d="M-22 824h104l149 -170h-78z" />
    <glyph glyph-name="a" unicode="a" horiz-adv-x="602" 
d="M300 -23q-48 0 -92.5 9t-79 29t-56 54t-21.5 83q0 99 77 142t204 43q24 0 56.5 -3t55.5 -6v6q0 81 -38 115.5t-117 34.5q-22 0 -45.5 -4t-47 -10t-44.5 -15t-59 -30l3 80q53 27 104 38t94 11q111 0 166 -50.5t55 -160.5v-325q-51 -21 -105 -31t-110 -10zM444 256
q-14 3 -51.5 7t-70.5 4q-38 0 -73.5 -5t-63 -17t-43 -33.5t-15.5 -57.5q0 -32 13 -52t35 -32.5t53.5 -17.5t66.5 -5q41 0 82 7t67 17v185z" />
    <glyph glyph-name="b" unicode="b" horiz-adv-x="631" 
d="M168 61q25 -5 55.5 -9.5t57.5 -4.5q124 0 183 57.5t59 158.5q0 51 -14.5 91.5t-44.5 69.5t-75.5 44.5t-107.5 15.5q-22 0 -52 -3t-61 -11v-409zM168 543q65 11 111 11q80 0 140.5 -23t100.5 -63t59.5 -93t19.5 -112t-19.5 -111.5t-59.5 -91t-100.5 -61t-140.5 -22.5
q-38 0 -85.5 7t-96.5 21v819h71v-281z" />
    <glyph glyph-name="c" unicode="c" horiz-adv-x="532" 
d="M32 265q0 63 22 115.5t60 91.5t88.5 60.5t109.5 21.5q61 0 107 -12.5t95 -39.5l-33 -65q-43 26 -80.5 36.5t-88.5 10.5q-45 0 -82.5 -17t-64.5 -46t-42 -69t-15 -87t15 -87t42 -69t64.5 -45.5t82.5 -16.5q51 0 88.5 10.5t80.5 36.5l33 -65q-49 -27 -95 -39.5t-107 -12.5
q-59 0 -109.5 21.5t-88.5 60t-60 91t-22 115.5z" />
    <glyph glyph-name="d" unicode="d" horiz-adv-x="631" 
d="M108 263q0 -101 59 -158.5t183 -57.5q27 0 57.5 4.5t55.5 9.5v409q-31 8 -61 11t-52 3q-63 0 -108 -15.5t-75 -44.5t-44.5 -69.5t-14.5 -91.5zM463 824h71v-819q-49 -14 -96.5 -21t-85.5 -7q-80 0 -140.5 22.5t-100.5 61t-59.5 91t-19.5 111.5t19.5 112t59.5 93t100.5 63
t140.5 23q46 0 111 -11v281z" />
    <glyph glyph-name="e" unicode="e" horiz-adv-x="614" 
d="M314 47q63 0 108.5 14t90.5 41l34 -65q-52 -30 -104.5 -45t-128.5 -15q-61 0 -112 22t-89 60.5t-59.5 91t-21.5 114.5q0 64 22 116.5t60.5 91t89.5 60t110 21.5q60 0 109 -20.5t84.5 -59t55.5 -93t21 -134.5h-476q1 -33 16 -72.5t42.5 -67.5t65 -44t82.5 -16zM314 484
q-44 0 -79.5 -14t-60.5 -38.5t-41 -58t-20 -57.5h390q-3 28 -18.5 61.5t-40 57.5t-57.5 36.5t-73 12.5z" />
    <glyph glyph-name="f" unicode="f" horiz-adv-x="430" 
d="M17 543h118v86q0 105 54.5 150t148.5 45h105v-69h-112q-36 0 -60 -7t-38 -22.5t-20.5 -43t-6.5 -71.5v-68h230v-69h-230v-487h-71v487h-118v69z" />
    <glyph glyph-name="g" unicode="g" horiz-adv-x="631" 
d="M463 470q-25 5 -55.5 9.5t-57.5 4.5q-124 0 -183 -57.5t-59 -158.5q0 -51 14.5 -91.5t44.5 -69.5t75 -44.5t108 -15.5q22 0 52 3t61 11v409zM32 268q0 59 19.5 111.5t59.5 91t100.5 61t140.5 22.5q38 0 85.5 -7t96.5 -21v-554q0 -110 -65 -160.5t-174 -50.5
q-23 0 -47.5 2.5t-49 7.5t-48 12.5t-48.5 19.5l-13 88q41 -22 62.5 -31t45.5 -15t47.5 -10t45.5 -4q80 0 126.5 35t46.5 115v7q-65 -11 -111 -11q-80 0 -140.5 23t-100.5 63t-59.5 93t-19.5 112z" />
    <glyph glyph-name="h" unicode="h" horiz-adv-x="647" 
d="M168 540q30 5 74.5 9.5t83.5 4.5q51 0 94.5 -10t75 -37t48 -72.5t16.5 -114.5v-333h-71v303q0 61 -11.5 98.5t-32 58t-51.5 29t-72 8.5q-72 0 -154 -16v-481h-71v837h71v-284z" />
    <glyph glyph-name="i" unicode="i" horiz-adv-x="265" 
d="M97 543h71v-556h-71v556zM133 774q22 0 38 -16t16 -38t-16 -38t-38 -16t-38 16t-16 38t16 38t38 16z" />
    <glyph glyph-name="j" unicode="j" horiz-adv-x="269" 
d="M26 -240q-12 0 -23.5 1t-31.5 5l-15 72q27 -7 42.5 -9t22.5 -2q28 0 43.5 7t23.5 23t11 44.5t3 69.5v572h71v-572q0 -47 -6 -85t-22.5 -66.5t-45.5 -44t-73 -15.5zM134 774q22 0 38 -16t16 -38t-16 -38t-38 -16t-38 16t-16 38t16 38t38 16z" />
    <glyph glyph-name="k" unicode="k" horiz-adv-x="535" 
d="M97 -13v837h71v-529l265 248h102l-298 -275l323 -281h-107l-285 248v-248h-71z" />
    <glyph glyph-name="l" unicode="l" horiz-adv-x="265" 
d="M97 -13v837h71v-837h-71z" />
    <glyph glyph-name="m" unicode="m" horiz-adv-x="965" 
d="M807 292q0 61 -10 98.5t-28.5 57.5t-48.5 28t-71 8q-16 0 -36 -2.5t-40.5 -7.5t-41.5 -12.5t-27 -10.5q7 -16 14.5 -50.5t7.5 -80.5v-333h-71v305q0 61 -10 98t-29.5 57.5t-49.5 28.5t-72 8q-36 0 -65.5 -5t-60.5 -12v-480h-71v538l114 21q44 8 88 8q52 0 93.5 -10
t65.5 -33q39 18 94 30.5t101 12.5q52 0 93.5 -10t71 -37.5t45 -72.5t15.5 -114v-333h-71v305z" />
    <glyph glyph-name="n" unicode="n" horiz-adv-x="647" 
d="M97 528q68 13 124 19.5t105 6.5q51 0 94.5 -10t75 -37t48 -72.5t16.5 -114.5v-333h-71v303q0 61 -11.5 98.5t-32 58t-51.5 29t-72 8.5q-72 0 -154 -16v-481h-71v541z" />
    <glyph glyph-name="o" unicode="o" horiz-adv-x="628" 
d="M314 -23q-60 0 -111.5 22.5t-89.5 62t-59.5 91.5t-21.5 112t21.5 112t59.5 91.5t89.5 62.5t111.5 23t111.5 -23t89.5 -62.5t59.5 -91.5t21.5 -112t-21.5 -112t-59.5 -91.5t-89.5 -62t-111.5 -22.5zM314 47q46 0 84 17.5t65 47t42 69t15 84.5t-15 85t-42 69.5t-65 47
t-84 17.5t-84 -17.5t-65 -47t-42 -69.5t-15 -85t15 -84.5t42 -69t65 -47t84 -17.5z" />
    <glyph glyph-name="p" unicode="p" horiz-adv-x="631" 
d="M168 61q31 -8 61 -11t52 -3q62 0 107.5 15.5t75.5 44.5t44.5 69.5t14.5 91.5q0 101 -59 158.5t-183 57.5q-27 0 -57.5 -4.5t-55.5 -9.5v-409zM168 -233h-71v759q49 14 96.5 21t85.5 7q80 0 140.5 -22.5t100.5 -61t59.5 -91t19.5 -111.5t-19.5 -112t-59.5 -93t-100.5 -63
t-140.5 -23q-46 0 -111 11v-221z" />
    <glyph glyph-name="q" unicode="q" horiz-adv-x="631" 
d="M108 268q0 -51 14.5 -91.5t44.5 -69.5t75 -44.5t108 -15.5q22 0 52 3t61 11v409q-25 5 -55.5 9.5t-57.5 4.5q-124 0 -183 -57.5t-59 -158.5zM463 -12q-65 -11 -111 -11q-80 0 -140.5 23t-100.5 63t-59.5 93t-19.5 112t19.5 111.5t59.5 91t100.5 61t140.5 22.5
q38 0 85.5 -7t96.5 -21v-759h-71v221z" />
    <glyph glyph-name="r" unicode="r" horiz-adv-x="384" 
d="M377 474h-92q-31 0 -67 -5.5t-50 -10.5v-471h-71v528q42 11 87 19.5t91 8.5h102v-69z" />
    <glyph glyph-name="s" unicode="s" horiz-adv-x="571" 
d="M268 47q33 0 62.5 4.5t51 14t33.5 26.5t12 44q0 38 -30 61t-100 38l-42 9q-51 12 -87 26.5t-59 34.5t-33 46t-10 58t16 59t43.5 46t65 29.5t81.5 10.5q118 0 216 -53l-32 -65q-49 27 -89 37.5t-95 10.5q-64 0 -97 -20.5t-33 -55.5q0 -37 28 -56t101 -34l37 -8
q53 -12 90 -27.5t61 -36.5t34 -49t10 -61q0 -39 -17 -69t-48.5 -50t-74.5 -30t-95 -10q-59 0 -110.5 13t-105.5 43l34 68q48 -29 94.5 -41.5t87.5 -12.5z" />
    <glyph glyph-name="t" unicode="t" horiz-adv-x="490" 
d="M17 543h118v201h71v-201h230v-69h-230v-271q0 -44 6.5 -72t20.5 -44t38 -23.5t60 -7.5h112v-69h-105q-44 0 -80.5 9.5t-64.5 31.5t-43 58t-15 89v299h-118v69z" />
    <glyph glyph-name="u" unicode="u" horiz-adv-x="632" 
d="M464 543h71v-530q-67 -19 -119.5 -27.5t-104.5 -8.5t-93.5 10t-71 37t-44.5 72.5t-15 114.5v332h71v-302q0 -61 10 -99t28.5 -58t48 -28.5t70.5 -8.5q34 0 72.5 5t76.5 16v475z" />
    <glyph glyph-name="v" unicode="v" horiz-adv-x="558" 
d="M246 -13l-236 556h81l188 -451l188 451h81l-236 -556h-66z" />
    <glyph glyph-name="w" unicode="w" horiz-adv-x="864" 
d="M592 -13l-160 446l-160 -446h-66l-184 556h80l138 -444l157 444h70l157 -444l138 444h80l-184 -556h-66z" />
    <glyph glyph-name="x" unicode="x" horiz-adv-x="563" 
d="M326 272l224 -285h-86l-182 231l-182 -231h-87l225 286l-212 270h86l170 -216l170 216h87z" />
    <glyph glyph-name="y" unicode="y" horiz-adv-x="632" 
d="M464 -5q-29 -7 -70.5 -12.5t-82.5 -5.5q-52 0 -93.5 10t-71 37t-44.5 72.5t-15 114.5v332h71v-302q0 -61 10 -99t28.5 -58t48 -28.5t70.5 -8.5q34 0 72.5 5t76.5 16v475h71v-571q0 -110 -65 -160.5t-174 -50.5q-23 0 -47.5 2.5t-49 7.5t-48 12.5t-48.5 19.5l-13 88
q41 -22 62.5 -31t45.5 -15t47.5 -10t45.5 -4q80 0 126.5 35t46.5 115v14z" />
    <glyph glyph-name="z" unicode="z" horiz-adv-x="573" 
d="M70 543h436v-61l-358 -426h363v-69h-459v61l357 426h-339v69z" />
    <glyph glyph-name="braceleft" unicode="{" horiz-adv-x="314" 
d="M262 -233q-43 0 -71.5 7.5t-45.5 26.5t-23 47.5t-6 68.5v222q0 25 -3 47.5t-9.5 38.5t-20 25t-46.5 12v68q33 3 46.5 12t20 25t9.5 38.5t3 47.5v221q0 40 6 68.5t23 47.5t45.5 26.5t71.5 7.5h35v-69h-24q-32 0 -49 -3.5t-24.5 -12t-10 -25.5t-2.5 -47v-215
q0 -40 -5 -68.5t-16 -49t-27.5 -32t-34.5 -16.5v20q18 -5 34.5 -16.5t27.5 -32t16 -49t5 -68.5v-216q0 -30 2.5 -47t10 -25.5t24.5 -12t49 -3.5h24v-69h-35z" />
    <glyph glyph-name="bar" unicode="|" horiz-adv-x="265" 
d="M97 824h71v-1057h-71v1057z" />
    <glyph glyph-name="braceright" unicode="}" horiz-adv-x="314" 
d="M52 -233h-35v69h24q32 0 49 3.5t24.5 12t10 25.5t2.5 47v216q0 40 5 68.5t16 49t27 32t35 16.5v-20q-19 5 -35 16.5t-27 32t-16 49t-5 68.5v215q0 30 -2.5 47t-10 25.5t-24.5 12t-49 3.5h-24v69h35q43 0 71.5 -7.5t45.5 -26.5t23 -47.5t6 -68.5v-221q0 -25 3 -47.5
t9.5 -38.5t19.5 -25t47 -12v-68q-34 -3 -47 -12t-19.5 -25t-9.5 -38.5t-3 -47.5v-222q0 -40 -6 -68.5t-23 -47.5t-45.5 -26.5t-71.5 -7.5z" />
    <glyph glyph-name="asciitilde" unicode="~" horiz-adv-x="635" 
d="M450 243q33 0 54.5 18t29.5 69h71q-11 -86 -52 -120.5t-103 -34.5q-38 0 -72.5 14t-67.5 30.5t-64.5 29.5t-61.5 13q-33 0 -54 -18t-29 -69h-71q11 85 51.5 120t102.5 35q41 0 78 -14t69.5 -30.5t62 -29.5t56.5 -13z" />
    <glyph glyph-name="exclamdown" unicode="&#xa1;" horiz-adv-x="264" 
d="M132 609q22 0 38 -16t16 -38t-16 -38t-38 -16t-38 16t-16 38t16 38t38 16zM168 -232h-71v621h71v-621z" />
    <glyph glyph-name="cent" unicode="&#xa2;" horiz-adv-x="532" 
d="M278 -21q-42 3 -89.5 25.5t-82 60.5t-54.5 89.5t-20 110.5t20 110t54.5 89.5t82 61.5t89.5 26v92h71v-92q39 -1 79.5 -13t85.5 -37l-33 -65q-39 23 -71 33.5t-61 11.5v-434q29 1 61 12t71 34l33 -65q-45 -25 -85.5 -37t-79.5 -13v-92h-71v92zM108 265q0 -45 13.5 -83
t37 -67t58 -46.5t61.5 -20.5v434q-27 -3 -61.5 -20.5t-58 -46.5t-37 -67.5t-13.5 -82.5z" />
    <glyph glyph-name="sterling" unicode="&#xa3;" horiz-adv-x="721" 
d="M402 835q77 0 144.5 -19t131.5 -58l-33 -63q-57 34 -116 52t-128 18q-34 0 -71 -6t-66.5 -21.5t-48.5 -41.5t-19 -68q0 -24 6.5 -46t17.5 -44t23 -44l24 -38h259v-62h-225q6 -11 17 -42.5t11 -66.5q0 -38 -11 -73.5t-29.5 -66t-42.5 -55t-45 -37.5l-10 20q25 9 50 12.5
t49 3.5q32 0 61.5 -6.5t58 -14.5t58.5 -14.5t65 -6.5q58 0 129 27l26 -65q-40 -16 -77.5 -24t-76.5 -8q-34 0 -67 6.5t-64.5 14.5t-62.5 14.5t-63 6.5q-39 0 -82 -9t-95 -32l-27 57q35 18 65 39t56 51t43.5 68.5t17.5 85.5q0 34 -10.5 64t-22.5 51h-143v62h106l-14 22
q-14 23 -24.5 46.5t-17.5 48.5t-7 54q0 57 26 97t66 64.5t89.5 35.5t98.5 11z" />
    <glyph glyph-name="currency" unicode="&#xa4;" horiz-adv-x="620" 
d="M104 552l43 -43q34 24 73.5 39t89.5 15t89.5 -15t73.5 -39l43 43l54 -54l-41 -42q23 -35 36 -73t13 -83t-13 -83t-36 -73l41 -42l-54 -54l-43 43q-34 -24 -73.5 -39t-89.5 -15t-89.5 15t-73.5 39l-43 -43l-54 54l41 42q-23 35 -36 73t-13 83t13 83t36 73l-41 42zM310 489
q-41 -1 -77 -15.5t-62 -40t-41 -59.5t-14 -74q1 -38 16.5 -72t41.5 -60t61.5 -41.5t74.5 -15.5t74.5 15.5t61.5 41.5t41.5 60t16.5 72q1 40 -14 74t-41 59.5t-62.5 40t-76.5 15.5z" />
    <glyph glyph-name="yen" unicode="&#xa5;" horiz-adv-x="638" 
d="M53 362h208l-274 462h85l247 -416l247 416h85l-275 -462h208v-69h-228v-101h228v-69h-228v-136h-74v136h-229v69h229v101h-229v69z" />
    <glyph glyph-name="brokenbar" unicode="&#xa6;" horiz-adv-x="265" 
d="M97 824h71v-426h-71v426zM97 193h71v-426h-71v426z" />
    <glyph glyph-name="section" unicode="&#xa7;" horiz-adv-x="656" 
d="M102 682q0 39 19 68t49.5 47.5t69 28t81.5 9.5q61 0 107 -12.5t95 -39.5l-33 -65q-43 26 -80.5 36.5t-88.5 10.5q-66 0 -105 -22t-39 -60q0 -34 25 -61.5t85 -59.5l169 -90q37 -19 68 -40t54.5 -45.5t37 -54t13.5 -66.5q0 -36 -13 -66.5t-34 -55t-48.5 -43.5t-38.5 -24
q21 -17 41.5 -51.5t20.5 -80.5q0 -44 -19 -78t-51.5 -57.5t-75 -35t-90.5 -11.5q-61 0 -107 12.5t-95 39.5l33 65q43 -26 80.5 -36.5t88.5 -10.5q33 0 62.5 6.5t51 20t33.5 33.5t12 47q0 19 -5.5 36t-20 34.5t-41.5 37t-69 42.5l-140 75q-38 20 -70 41t-56 46.5t-37.5 55
t-13.5 67.5q0 34 13.5 63.5t36 53.5t51 42.5t37.5 21.5q-20 14 -41.5 47t-21.5 79zM378 153l34 -18l23 -14q49 23 83.5 57t34.5 81q0 48 -33 83t-104 73l-164 86q-7 3 -13 7t-7 4q-23 -8 -47 -22t-42.5 -31t-29 -37.5t-10.5 -45t7 -43.5t23 -36t41 -34t60 -34z" />
    <glyph glyph-name="dieresis" unicode="&#xa8;" horiz-adv-x="372" 
d="M51 774q22 0 38 -16t16 -38t-16 -38t-38 -16t-38 16t-16 38t16 38t38 16zM321 774q22 0 38 -16t16 -38t-16 -38t-38 -16t-38 16t-16 38t16 38t38 16z" />
    <glyph glyph-name="copyright" unicode="&#xa9;" horiz-adv-x="962" 
d="M52 403q0 96 33.5 175.5t92 137t136 89.5t167.5 32t167.5 -32t136 -89.5t92 -137t33.5 -175.5t-33.5 -175.5t-92 -135.5t-136 -87.5t-167.5 -31.5t-167.5 31.5t-136 87.5t-92 135.5t-33.5 175.5zM126 403q0 -80 27 -146.5t74.5 -114t113 -74t140.5 -26.5q76 0 141 26.5
t112.5 74t74.5 114t27 146.5q0 81 -27 148t-74.5 114.5t-112.5 74t-141 26.5q-75 0 -140.5 -26.5t-113 -74t-74.5 -114.5t-27 -148zM252 412q0 52 18 96t50 76.5t74 50.5t91 18q52 0 90.5 -10.5t81.5 -34.5l-31 -61q-38 23 -69 31.5t-72 8.5q-36 0 -65.5 -13.5t-51.5 -37
t-33.5 -55t-11.5 -69.5t11.5 -69.5t33.5 -55t51.5 -37t65.5 -13.5q41 0 72 9t69 33l31 -63q-43 -24 -81.5 -34t-90.5 -10q-49 0 -91 18t-74 50t-50 75.5t-18 96.5z" />
    <glyph glyph-name="ordfeminine" unicode="&#xaa;" horiz-adv-x="466" 
d="M323 614q-16 5 -44.5 9t-44.5 4q-24 0 -45.5 -3.5t-37 -11t-24 -20t-8.5 -31.5t7.5 -31t21.5 -20t34.5 -11.5t45.5 -3.5q20 0 47.5 4.5t47.5 10.5v104zM226 433q-34 0 -66 6.5t-57 21t-40.5 39t-15.5 60.5q0 66 50 98t126 32q29 0 58 -4.5t42 -7.5v17q0 24 -8 38.5
t-22.5 23t-36 12t-47.5 3.5t-52.5 -7.5t-72.5 -24.5l7 70q32 14 65 20t66 6q35 0 66 -7.5t54.5 -24.5t37.5 -45.5t14 -67.5v-224q-44 -16 -86.5 -25t-81.5 -9z" />
    <glyph glyph-name="guillemotleft" unicode="&#xab;" horiz-adv-x="516" 
d="M24 275l187 268h82l-184 -267l184 -269h-81zM234 275l187 268h80l-182 -267l181 -269h-78z" />
    <glyph glyph-name="logicalnot" unicode="&#xac;" horiz-adv-x="685" 
d="M517 373h-485v69h556v-333h-71v264z" />
    <glyph glyph-name="registered" unicode="&#xae;" horiz-adv-x="962" 
d="M52 403q0 96 33.5 175.5t92 137t136 89.5t167.5 32t167.5 -32t136 -89.5t92 -137t33.5 -175.5t-33.5 -175.5t-92 -135.5t-136 -87.5t-167.5 -31.5t-167.5 31.5t-136 87.5t-92 135.5t-33.5 175.5zM126 403q0 -80 27 -146.5t74.5 -114t113 -74t140.5 -26.5q76 0 141 26.5
t112.5 74t74.5 114t27 146.5q0 81 -27 148t-74.5 114.5t-112.5 74t-141 26.5q-75 0 -140.5 -26.5t-113 -74t-74.5 -114.5t-27 -148zM522 369h-8q-9 -1 -18 -1h-112v-188h-70v470h163q40 0 75.5 -5t63.5 -20.5t45 -43.5t17 -71q0 -46 -25.5 -80t-59.5 -45l103 -205h-80z
M604 509q0 20 -8 33.5t-23 22.5t-36.5 12.5t-48.5 3.5h-104v-145h110q61 0 85.5 18.5t24.5 54.5z" />
    <glyph glyph-name="macron" unicode="&#xaf;" horiz-adv-x="317" 
d="M-3 699v66h323v-66h-323z" />
    <glyph glyph-name="degree" unicode="&#xb0;" horiz-adv-x="409" 
d="M32 661q0 37 13.5 68t36.5 55t54.5 37.5t67.5 13.5q37 0 68.5 -13.5t55 -37.5t36.5 -55t13 -68t-13 -68.5t-36.5 -55t-55 -37t-68.5 -13.5q-36 0 -67 13.5t-54.5 37t-37 55t-13.5 68.5zM105 661q0 -48 27 -78t72 -30t72.5 30t27.5 78t-27.5 78t-72.5 30t-72 -30t-27 -78z
" />
    <glyph glyph-name="plusminus" unicode="&#xb1;" horiz-adv-x="615" 
d="M272 275h-240v69h240v199h71v-199h240v-69h-240v-205h-71v205zM32 56h551v-69h-551v69z" />
    <glyph glyph-name="uni00B2" unicode="&#xb2;" horiz-adv-x="326" 
d="M165 765q-26 0 -44 -7t-47 -30l-26 37q33 25 59 34t58 9q46 0 80 -24.5t34 -73.5q0 -58 -51.5 -113.5t-112.5 -99.5h174v-43h-252v38q100 75 148 123.5t48 93.5q0 29 -20 42.5t-48 13.5z" />
    <glyph glyph-name="uni00B3" unicode="&#xb3;" horiz-adv-x="318" 
d="M151 447q-32 0 -59 9t-60 34l26 37q28 -23 47.5 -30t45.5 -7q35 0 59.5 15.5t24.5 44.5q0 34 -23.5 48t-66.5 14h-18v43h16q46 0 65 15t19 41q0 22 -20 36.5t-52 14.5q-26 0 -44 -7t-47 -30l-26 37q33 25 59 34t58 9q48 0 83 -24t35 -69q0 -37 -19.5 -56.5t-22.5 -20.5
q8 -1 29 -20.5t21 -63.5q0 -26 -11 -46t-29 -33t-41 -19t-49 -6z" />
    <glyph glyph-name="acute" unicode="&#xb4;" horiz-adv-x="212" 
d="M59 654h-78l149 170h104z" />
    <glyph glyph-name="mu" unicode="&#xb5;" horiz-adv-x="680" 
d="M95 -224q7 44 9 83t2 98v586h71v-256q0 -55 11 -100t32 -75.5t51.5 -47.5t72.5 -17t72.5 17t52 47.5t32.5 75.5t11 100v256h71v-556h-71v83q0 -2 -8.5 -15.5t-32 -34t-55.5 -32t-72 -11.5t-72 11.5t-55.5 31.5t-33.5 36.5t-7 6.5v-96q0 -63 -2.5 -105.5t-8.5 -85.5h-70z
" />
    <glyph glyph-name="paragraph" unicode="&#xb6;" horiz-adv-x="585" 
d="M17 606q0 50 18.5 90.5t53 69t82.5 43.5t107 15h210v-920h-71v853h-119v-853h-71v490q-31 1 -71 16t-71 41.5t-49.5 65.5t-18.5 89z" />
    <glyph glyph-name="periodcentered" unicode="&#xb7;" horiz-adv-x="242" 
d="M121 215q-22 0 -38 16t-16 38t16 38t38 16t38 -16t16 -38t-16 -38t-38 -16z" />
    <glyph glyph-name="cedilla" unicode="&#xb8;" horiz-adv-x="207" 
d="M13 -154q25 -10 41 -13.5t30 -3.5q12 0 23.5 2t19 6.5t12 10.5t4.5 16q0 16 -13 24t-32 8q-24 0 -52 -14l-28 30l62 101h64l-38 -65q25 5 9 5q41 0 68 -22.5t27 -63.5q0 -27 -11 -45t-29 -30t-39.5 -17t-42.5 -5q-42 0 -94 18z" />
    <glyph glyph-name="uni00B9" unicode="&#xb9;" horiz-adv-x="196" 
d="M115 749l-78 -24v43l122 38v-356h-44v299z" />
    <glyph glyph-name="ordmasculine" unicode="&#xba;" horiz-adv-x="457" 
d="M236 431q-44 0 -81.5 15.5t-65.5 42.5t-44 64t-16 80q0 42 16 79t44 64t65.5 43t81.5 16t81.5 -16t65.5 -43t44 -64t16 -79q0 -43 -16 -80t-44 -64t-65.5 -42.5t-81.5 -15.5zM236 496q32 0 57 10.5t42.5 28.5t26.5 43t9 55q0 28 -9 53t-26.5 43.5t-42.5 29.5t-57 11
t-56.5 -11t-42.5 -29.5t-27 -43.5t-9 -53q0 -30 9 -55t26.5 -43t42.5 -28.5t57 -10.5z" />
    <glyph glyph-name="guillemotright" unicode="&#xbb;" horiz-adv-x="516" 
d="M304 7h-81l184 269l-184 267h82l187 -268zM94 7h-78l181 269l-182 267h80l187 -268z" />
    <glyph glyph-name="onequarter" unicode="&#xbc;" horiz-adv-x="930" 
d="M717 69h-259v21l294 391h25v-352h66v-60h-66v-82h-60v82zM163 707h-83l27 60h116v-474h-60v414zM717 129v231h19l-190 -252v21h171zM184 -4l460 794l55 -31l-460 -794z" />
    <glyph glyph-name="onehalf" unicode="&#xbd;" horiz-adv-x="930" 
d="M699 194l29 31q15 16 27.5 33t20 35t7.5 35q0 38 -28.5 60.5t-71.5 22.5q-46 0 -73 -23t-27 -76h-61q2 39 8.5 62.5t26.5 44.5q23 25 57.5 38.5t68.5 13.5q32 0 61.5 -11t51.5 -30.5t34.5 -46t12.5 -57.5q0 -25 -8.5 -48t-22.5 -43.5t-30 -38.5t-31 -33l-114 -116h204
v-60h-346zM163 707h-83l27 60h116v-474h-60v414zM140 -4l460 794l55 -31l-460 -794z" />
    <glyph glyph-name="threequarters" unicode="&#xbe;" horiz-adv-x="1010" 
d="M236 287q-29 0 -56 9t-47.5 26.5t-33 41.5t-12.5 66h58q6 -45 28 -64t62 -19q21 0 39 6.5t31 17.5t20.5 26.5t7.5 33.5q0 39 -27 60t-82 21v60q52 0 77 20.5t25 56.5q0 31 -23.5 49.5t-58.5 18.5q-37 0 -57 -16.5t-23 -61.5h-60q7 70 43 104t98 34q28 0 54 -10t45.5 -27
t30.5 -41t11 -51q0 -39 -22 -70.5t-28 -33.5q8 -3 32.5 -37t24.5 -74q0 -31 -12 -58t-33.5 -46.5t-50 -30.5t-61.5 -11zM797 69h-259v21l294 391h25v-352h66v-60h-66v-82h-60v82zM797 129v231h19l-190 -252v21h171zM277 -4l460 794l55 -31l-460 -794z" />
    <glyph glyph-name="questiondown" unicode="&#xbf;" horiz-adv-x="551" 
d="M330 619q25 0 42 -17t17 -42t-17 -42t-42 -17t-42 17t-17 42t17 42t42 17zM205.5 -220q-49.5 19 -85 51t-54.5 76t-19 95q0 60 21.5 105.5t57 77t81.5 50.5t83 23v188h74v-254h-19q-40 0 -80 -13t-71.5 -37.5t-51 -60t-19.5 -82.5q0 -37 15 -68t40.5 -53.5t60 -34.5
t75.5 -12q51 0 91.5 13t94.5 44l-3 -80q-52 -27 -92 -37t-91 -10q-59 0 -108.5 19z" />
    <glyph glyph-name="Agrave" unicode="&#xc0;" horiz-adv-x="762" 
d="M751 -13h-80l-106 264h-368l-106 -264h-80l336 837h68zM226 324h310l-155 384zM177 1002h104l149 -170h-78z" />
    <glyph glyph-name="Aacute" unicode="&#xc1;" horiz-adv-x="762" 
d="M751 -13h-80l-106 264h-368l-106 -264h-80l336 837h68zM226 324h310l-155 384zM412 832h-78l149 170h104z" />
    <glyph glyph-name="Acircumflex" unicode="&#xc2;" horiz-adv-x="762" 
d="M751 -13h-80l-106 264h-368l-106 -264h-80l336 837h68zM226 324h310l-155 384zM591 832h-85l-124 101l-127 -101h-85l185 170h53z" />
    <glyph glyph-name="Atilde" unicode="&#xc3;" horiz-adv-x="762" 
d="M751 -13h-80l-106 264h-368l-106 -264h-80l336 837h68zM226 324h310l-155 384zM461 917q22 0 34 13.5t19 52.5h66q-11 -70 -40.5 -101t-75.5 -31q-28 0 -51 11.5t-43 24t-37 22t-35 9.5q-22 0 -33 -14t-18 -53h-67q11 71 42 101.5t75 30.5q29 0 52 -11.5t44 -23.5l38 -23
q14 -8 30 -8z" />
    <glyph glyph-name="Adieresis" unicode="&#xc4;" horiz-adv-x="762" 
d="M751 -13h-80l-106 264h-368l-106 -264h-80l336 837h68zM226 324h310l-155 384zM246 967q22 0 38 -16t16 -38t-16 -38t-38 -16t-38 16t-16 38t16 38t38 16zM516 967q22 0 38 -16t16 -38t-16 -38t-38 -16t-38 16t-16 38t16 38t38 16z" />
    <glyph glyph-name="Aring" unicode="&#xc5;" horiz-adv-x="762" 
d="M751 -13h-80l-106 264h-368l-106 -264h-80l336 837h68zM226 324h310l-155 384zM382 1044q46 0 78.5 -29.5t32.5 -76.5q0 -48 -32.5 -77t-78.5 -29q-47 0 -79.5 29t-32.5 77q0 47 32.5 76.5t79.5 29.5zM382 987q-20 0 -35 -13t-15 -36t15 -36t35 -13t34.5 13t14.5 36
t-14.5 36t-34.5 13z" />
    <glyph glyph-name="AE" unicode="&#xc6;" horiz-adv-x="1059" 
d="M997 824v-71h-414v-294h375v-73h-375v-328h419v-71h-493v264h-281l-169 -264h-83l539 837h482zM275 324h234v365z" />
    <glyph glyph-name="Ccedilla" unicode="&#xc7;" horiz-adv-x="785" 
d="M298 -154q25 -10 41 -13.5t30 -3.5q12 0 23.5 2t19 6.5t12 10.5t4.5 16q0 16 -13 24t-32 8q-24 0 -52 -14l-28 30l48 79q-57 12 -117 50.5t-101.5 93.5t-63.5 124.5t-22 146.5q0 89 29.5 167.5t84 136.5t133 91.5t176.5 33.5q77 0 145 -17.5t132 -56.5l-33 -63
q-57 34 -116 50.5t-128 16.5q-70 0 -132.5 -24t-110 -70t-75.5 -112.5t-28 -152.5t28 -152.5t75.5 -112.5t110 -70t132.5 -24q69 0 128 16.5t116 50.5l33 -63q-64 -39 -132 -56.5t-145 -17.5q-18 0 -35 1.5t-25 2.5l-19 -33q25 5 9 5q41 0 68 -22.5t27 -63.5q0 -27 -11 -45
t-29 -30t-39.5 -17t-42.5 -5q-42 0 -94 18z" />
    <glyph glyph-name="Egrave" unicode="&#xc8;" horiz-adv-x="667" 
d="M117 824h488v-71h-414v-294h375v-73h-375v-328h419v-71h-493v837zM167 1002h104l149 -170h-78z" />
    <glyph glyph-name="Eacute" unicode="&#xc9;" horiz-adv-x="667" 
d="M117 824h488v-71h-414v-294h375v-73h-375v-328h419v-71h-493v837zM381 832h-78l149 170h104z" />
    <glyph glyph-name="Ecircumflex" unicode="&#xca;" horiz-adv-x="667" 
d="M117 824h488v-71h-414v-294h375v-73h-375v-328h419v-71h-493v837zM571 832h-85l-124 101l-127 -101h-85l185 170h53z" />
    <glyph glyph-name="Edieresis" unicode="&#xcb;" horiz-adv-x="667" 
d="M117 824h488v-71h-414v-294h375v-73h-375v-328h419v-71h-493v837zM228 967q22 0 38 -16t16 -38t-16 -38t-38 -16t-38 16t-16 38t16 38t38 16zM498 967q22 0 38 -16t16 -38t-16 -38t-38 -16t-38 16t-16 38t16 38t38 16z" />
    <glyph glyph-name="Igrave" unicode="&#xcc;" horiz-adv-x="308" 
d="M117 -13v837h74v-837h-74zM-48 1002h104l149 -170h-78z" />
    <glyph glyph-name="Iacute" unicode="&#xcd;" horiz-adv-x="308" 
d="M117 -13v837h74v-837h-74zM182 832h-78l149 170h104z" />
    <glyph glyph-name="Icircumflex" unicode="&#xce;" horiz-adv-x="308" 
d="M117 -13v837h74v-837h-74zM365 832h-85l-124 101l-127 -101h-85l185 170h53z" />
    <glyph glyph-name="Idieresis" unicode="&#xcf;" horiz-adv-x="308" 
d="M117 -13v837h74v-837h-74zM18 967q22 0 38 -16t16 -38t-16 -38t-38 -16t-38 16t-16 38t16 38t38 16zM288 967q22 0 38 -16t16 -38t-16 -38t-38 -16t-38 16t-16 38t16 38t38 16z" />
    <glyph glyph-name="Eth" unicode="&#xd0;" horiz-adv-x="814" 
d="M108 390h-91v69h91v365h189q101 0 186.5 -26.5t149 -80t99 -131.5t35.5 -180t-35.5 -180.5t-99 -131.5t-149 -80t-186.5 -27h-189v403zM296 58q96 0 169.5 24.5t123 70t75.5 109.5t26 144t-29 144t-81 109t-124.5 69.5t-159.5 24.5h-114v-294h139v-69h-139v-332h114z" />
    <glyph glyph-name="Ntilde" unicode="&#xd1;" horiz-adv-x="863" 
d="M192 722v-735h-75v837h98l456 -735v735h75v-837h-98zM517 917q22 0 34 13.5t19 52.5h66q-11 -70 -40.5 -101t-75.5 -31q-28 0 -51 11.5t-43 24t-37 22t-35 9.5q-22 0 -33 -14t-18 -53h-67q11 71 42 101.5t75 30.5q29 0 52 -11.5t44 -23.5l38 -23q14 -8 30 -8z" />
    <glyph glyph-name="Ograve" unicode="&#xd2;" horiz-adv-x="942" 
d="M47 406q0 93 32.5 171.5t89.5 136t134.5 89.5t167.5 32t167.5 -32t134.5 -89.5t89.5 -136t32.5 -171.5t-32.5 -171.5t-89.5 -136t-134.5 -89.5t-167.5 -32t-167.5 32t-134.5 89.5t-89.5 136t-32.5 171.5zM124 406q0 -83 28 -150t75.5 -113t110.5 -71t132.5 -25t132.5 25
t110.5 71.5t76 113t28.5 149.5t-28.5 149.5t-76 113t-110.5 71.5t-132.5 25t-132.5 -25t-110.5 -71t-75.5 -113t-28 -150zM267 1002h104l149 -170h-78z" />
    <glyph glyph-name="Oacute" unicode="&#xd3;" horiz-adv-x="942" 
d="M47 406q0 93 32.5 171.5t89.5 136t134.5 89.5t167.5 32t167.5 -32t134.5 -89.5t89.5 -136t32.5 -171.5t-32.5 -171.5t-89.5 -136t-134.5 -89.5t-167.5 -32t-167.5 32t-134.5 89.5t-89.5 136t-32.5 171.5zM124 406q0 -83 28 -150t75.5 -113t110.5 -71t132.5 -25t132.5 25
t110.5 71.5t76 113t28.5 149.5t-28.5 149.5t-76 113t-110.5 71.5t-132.5 25t-132.5 -25t-110.5 -71t-75.5 -113t-28 -150zM494 832h-78l149 170h104z" />
    <glyph glyph-name="Ocircumflex" unicode="&#xd4;" horiz-adv-x="942" 
d="M47 406q0 93 32.5 171.5t89.5 136t134.5 89.5t167.5 32t167.5 -32t134.5 -89.5t89.5 -136t32.5 -171.5t-32.5 -171.5t-89.5 -136t-134.5 -89.5t-167.5 -32t-167.5 32t-134.5 89.5t-89.5 136t-32.5 171.5zM124 406q0 -83 28 -150t75.5 -113t110.5 -71t132.5 -25t132.5 25
t110.5 71.5t76 113t28.5 149.5t-28.5 149.5t-76 113t-110.5 71.5t-132.5 25t-132.5 -25t-110.5 -71t-75.5 -113t-28 -150zM681 832h-85l-124 101l-127 -101h-85l185 170h53z" />
    <glyph glyph-name="Otilde" unicode="&#xd5;" horiz-adv-x="942" 
d="M47 406q0 93 32.5 171.5t89.5 136t134.5 89.5t167.5 32t167.5 -32t134.5 -89.5t89.5 -136t32.5 -171.5t-32.5 -171.5t-89.5 -136t-134.5 -89.5t-167.5 -32t-167.5 32t-134.5 89.5t-89.5 136t-32.5 171.5zM124 406q0 -83 28 -150t75.5 -113t110.5 -71t132.5 -25t132.5 25
t110.5 71.5t76 113t28.5 149.5t-28.5 149.5t-76 113t-110.5 71.5t-132.5 25t-132.5 -25t-110.5 -71t-75.5 -113t-28 -150zM550 917q22 0 34 13.5t19 52.5h66q-11 -70 -40.5 -101t-75.5 -31q-28 0 -51 11.5t-43 24t-37 22t-35 9.5q-22 0 -33 -14t-18 -53h-67q11 71 42 101.5
t75 30.5q29 0 52 -11.5t43 -23.5l37 -23q16 -8 32 -8z" />
    <glyph glyph-name="Odieresis" unicode="&#xd6;" horiz-adv-x="942" 
d="M47 406q0 93 32.5 171.5t89.5 136t134.5 89.5t167.5 32t167.5 -32t134.5 -89.5t89.5 -136t32.5 -171.5t-32.5 -171.5t-89.5 -136t-134.5 -89.5t-167.5 -32t-167.5 32t-134.5 89.5t-89.5 136t-32.5 171.5zM124 406q0 -83 28 -150t75.5 -113t110.5 -71t132.5 -25t132.5 25
t110.5 71.5t76 113t28.5 149.5t-28.5 149.5t-76 113t-110.5 71.5t-132.5 25t-132.5 -25t-110.5 -71t-75.5 -113t-28 -150zM337 967q22 0 38 -16t16 -38t-16 -38t-38 -16t-38 16t-16 38t16 38t38 16zM607 967q22 0 38 -16t16 -38t-16 -38t-38 -16t-38 16t-16 38t16 38t38 16z
" />
    <glyph glyph-name="multiply" unicode="&#xd7;" horiz-adv-x="539" 
d="M0 50l220 220l-220 221l49 49l220 -221l221 221l49 -49l-221 -221l221 -220l-49 -49l-221 220l-220 -220z" />
    <glyph glyph-name="Oslash" unicode="&#xd8;" horiz-adv-x="942" 
d="M47 406q0 93 32.5 171.5t89.5 136t134.5 89.5t167.5 32q77 0 145 -24t113 -60l109 121l52 -47l-108 -121q49 -49 81 -126.5t32 -171.5q0 -93 -32.5 -171.5t-89.5 -136t-134.5 -89.5t-167.5 -32q-79 0 -147.5 24t-115.5 62l-102 -115l-52 47l103 116q-47 48 -78.5 125
t-31.5 170zM818 406q0 79 -25.5 143t-60.5 100l-474 -532q36 -30 92.5 -50t120.5 -20q69 0 132 25t110.5 71.5t76 113t28.5 149.5zM124 406q0 -79 24.5 -141.5t58.5 -98.5l474 531q-35 28 -91.5 48t-118.5 20q-70 0 -133 -25t-110.5 -71t-75.5 -113t-28 -150z" />
    <glyph glyph-name="Ugrave" unicode="&#xd9;" horiz-adv-x="899" 
d="M450 -23q-97 0 -162.5 27t-106 73.5t-57.5 107.5t-17 128v511h73v-500q0 -139 64 -208t206 -69q141 0 205 68.5t64 208.5v500h73v-511q0 -67 -17 -128t-57 -107.5t-106 -73.5t-162 -27zM258 1002h104l149 -170h-78z" />
    <glyph glyph-name="Uacute" unicode="&#xda;" horiz-adv-x="899" 
d="M450 -23q-97 0 -162.5 27t-106 73.5t-57.5 107.5t-17 128v511h73v-500q0 -139 64 -208t206 -69q141 0 205 68.5t64 208.5v500h73v-511q0 -67 -17 -128t-57 -107.5t-106 -73.5t-162 -27zM469 832h-78l149 170h104z" />
    <glyph glyph-name="Ucircumflex" unicode="&#xdb;" horiz-adv-x="899" 
d="M450 -23q-97 0 -162.5 27t-106 73.5t-57.5 107.5t-17 128v511h73v-500q0 -139 64 -208t206 -69q141 0 205 68.5t64 208.5v500h73v-511q0 -67 -17 -128t-57 -107.5t-106 -73.5t-162 -27zM664 832h-85l-124 101l-127 -101h-85l185 170h53z" />
    <glyph glyph-name="Udieresis" unicode="&#xdc;" horiz-adv-x="899" 
d="M450 -23q-97 0 -162.5 27t-106 73.5t-57.5 107.5t-17 128v511h73v-500q0 -139 64 -208t206 -69q141 0 205 68.5t64 208.5v500h73v-511q0 -67 -17 -128t-57 -107.5t-106 -73.5t-162 -27zM312 967q22 0 38 -16t16 -38t-16 -38t-38 -16t-38 16t-16 38t16 38t38 16zM582 967
q22 0 38 -16t16 -38t-16 -38t-38 -16t-38 16t-16 38t16 38t38 16z" />
    <glyph glyph-name="Yacute" unicode="&#xdd;" horiz-adv-x="718" 
d="M616 824h85l-305 -497v-340h-74v340l-305 497h85l257 -416zM375 832h-78l149 170h104z" />
    <glyph glyph-name="Thorn" unicode="&#xde;" horiz-adv-x="705" 
d="M191 166v-179h-74v837h74v-170h195q75 0 130.5 -19t91.5 -51.5t53 -76t17 -91.5q0 -49 -17 -94t-53 -80t-91.5 -55.5t-130.5 -20.5h-195zM191 583v-346h182q108 0 168 43t60 136q0 38 -12 68t-38.5 52t-70.5 34.5t-107 12.5h-182z" />
    <glyph glyph-name="germandbls" unicode="&#xdf;" horiz-adv-x="720" 
d="M97 -13v563q0 66 15.5 119.5t49.5 90t86.5 56t125.5 19.5q55 0 101 -13.5t79.5 -40t52.5 -64t19 -83.5q0 -79 -41 -127.5t-61 -54.5q13 -2 40 -14t57 -41t48.5 -71t18.5 -98q0 -70 -25.5 -118.5t-68.5 -78t-98.5 -42t-114.5 -12.5q-27 0 -57.5 2.5t-69.5 10.5l12 70
q40 -7 67 -10t53 -3q45 0 86 8t72 28.5t49.5 54.5t18.5 88q0 49 -18 84t-49.5 58t-74 34t-89.5 11h-19v69h19q83 0 126.5 40.5t43.5 106.5q0 64 -47.5 100t-129.5 36q-113 0 -160 -55.5t-47 -171.5v-551h-70z" />
    <glyph glyph-name="agrave" unicode="&#xe0;" horiz-adv-x="602" 
d="M300 -23q-48 0 -92.5 9t-79 29t-56 54t-21.5 83q0 99 77 142t204 43q24 0 56.5 -3t55.5 -6v6q0 81 -38 115.5t-117 34.5q-22 0 -45.5 -4t-47 -10t-44.5 -15t-59 -30l3 80q53 27 104 38t94 11q111 0 166 -50.5t55 -160.5v-325q-51 -21 -105 -31t-110 -10zM444 256
q-14 3 -51.5 7t-70.5 4q-38 0 -73.5 -5t-63 -17t-43 -33.5t-15.5 -57.5q0 -32 13 -52t35 -32.5t53.5 -17.5t66.5 -5q41 0 82 7t67 17v185zM134 824h104l149 -170h-78z" />
    <glyph glyph-name="aacute" unicode="&#xe1;" horiz-adv-x="602" 
d="M300 -23q-48 0 -92.5 9t-79 29t-56 54t-21.5 83q0 99 77 142t204 43q24 0 56.5 -3t55.5 -6v6q0 81 -38 115.5t-117 34.5q-22 0 -45.5 -4t-47 -10t-44.5 -15t-59 -30l3 80q53 27 104 38t94 11q111 0 166 -50.5t55 -160.5v-325q-51 -21 -105 -31t-110 -10zM444 256
q-14 3 -51.5 7t-70.5 4q-38 0 -73.5 -5t-63 -17t-43 -33.5t-15.5 -57.5q0 -32 13 -52t35 -32.5t53.5 -17.5t66.5 -5q41 0 82 7t67 17v185zM292 654h-78l149 170h104z" />
    <glyph glyph-name="acircumflex" unicode="&#xe2;" horiz-adv-x="602" 
d="M300 -23q-48 0 -92.5 9t-79 29t-56 54t-21.5 83q0 99 77 142t204 43q24 0 56.5 -3t55.5 -6v6q0 81 -38 115.5t-117 34.5q-22 0 -45.5 -4t-47 -10t-44.5 -15t-59 -30l3 80q53 27 104 38t94 11q111 0 166 -50.5t55 -160.5v-325q-51 -21 -105 -31t-110 -10zM444 256
q-14 3 -51.5 7t-70.5 4q-38 0 -73.5 -5t-63 -17t-43 -33.5t-15.5 -57.5q0 -32 13 -52t35 -32.5t53.5 -17.5t66.5 -5q41 0 82 7t67 17v185zM518 654h-85l-124 101l-127 -101h-85l185 170h53z" />
    <glyph glyph-name="atilde" unicode="&#xe3;" horiz-adv-x="602" 
d="M300 -23q-48 0 -92.5 9t-79 29t-56 54t-21.5 83q0 99 77 142t204 43q24 0 56.5 -3t55.5 -6v6q0 81 -38 115.5t-117 34.5q-22 0 -45.5 -4t-47 -10t-44.5 -15t-59 -30l3 80q53 27 104 38t94 11q111 0 166 -50.5t55 -160.5v-325q-51 -21 -105 -31t-110 -10zM444 256
q-14 3 -51.5 7t-70.5 4q-38 0 -73.5 -5t-63 -17t-43 -33.5t-15.5 -57.5q0 -32 13 -52t35 -32.5t53.5 -17.5t66.5 -5q41 0 82 7t67 17v185zM382 736q22 0 34 13.5t19 52.5h66q-11 -70 -40.5 -101t-75.5 -31q-28 0 -51 11.5t-43 24t-37 22t-35 9.5q-22 0 -33 -14t-18 -53h-67
q11 71 42 101.5t75 30.5q29 0 52 -11.5t43 -23.5l37 -23q16 -8 32 -8z" />
    <glyph glyph-name="adieresis" unicode="&#xe4;" horiz-adv-x="602" 
d="M300 -23q-48 0 -92.5 9t-79 29t-56 54t-21.5 83q0 99 77 142t204 43q24 0 56.5 -3t55.5 -6v6q0 81 -38 115.5t-117 34.5q-22 0 -45.5 -4t-47 -10t-44.5 -15t-59 -30l3 80q53 27 104 38t94 11q111 0 166 -50.5t55 -160.5v-325q-51 -21 -105 -31t-110 -10zM444 256
q-14 3 -51.5 7t-70.5 4q-38 0 -73.5 -5t-63 -17t-43 -33.5t-15.5 -57.5q0 -32 13 -52t35 -32.5t53.5 -17.5t66.5 -5q41 0 82 7t67 17v185zM173 774q22 0 38 -16t16 -38t-16 -38t-38 -16t-38 16t-16 38t16 38t38 16zM443 774q22 0 38 -16t16 -38t-16 -38t-38 -16t-38 16
t-16 38t16 38t38 16z" />
    <glyph glyph-name="aring" unicode="&#xe5;" horiz-adv-x="602" 
d="M300 -23q-48 0 -92.5 9t-79 29t-56 54t-21.5 83q0 99 77 142t204 43q24 0 56.5 -3t55.5 -6v6q0 81 -38 115.5t-117 34.5q-22 0 -45.5 -4t-47 -10t-44.5 -15t-59 -30l3 80q53 27 104 38t94 11q111 0 166 -50.5t55 -160.5v-325q-51 -21 -105 -31t-110 -10zM444 256
q-14 3 -51.5 7t-70.5 4q-38 0 -73.5 -5t-63 -17t-43 -33.5t-15.5 -57.5q0 -32 13 -52t35 -32.5t53.5 -17.5t66.5 -5q41 0 82 7t67 17v185zM307 848q46 0 78.5 -29.5t32.5 -76.5q0 -48 -32.5 -77t-78.5 -29q-47 0 -79.5 29t-32.5 77q0 47 32.5 76.5t79.5 29.5zM307 791
q-20 0 -35 -13t-15 -36t15 -36t35 -13t34.5 13t14.5 36t-14.5 36t-34.5 13z" />
    <glyph glyph-name="ae" unicode="&#xe6;" horiz-adv-x="1017" 
d="M717 47q63 0 108.5 14t90.5 41l34 -65q-52 -30 -104.5 -45t-128.5 -15q-79 0 -138.5 36t-68.5 52v-47q-51 -21 -102.5 -31t-107.5 -10q-48 0 -92.5 9t-79 29t-56 54t-21.5 83q0 99 77 142t204 43q24 0 56.5 -3t55.5 -6v6q0 81 -38 115.5t-117 34.5q-22 0 -45.5 -4
t-47 -10t-44.5 -15t-59 -30l3 80q53 27 104 38t94 11q92 0 143.5 -35t58.5 -75q17 33 78.5 71.5t142.5 38.5q60 0 109 -20.5t84.5 -59t55.5 -93t21 -134.5h-476q1 -33 16 -72.5t42.5 -67.5t65 -44t82.5 -16zM444 256q-14 3 -51.5 7t-70.5 4q-38 0 -73.5 -5t-63 -17
t-43 -33.5t-15.5 -57.5q0 -32 13 -52t35 -32.5t53.5 -17.5t66.5 -5q41 0 82 7t67 17v185zM717 484q-44 0 -79.5 -14t-60.5 -38.5t-41 -58t-20 -57.5h390q-3 28 -18.5 61.5t-40 57.5t-57.5 36.5t-73 12.5z" />
    <glyph glyph-name="ccedilla" unicode="&#xe7;" horiz-adv-x="532" 
d="M165 -154q25 -10 41 -13.5t30 -3.5q12 0 23.5 2t19 6.5t12 10.5t4.5 16q0 16 -13 24t-32 8q-24 0 -52 -14l-28 30l49 80q-27 7 -65 32t-65 61.5t-42 82t-15 97.5q0 63 22 115.5t60 91.5t88.5 60.5t109.5 21.5q61 0 107 -12.5t95 -39.5l-33 -65q-43 26 -80.5 36.5
t-88.5 10.5q-45 0 -82.5 -17t-64.5 -46t-42 -69t-15 -87t15 -87t42 -69t64.5 -45.5t82.5 -16.5q51 0 88.5 10.5t80.5 36.5l33 -65q-49 -27 -95 -39.5t-107 -12.5q-12 0 -23 1t-13 2l-19 -32q26 5 10 5q41 0 68 -22.5t27 -63.5q0 -27 -11 -45t-29 -30t-39.5 -17t-42.5 -5
q-42 0 -94 18z" />
    <glyph glyph-name="egrave" unicode="&#xe8;" horiz-adv-x="614" 
d="M314 47q63 0 108.5 14t90.5 41l34 -65q-52 -30 -104.5 -45t-128.5 -15q-61 0 -112 22t-89 60.5t-59.5 91t-21.5 114.5q0 64 22 116.5t60.5 91t89.5 60t110 21.5q60 0 109 -20.5t84.5 -59t55.5 -93t21 -134.5h-476q1 -33 16 -72.5t42.5 -67.5t65 -44t82.5 -16zM314 484
q-44 0 -79.5 -14t-60.5 -38.5t-41 -58t-20 -57.5h390q-3 28 -18.5 61.5t-40 57.5t-57.5 36.5t-73 12.5zM124 824h104l149 -170h-78z" />
    <glyph glyph-name="eacute" unicode="&#xe9;" horiz-adv-x="614" 
d="M314 47q63 0 108.5 14t90.5 41l34 -65q-52 -30 -104.5 -45t-128.5 -15q-61 0 -112 22t-89 60.5t-59.5 91t-21.5 114.5q0 64 22 116.5t60.5 91t89.5 60t110 21.5q60 0 109 -20.5t84.5 -59t55.5 -93t21 -134.5h-476q1 -33 16 -72.5t42.5 -67.5t65 -44t82.5 -16zM314 484
q-44 0 -79.5 -14t-60.5 -38.5t-41 -58t-20 -57.5h390q-3 28 -18.5 61.5t-40 57.5t-57.5 36.5t-73 12.5zM302 654h-78l149 170h104z" />
    <glyph glyph-name="ecircumflex" unicode="&#xea;" horiz-adv-x="614" 
d="M314 47q63 0 108.5 14t90.5 41l34 -65q-52 -30 -104.5 -45t-128.5 -15q-61 0 -112 22t-89 60.5t-59.5 91t-21.5 114.5q0 64 22 116.5t60.5 91t89.5 60t110 21.5q60 0 109 -20.5t84.5 -59t55.5 -93t21 -134.5h-476q1 -33 16 -72.5t42.5 -67.5t65 -44t82.5 -16zM314 484
q-44 0 -79.5 -14t-60.5 -38.5t-41 -58t-20 -57.5h390q-3 28 -18.5 61.5t-40 57.5t-57.5 36.5t-73 12.5zM529 654h-85l-124 101l-127 -101h-85l185 170h53z" />
    <glyph glyph-name="edieresis" unicode="&#xeb;" horiz-adv-x="614" 
d="M314 47q63 0 108.5 14t90.5 41l34 -65q-52 -30 -104.5 -45t-128.5 -15q-61 0 -112 22t-89 60.5t-59.5 91t-21.5 114.5q0 64 22 116.5t60.5 91t89.5 60t110 21.5q60 0 109 -20.5t84.5 -59t55.5 -93t21 -134.5h-476q1 -33 16 -72.5t42.5 -67.5t65 -44t82.5 -16zM314 484
q-44 0 -79.5 -14t-60.5 -38.5t-41 -58t-20 -57.5h390q-3 28 -18.5 61.5t-40 57.5t-57.5 36.5t-73 12.5zM179 774q22 0 38 -16t16 -38t-16 -38t-38 -16t-38 16t-16 38t16 38t38 16zM449 774q22 0 38 -16t16 -38t-16 -38t-38 -16t-38 16t-16 38t16 38t38 16z" />
    <glyph glyph-name="igrave" unicode="&#xec;" horiz-adv-x="265" 
d="M97 -13v556h71v-556h-71zM-74 824h104l149 -170h-78z" />
    <glyph glyph-name="iacute" unicode="&#xed;" horiz-adv-x="265" 
d="M97 -13v556h71v-556h-71zM165 654h-78l149 170h104z" />
    <glyph glyph-name="icircumflex" unicode="&#xee;" horiz-adv-x="265" 
d="M97 -13v556h71v-556h-71zM343 654h-85l-124 101l-127 -101h-85l185 170h53z" />
    <glyph glyph-name="idieresis" unicode="&#xef;" horiz-adv-x="265" 
d="M97 -13v556h71v-556h-71zM-2 774q22 0 38 -16t16 -38t-16 -38t-38 -16t-38 16t-16 38t16 38t38 16zM268 774q22 0 38 -16t16 -38t-16 -38t-38 -16t-38 16t-16 38t16 38t38 16z" />
    <glyph glyph-name="eth" unicode="&#xf0;" horiz-adv-x="682" 
d="M342 -23q-67 0 -124 25t-98 67.5t-64.5 97t-23.5 113.5q0 63 24 118t65 96t96 65t118 24q32 0 58 -6.5t39 -12.5l-83 114l-86 -67l-42 54l88 70l-63 89h86l33 -46l95 74l43 -54l-98 -77l153 -213q25 -36 43 -65.5t29 -56t15.5 -52.5t4.5 -54q0 -64 -24.5 -119.5
t-66.5 -96t-98 -64t-119 -23.5zM341 47q49 0 91.5 19t74 51t49.5 75t18 90q0 46 -18 88.5t-49.5 74t-74.5 50t-91 18.5q-49 0 -92 -18.5t-74 -50t-49 -74t-18 -88.5q0 -47 18 -90t49.5 -75t74 -51t91.5 -19z" />
    <glyph glyph-name="ntilde" unicode="&#xf1;" horiz-adv-x="647" 
d="M97 528q68 13 124 19.5t105 6.5q51 0 94.5 -10t75 -37t48 -72.5t16.5 -114.5v-333h-71v303q0 61 -11.5 98.5t-32 58t-51.5 29t-72 8.5q-72 0 -154 -16v-481h-71v541zM406 736q22 0 34 13.5t19 52.5h66q-11 -70 -40.5 -101t-75.5 -31q-28 0 -51 11.5t-43 24t-37 22
t-35 9.5q-22 0 -33 -14t-18 -53h-67q11 71 42 101.5t75 30.5q29 0 52 -11.5t44 -23.5l38 -22q15 -9 30 -9z" />
    <glyph glyph-name="ograve" unicode="&#xf2;" horiz-adv-x="628" 
d="M314 -23q-60 0 -111.5 22.5t-89.5 62t-59.5 91.5t-21.5 112t21.5 112t59.5 91.5t89.5 62.5t111.5 23t111.5 -23t89.5 -62.5t59.5 -91.5t21.5 -112t-21.5 -112t-59.5 -91.5t-89.5 -62t-111.5 -22.5zM314 47q46 0 84 17.5t65 47t42 69t15 84.5t-15 85t-42 69.5t-65 47
t-84 17.5t-84 -17.5t-65 -47t-42 -69.5t-15 -85t15 -84.5t42 -69t65 -47t84 -17.5zM138 824h104l149 -170h-78z" />
    <glyph glyph-name="oacute" unicode="&#xf3;" horiz-adv-x="628" 
d="M314 -23q-60 0 -111.5 22.5t-89.5 62t-59.5 91.5t-21.5 112t21.5 112t59.5 91.5t89.5 62.5t111.5 23t111.5 -23t89.5 -62.5t59.5 -91.5t21.5 -112t-21.5 -112t-59.5 -91.5t-89.5 -62t-111.5 -22.5zM314 47q46 0 84 17.5t65 47t42 69t15 84.5t-15 85t-42 69.5t-65 47
t-84 17.5t-84 -17.5t-65 -47t-42 -69.5t-15 -85t15 -84.5t42 -69t65 -47t84 -17.5zM324 654h-78l149 170h104z" />
    <glyph glyph-name="ocircumflex" unicode="&#xf4;" horiz-adv-x="628" 
d="M314 -23q-60 0 -111.5 22.5t-89.5 62t-59.5 91.5t-21.5 112t21.5 112t59.5 91.5t89.5 62.5t111.5 23t111.5 -23t89.5 -62.5t59.5 -91.5t21.5 -112t-21.5 -112t-59.5 -91.5t-89.5 -62t-111.5 -22.5zM314 47q46 0 84 17.5t65 47t42 69t15 84.5t-15 85t-42 69.5t-65 47
t-84 17.5t-84 -17.5t-65 -47t-42 -69.5t-15 -85t15 -84.5t42 -69t65 -47t84 -17.5zM527 654h-85l-124 101l-127 -101h-85l185 170h53z" />
    <glyph glyph-name="otilde" unicode="&#xf5;" horiz-adv-x="628" 
d="M314 -23q-60 0 -111.5 22.5t-89.5 62t-59.5 91.5t-21.5 112t21.5 112t59.5 91.5t89.5 62.5t111.5 23t111.5 -23t89.5 -62.5t59.5 -91.5t21.5 -112t-21.5 -112t-59.5 -91.5t-89.5 -62t-111.5 -22.5zM314 47q46 0 84 17.5t65 47t42 69t15 84.5t-15 85t-42 69.5t-65 47
t-84 17.5t-84 -17.5t-65 -47t-42 -69.5t-15 -85t15 -84.5t42 -69t65 -47t84 -17.5zM391 736q22 0 34 13.5t19 52.5h66q-11 -70 -40.5 -101t-75.5 -31q-28 0 -51 11.5t-43 24t-37 22t-35 9.5q-22 0 -33 -14t-18 -53h-67q11 71 42 101.5t75 30.5q29 0 52 -11.5t44 -23.5
l38 -22q15 -9 30 -9z" />
    <glyph glyph-name="odieresis" unicode="&#xf6;" horiz-adv-x="628" 
d="M314 -23q-60 0 -111.5 22.5t-89.5 62t-59.5 91.5t-21.5 112t21.5 112t59.5 91.5t89.5 62.5t111.5 23t111.5 -23t89.5 -62.5t59.5 -91.5t21.5 -112t-21.5 -112t-59.5 -91.5t-89.5 -62t-111.5 -22.5zM314 47q46 0 84 17.5t65 47t42 69t15 84.5t-15 85t-42 69.5t-65 47
t-84 17.5t-84 -17.5t-65 -47t-42 -69.5t-15 -85t15 -84.5t42 -69t65 -47t84 -17.5zM180 774q22 0 38 -16t16 -38t-16 -38t-38 -16t-38 16t-16 38t16 38t38 16zM450 774q22 0 38 -16t16 -38t-16 -38t-38 -16t-38 16t-16 38t16 38t38 16z" />
    <glyph glyph-name="divide" unicode="&#xf7;" horiz-adv-x="595" 
d="M32 302h531v-69h-531v69zM296 -23q-22 0 -38 16t-16 38t16 38t38 16t38 -16t16 -38t-16 -38t-38 -16zM296 446q-22 0 -38 16t-16 38t16 38t38 16t38 -16t16 -38t-16 -38t-38 -16z" />
    <glyph glyph-name="oslash" unicode="&#xf8;" horiz-adv-x="628" 
d="M314 -23q-52 0 -97 16.5t-72 38.5l-71 -78l-49 45l72 80q-26 30 -45.5 80t-19.5 106q0 60 21.5 112t59.5 91.5t89.5 62.5t111.5 23q50 0 93.5 -16t69.5 -36l85 94l49 -46l-84 -94q28 -31 48.5 -81.5t20.5 -109.5q0 -60 -21.5 -112t-59.5 -91.5t-89.5 -62t-111.5 -22.5z
M314 47q46 0 84 17.5t65 47t42 69t15 84.5q0 43 -13.5 81t-29.5 56l-284 -317q15 -13 48 -25.5t73 -12.5zM108 265q0 -42 12.5 -78.5t25.5 -53.5l284 316q-15 12 -46.5 23.5t-69.5 11.5q-46 0 -84 -17.5t-65 -47t-42 -69.5t-15 -85z" />
    <glyph glyph-name="ugrave" unicode="&#xf9;" horiz-adv-x="632" 
d="M464 543h71v-530q-67 -19 -119.5 -27.5t-104.5 -8.5t-93.5 10t-71 37t-44.5 72.5t-15 114.5v332h71v-302q0 -61 10 -99t28.5 -58t48 -28.5t70.5 -8.5q34 0 72.5 5t76.5 16v475zM154 824h104l149 -170h-78z" />
    <glyph glyph-name="uacute" unicode="&#xfa;" horiz-adv-x="632" 
d="M464 543h71v-530q-67 -19 -119.5 -27.5t-104.5 -8.5t-93.5 10t-71 37t-44.5 72.5t-15 114.5v332h71v-302q0 -61 10 -99t28.5 -58t48 -28.5t70.5 -8.5q34 0 72.5 5t76.5 16v475zM319 654h-78l149 170h104z" />
    <glyph glyph-name="ucircumflex" unicode="&#xfb;" horiz-adv-x="632" 
d="M464 543h71v-530q-67 -19 -119.5 -27.5t-104.5 -8.5t-93.5 10t-71 37t-44.5 72.5t-15 114.5v332h71v-302q0 -61 10 -99t28.5 -58t48 -28.5t70.5 -8.5q34 0 72.5 5t76.5 16v475zM523 654h-85l-124 101l-127 -101h-85l185 170h53z" />
    <glyph glyph-name="udieresis" unicode="&#xfc;" horiz-adv-x="632" 
d="M464 543h71v-530q-67 -19 -119.5 -27.5t-104.5 -8.5t-93.5 10t-71 37t-44.5 72.5t-15 114.5v332h71v-302q0 -61 10 -99t28.5 -58t48 -28.5t70.5 -8.5q34 0 72.5 5t76.5 16v475zM179 774q22 0 38 -16t16 -38t-16 -38t-38 -16t-38 16t-16 38t16 38t38 16zM449 774
q22 0 38 -16t16 -38t-16 -38t-38 -16t-38 16t-16 38t16 38t38 16z" />
    <glyph glyph-name="yacute" unicode="&#xfd;" horiz-adv-x="632" 
d="M464 -5q-29 -7 -70.5 -12.5t-82.5 -5.5q-52 0 -93.5 10t-71 37t-44.5 72.5t-15 114.5v332h71v-302q0 -61 10 -99t28.5 -58t48 -28.5t70.5 -8.5q34 0 72.5 5t76.5 16v475h71v-571q0 -110 -65 -160.5t-174 -50.5q-23 0 -47.5 2.5t-49 7.5t-48 12.5t-48.5 19.5l-13 88
q41 -22 62.5 -31t45.5 -15t47.5 -10t45.5 -4q80 0 126.5 35t46.5 115v14zM336 654h-78l149 170h104z" />
    <glyph glyph-name="thorn" unicode="&#xfe;" horiz-adv-x="631" 
d="M168 -233h-71v1057h71v-281q17 3 50 7t61 4q80 0 140.5 -22.5t100.5 -61t59.5 -91t19.5 -111.5t-19.5 -112t-59.5 -93t-100.5 -63t-140.5 -23q-46 0 -111 11v-221zM168 61q31 -8 61 -11t52 -3q62 0 107.5 15.5t75.5 44.5t44.5 69.5t14.5 91.5q0 101 -59 158.5t-183 57.5
q-27 0 -57.5 -4.5t-55.5 -9.5v-409z" />
    <glyph glyph-name="ydieresis" unicode="&#xff;" horiz-adv-x="632" 
d="M464 -5q-29 -7 -70.5 -12.5t-82.5 -5.5q-52 0 -93.5 10t-71 37t-44.5 72.5t-15 114.5v332h71v-302q0 -61 10 -99t28.5 -58t48 -28.5t70.5 -8.5q34 0 72.5 5t76.5 16v475h71v-571q0 -110 -65 -160.5t-174 -50.5q-23 0 -47.5 2.5t-49 7.5t-48 12.5t-48.5 19.5l-13 88
q41 -22 62.5 -31t45.5 -15t47.5 -10t45.5 -4q80 0 126.5 35t46.5 115v14zM181 774q22 0 38 -16t16 -38t-16 -38t-38 -16t-38 16t-16 38t16 38t38 16zM451 774q22 0 38 -16t16 -38t-16 -38t-38 -16t-38 16t-16 38t16 38t38 16z" />
    <glyph glyph-name="dotlessi" unicode="&#x131;" horiz-adv-x="265" 
d="M97 -13v556h71v-556h-71z" />
    <glyph glyph-name="Lslash" unicode="&#x141;" horiz-adv-x="635" 
d="M204 483l153 73l30 -62l-183 -88v-348h414v-71h-489v383l-117 -55l-29 62l146 70v377h75v-341z" />
    <glyph glyph-name="lslash" unicode="&#x142;" horiz-adv-x="370" 
d="M-17 377l166 79v368h71v-333l137 65l30 -62l-167 -80v-427h-71v392l-137 -64z" />
    <glyph glyph-name="OE" unicode="&#x152;" horiz-adv-x="1359" 
d="M809 144q-26 -51 -120 -109t-218 -58q-90 0 -167.5 32t-134.5 89.5t-89.5 136t-32.5 171.5t32.5 171.5t89.5 136t134.5 89.5t167.5 32q62 0 116.5 -15.5t101 -43.5t83.5 -68l37 -41v157h488v-71h-414v-294h375v-73h-375v-328h419v-71h-493v157zM124 406q0 -83 28 -150
t75.5 -113t110.5 -71t132.5 -25t132.5 25t110.5 71.5t76 113t28.5 149.5t-28.5 149.5t-76 113t-110.5 71.5t-132.5 25t-132.5 -25t-110.5 -71t-75.5 -113t-28 -150z" />
    <glyph glyph-name="oe" unicode="&#x153;" horiz-adv-x="1096" 
d="M796 47q63 0 108.5 14t90.5 41l34 -65q-52 -30 -104.5 -45t-128.5 -15q-91 0 -157.5 47t-84.5 95q-4 -8 -28.5 -39.5t-56.5 -54.5t-71.5 -35.5t-83.5 -12.5q-60 0 -111.5 22.5t-89.5 62t-59.5 91.5t-21.5 112t21.5 112t59.5 91.5t89.5 62.5t111.5 23q44 0 83.5 -12.5
t71.5 -36t56.5 -55t27.5 -39.5q19 49 86.5 96t156.5 47q60 0 109 -20.5t84.5 -59t55.5 -93t21 -134.5h-476q1 -33 16 -72.5t42.5 -67.5t65 -44t82.5 -16zM314 47q46 0 84 17.5t65 47t42 69t15 84.5t-15 85t-42 69.5t-65 47t-84 17.5t-84 -17.5t-65 -47t-42 -69.5t-15 -85
t15 -84.5t42 -69t65 -47t84 -17.5zM796 484q-44 0 -79.5 -14t-60.5 -38.5t-41 -58t-20 -57.5h390q-3 28 -18.5 61.5t-40 57.5t-57.5 36.5t-73 12.5z" />
    <glyph glyph-name="Scaron" unicode="&#x160;" horiz-adv-x="693" 
d="M91 121q57 -35 116.5 -54.5t125.5 -19.5q102 0 159.5 41.5t57.5 119.5q0 36 -13 63t-38 48t-61.5 37t-81.5 30l-60 18q-110 33 -162.5 90.5t-52.5 137.5q0 53 22.5 91.5t59.5 63.5t82.5 36.5t93.5 11.5q77 0 145.5 -20t133.5 -60l-38 -63q-57 36 -116.5 54.5t-126.5 18.5
q-37 0 -70.5 -8t-57 -23.5t-37.5 -39.5t-14 -56q0 -63 40.5 -100.5t122.5 -63.5l66 -20q43 -13 85.5 -32t76.5 -47.5t55.5 -68t21.5 -92.5q0 -115 -77 -176t-216 -61q-75 0 -145.5 20t-135.5 60zM127 1002h85l125 -101l126 101h85l-184 -170h-54z" />
    <glyph glyph-name="scaron" unicode="&#x161;" horiz-adv-x="571" 
d="M268 47q33 0 62.5 4.5t51 14t33.5 26.5t12 44q0 38 -30 61t-100 38l-42 9q-51 12 -87 26.5t-59 34.5t-33 46t-10 58t16 59t43.5 46t65 29.5t81.5 10.5q118 0 216 -53l-32 -65q-49 27 -89 37.5t-95 10.5q-64 0 -97 -20.5t-33 -55.5q0 -37 28 -56t101 -34l37 -8
q53 -12 90 -27.5t61 -36.5t34 -49t10 -61q0 -39 -17 -69t-48.5 -50t-74.5 -30t-95 -10q-59 0 -110.5 13t-105.5 43l34 68q48 -29 94.5 -41.5t87.5 -12.5zM56 824h85l125 -101l126 101h85l-184 -170h-54z" />
    <glyph glyph-name="Ydieresis" unicode="&#x178;" horiz-adv-x="718" 
d="M616 824h85l-305 -497v-340h-74v340l-305 497h85l257 -416zM222 967q22 0 38 -16t16 -38t-16 -38t-38 -16t-38 16t-16 38t16 38t38 16zM492 967q22 0 38 -16t16 -38t-16 -38t-38 -16t-38 16t-16 38t16 38t38 16z" />
    <glyph glyph-name="Zcaron" unicode="&#x17d;" horiz-adv-x="713" 
d="M87 824h567v-64l-520 -702h532v-71h-629v63l521 703h-471v71zM157 1002h85l125 -101l126 101h85l-184 -170h-54z" />
    <glyph glyph-name="zcaron" unicode="&#x17e;" horiz-adv-x="573" 
d="M70 543h436v-61l-358 -426h363v-69h-459v61l357 426h-339v69zM76 824h85l125 -101l126 101h85l-184 -170h-54z" />
    <glyph glyph-name="florin" unicode="&#x192;" horiz-adv-x="620" 
d="M150 -153q-24 0 -44 5t-51 17l15 68q30 -13 44 -16t32 -3q16 0 28.5 3.5t19.5 15.5q12 19 18 45.5t11 50.5l76 395h-69l14 71h68l38 204l11 48q7 27 20 48q17 26 46.5 39t58.5 13q21 0 36.5 -4t43.5 -17l-15 -66q-37 16 -61 16q-25 0 -37.5 -9t-19.5 -25t-10.5 -37.5
t-7.5 -43.5l-30 -166h116l-14 -71h-115l-70 -369l-13 -67q-6 -38 -22 -69.5t-43 -53.5t-74 -22z" />
    <glyph glyph-name="Ohorn" unicode="&#x1a0;" horiz-adv-x="210" 
d="M-13 58h256v-71h-256v71z" />
    <glyph glyph-name="Ohorn" unicode="&#x640;" horiz-adv-x="210" 
d="M-13 58h256v-71h-256v71z" />
    <glyph glyph-name="circumflex" unicode="&#x2c6;" horiz-adv-x="375" 
d="M398 654h-85l-124 101l-127 -101h-85l185 170h53z" />
    <glyph glyph-name="caron" unicode="&#x2c7;" horiz-adv-x="375" 
d="M-23 824h85l125 -101l126 101h85l-184 -170h-54z" />
    <glyph glyph-name="breve" unicode="&#x2d8;" horiz-adv-x="341" 
d="M345 824q-13 -174 -175 -174q-163 0 -174 174h67q6 -68 32 -89.5t75.5 -21.5t76.5 21t33 90h65z" />
    <glyph glyph-name="dotaccent" unicode="&#x2d9;" horiz-adv-x="102" 
d="M51 774q22 0 38 -16t16 -38t-16 -38t-38 -16t-38 16t-16 38t16 38t38 16z" />
    <glyph glyph-name="ring" unicode="&#x2da;" horiz-adv-x="217" 
d="M109 848q46 0 78.5 -29.5t32.5 -76.5q0 -48 -32.5 -77t-78.5 -29q-47 0 -79.5 29t-32.5 77q0 47 32.5 76.5t79.5 29.5zM109 791q-20 0 -35 -13t-15 -36t15 -36t35 -13t34.5 13t14.5 36t-14.5 36t-34.5 13z" />
    <glyph glyph-name="ogonek" unicode="&#x2db;" horiz-adv-x="174" 
d="M216 11q-89 -43 -117 -64t-28 -43q0 -16 12.5 -25.5t40.5 -9.5q20 0 53 11v-65q-22 -8 -35.5 -9t-27.5 -1q-21 0 -41 5t-37.5 16t-28 28.5t-10.5 43.5q0 21 11.5 39.5t29 33t38 26t42.5 18.5z" />
    <glyph glyph-name="tilde" unicode="&#x2dc;" horiz-adv-x="390" 
d="M276 736q22 0 34 13.5t19 52.5h66q-11 -70 -40.5 -101t-75.5 -31q-28 0 -51 11.5t-43 24t-37 22t-35 9.5q-22 0 -33 -14t-18 -53h-67q11 71 42 101.5t75 30.5q29 0 52 -11.5t43 -23.5l38 -22q15 -9 31 -9z" />
    <glyph glyph-name="hungarumlaut" unicode="&#x2dd;" horiz-adv-x="403" 
d="M59 654h-78l149 170h104zM251 654h-78l149 170h103z" />
    <glyph glyph-name="pi" unicode="&#x3c0;" horiz-adv-x="753" 
d="M125 -13v487h-88v69h669v-69h-90v-326q0 -34 2 -53t7 -26.5t17 -10t38 -2.5h26v-69h-37q-34 0 -58.5 5t-39.5 21.5t-20.5 44.5t-5.5 71v345h-349v-487h-71z" />
    <glyph glyph-name="uni060C" unicode="&#x60c;" horiz-adv-x="272" 
d="M150 -23h-79l98 266h60z" />
    <glyph glyph-name="uni0615" unicode="&#x615;" 
d="M-125 53h46v142h70v-57h35q46 0 73 -29.5t27 -72.5v-49h-251v66zM-9 77v-24h68q0 3 -8 13.5t-25 10.5h-35z" />
    <glyph glyph-name="uni061B" unicode="&#x61b;" horiz-adv-x="282" 
d="M131 -23q-22 0 -38 16t-16 38t16 38t38 16t38 -16t16 -38t-16 -38t-38 -16zM160 359h-79l98 266h60z" />
    <glyph glyph-name="uni061F" unicode="&#x61f;" horiz-adv-x="536" 
d="M287 36q0 25 17 42t42 17t42 -17t17 -42t-17 -42t-42 -17t-42 17t-17 42zM334 779q51 0 91 -10t92 -37l3 -80q-54 31 -94.5 44t-91.5 13q-41 0 -75.5 -12t-60 -34.5t-40.5 -53.5t-15 -68q0 -47 19.5 -82.5t51 -60t71.5 -37.5t80 -13h19v-204h-74v138q-37 4 -83 23
t-81.5 50.5t-57 77t-21.5 105.5q0 51 19 95t54.5 76t85 51t108.5 19z" />
    <glyph glyph-name="uni0647" unicode="&#x647;" horiz-adv-x="851" 
d="M52 58h145q-2 5 -8 41.5t-6 72.5q0 57 14 104.5t42 81.5t67.5 53t90.5 19t90 -19t66.5 -53t41 -81.5t13.5 -104.5q0 -36 -5 -72t-7 -42h126q6 28 11 69t5 77q0 65 -8.5 115t-32.5 100q-34 72 -106 112.5t-179 40.5q-60 0 -113.5 -19.5t-107.5 -48.5l-30 65
q74 38 136 56.5t139 18.5q56 0 106 -15t91 -40t72.5 -58t50.5 -70q29 -56 41 -118t12 -126q0 -58 -8.5 -113.5t-22.5 -116.5h-726v71zM254 172q0 -37 5 -70.5t7 -43.5h259q2 10 7 43t5 71q0 40 -9 74.5t-27 59.5t-43.5 39t-60.5 14q-36 0 -62.5 -13.5t-44.5 -38.5t-27 -59.5
t-9 -75.5z" />
    <glyph glyph-name="uni064B" unicode="&#x64b;" 
d="M-124 39l250 36v-54l-250 -36v54zM-125 106l250 36v-54l-250 -36v54z" />
    <glyph glyph-name="uni064C" unicode="&#x64c;" 
d="M-26 50q-2 7 -2 25q0 40 22.5 67t67.5 27q34 0 55 -24.5t21 -59.5q0 -14 -1 -25t-7 -41l-227 -33l-44 115l54 20l28 -76zM27 83q0 -17 2 -24l61 9q-12 -61 -9 -28t3 39q0 14 -6.5 24.5t-22.5 10.5q-12 0 -20 -8t-8 -23z" />
    <glyph glyph-name="uni064D" unicode="&#x64d;" 
d="M-124 -88l250 36v-54l-250 -36v54zM-125 -21l250 36v-54l-250 -36v54z" />
    <glyph glyph-name="uni064E" unicode="&#x64e;" 
d="M-125 41l250 36v-56l-250 -36v56z" />
    <glyph glyph-name="uni064F" unicode="&#x64f;" 
d="M-123 36l81 12q-2 7 -2 26q0 40 22.5 67t67.5 27q34 0 55 -24.5t21 -59.5q0 -14 -1 -25t-7 -41l-231 -33zM11 80q0 -17 2 -22l61 9q-12 -61 -9 -28t3 39q0 14 -6.5 24.5t-22.5 10.5q-12 0 -20 -8t-8 -25z" />
    <glyph glyph-name="uni0650" unicode="&#x650;" 
d="M-125 -21l250 36v-56l-250 -36v56z" />
    <glyph glyph-name="uni0651" unicode="&#x651;" 
d="M-54 -13q-25 0 -48 15t-30 53l-11 61l56 11l12 -58q4 -17 10 -21.5t14 -4.5q12 0 20 10t8 28q0 19 -7 56l57 9l12 -59q2 -10 8 -16t15 -6q13 0 19.5 5.5t6.5 19.5q0 28 -15 70l59 14q4 -26 7 -37q2 -11 3.5 -22t1.5 -20q0 -41 -23 -63.5t-63 -22.5q-21 0 -31.5 9
t-12.5 14q-3 -13 -19 -29t-49 -16z" />
    <glyph glyph-name="uni0652" unicode="&#x652;" 
d="M-3 -13q-37 0 -60 22.5t-23 68.5q0 43 25 68t64 25q41 0 63 -25.5t22 -68t-26 -66.5t-65 -24zM0 38q12 0 23 7t11 32q0 23 -10.5 32.5t-23.5 9.5q-10 0 -20.5 -8t-10.5 -32q0 -27 9 -34t22 -7z" />
    <glyph glyph-name="uni0653" unicode="&#x653;" horiz-adv-x="335" 
d="M42 793h251v-71h-251v71z" />
    <glyph glyph-name="uni0654" unicode="&#x654;" horiz-adv-x="335" 
d="M73 765q0 63 29.5 98t89.5 35h49v-71h-42q-32 0 -43 -11.5t-11 -22.5h128v-71h-200v43z" />
    <glyph glyph-name="uni0655" unicode="&#x655;" horiz-adv-x="335" 
d="M192 -210q-60 0 -89.5 35t-29.5 98v43h200v-71h-128q0 -11 11 -22.5t43 -11.5h42v-71h-49z" />
    <glyph glyph-name="uni0656" unicode="&#x656;" 
d="M-31 13h62v-210l-62 -9v219z" />
    <glyph glyph-name="uni0658" unicode="&#x658;" 
d="M27 -13q-65 0 -98 28.5t-33 98.5v84h66v-82q0 -19 4.5 -30t12.5 -17t20 -8.5t29 -2.5h5v140h71v-211h-77zM-31 264h62l-5 -161l-51 -6z" />
    <glyph glyph-name="uni0660" unicode="&#x660;" horiz-adv-x="468" 
d="M234 372l82 -82l-82 -82l-82 82z" />
    <glyph glyph-name="uni0661" unicode="&#x661;" horiz-adv-x="405" 
d="M167 -13v676h71v-676h-71z" />
    <glyph glyph-name="uni0662" unicode="&#x662;" horiz-adv-x="625" 
d="M142 -13v676h71v-299q23 -11 60.5 -18t75.5 -7q66 0 97 32.5t31 102.5v189h71v-185q0 -100 -50.5 -155t-148.5 -55q-37 0 -80 7.5t-56 13.5v-302h-71z" />
    <glyph glyph-name="uni0663" unicode="&#x663;" horiz-adv-x="715" 
d="M142 -13v676h71v-312q13 -5 33 -8.5t39 -3.5q23 0 38.5 5t24.5 17t14 33.5t5 55.5v213h71v-209q0 -66 -13 -96q9 -3 26 -6t39 -3q23 0 38.5 5t24.5 17t14 33.5t5 55.5v203h71v-199q0 -98 -38 -142t-115 -44q-28 0 -55 7t-46 15q-32 -32 -104 -32q-24 0 -45.5 3.5
t-26.5 6.5v-291h-71z" />
    <glyph glyph-name="uni0664" unicode="&#x664;" horiz-adv-x="629" 
d="M356 -13q-52 0 -94.5 8t-74 28t-48.5 54t-17 84q0 46 19.5 82.5t45.5 58.5q-16 37 -27.5 80t-11.5 93q0 47 15 86t43.5 67.5t69 44t90.5 15.5q25 0 45.5 -2.5t40 -8.5t41.5 -14l57 -21l-22 -65l-62 23q-21 6 -37 10t-32 5.5t-37 1.5q-66 0 -103.5 -38.5t-37.5 -108.5
q0 -39 8.5 -72t19.5 -56q17 10 53 22.5t78 23.5l111 26l14 -70l-119 -28q-36 -8 -71 -22t-61.5 -33t-42.5 -44t-16 -56q0 -35 13 -55t35 -30.5t52.5 -14t62.5 -3.5h201v-71h-201z" />
    <glyph glyph-name="uni0665" unicode="&#x665;" horiz-adv-x="671" 
d="M330 -23q-111 0 -174.5 60.5t-63.5 194.5q0 88 16.5 169.5t47 145t76 102.5t103.5 39q50 0 95 -34.5t78 -95.5t52 -144.5t19 -181.5q0 -73 -19.5 -122.5t-54 -79.5t-79.5 -41.5t-96 -11.5zM330 49q41 0 74 9.5t55.5 29.5t34.5 55t12 89q0 75 -13 145t-36 123.5t-55 84.5
t-72 31q-30 0 -60 -31t-54 -85.5t-37.5 -124t-13.5 -143.5q0 -52 11.5 -87t32.5 -56t51.5 -30.5t69.5 -9.5z" />
    <glyph glyph-name="uni0666" unicode="&#x666;" horiz-adv-x="566" 
d="M353 -13v605h-296v71h367v-676h-71z" />
    <glyph glyph-name="uni0667" unicode="&#x667;" horiz-adv-x="630" 
d="M269 -13l-222 676h75l199 -611h-18l206 611h74l-230 -676h-84z" />
    <glyph glyph-name="uni0668" unicode="&#x668;" horiz-adv-x="630" 
d="M509 -13l-206 611h18l-199 -611h-75l222 676h84l230 -676h-74z" />
    <glyph glyph-name="uni0669" unicode="&#x669;" horiz-adv-x="633" 
d="M420 -13v217q-2 0 -19 -1t-33 -1q-58 0 -108 11t-88 37t-59 69.5t-21 105.5q0 115 75.5 176.5t229.5 61.5h94v-676h-71zM340 273q26 0 47.5 1t32.5 2v316h-41q-102 0 -159 -41t-57 -126q0 -41 13 -69.5t36 -46.5t55.5 -27t72.5 -9z" />
    <glyph glyph-name="uni066A" unicode="&#x66a;" horiz-adv-x="557" 
d="M158 588q-24 0 -41 17t-17 41q0 23 16.5 40.5t41.5 17.5t41.5 -17.5t16.5 -40.5q0 -24 -17 -41t-41 -17zM406 78q-24 0 -41 17t-17 41q0 23 16.5 40.5t41.5 17.5t41.5 -17.5t16.5 -40.5q0 -24 -17 -41t-41 -17zM429 898h71l-369 -1036h-74z" />
    <glyph glyph-name="uni066B" unicode="&#x66b;" horiz-adv-x="272" 
d="M150 -23h-79l98 266h60z" />
    <glyph glyph-name="uni066C" unicode="&#x66c;" horiz-adv-x="272" 
d="M150 467h-79l98 266h60z" />
    <glyph glyph-name="uni066D" unicode="&#x66d;" horiz-adv-x="585" 
d="M382 257l110 -244l-200 179l-199 -179l111 244l-232 133l266 -28l54 262l56 -262l266 28z" />
    <glyph glyph-name="uni066E" unicode="&#x66e;" horiz-adv-x="797" 
d="M353 -13q-42 0 -74 3.5t-58.5 11.5t-48.5 20t-44 29q-39 29 -57.5 77t-18.5 93v223h71v-213q0 -51 14 -81t41 -50q28 -21 66 -31.5t81 -10.5h339v485h71v-556h-382z" />
    <glyph glyph-name="uni066F" unicode="&#x66f;" horiz-adv-x="807" 
d="M353 -233q-42 0 -74 3.5t-58.5 11.5t-48.5 20t-44 29q-39 29 -57.5 77t-18.5 93v267h71v-257q0 -51 14 -81t41 -50q28 -21 66 -31.5t81 -10.5h349v149h-47q-68 0 -129 14.5t-109 47t-76.5 86t-28.5 130.5q0 59 23.5 110t68.5 88.5t108.5 58.5t142.5 21h118v-776h-392z
M355 265q0 -52 18.5 -91t51.5 -64.5t78 -38.5t96 -13h75v414h-75q-48 0 -92.5 -15.5t-78 -42t-53.5 -65t-20 -84.5z" />
    <glyph glyph-name="uni0670" unicode="&#x670;" 
d="M-31 204h62v-210l-62 -9v219z" />
    <glyph glyph-name="uni06A1" unicode="&#x6a1;" horiz-adv-x="1002" 
d="M353 -13q-42 0 -74 3.5t-58.5 11.5t-48.5 20t-44 29q-39 29 -57.5 77t-18.5 93v223h71v-213q0 -51 14 -81t41 -50q28 -21 66 -31.5t81 -10.5h236q-18 13 -55 70t-37 138q0 59 21.5 110t64 88.5t105 58t142.5 20.5h138v-556h-587zM540 266q0 -70 41 -123t101 -85h187v414
h-95q-49 0 -91 -14.5t-74 -42t-50.5 -65.5t-18.5 -84z" />
    <glyph glyph-name="uni06C2" unicode="&#x6c2;" horiz-adv-x="584" 
d="M390 -13q-65 0 -126 15.5t-108 49.5t-75.5 87t-28.5 126q0 59 23.5 110t68.5 88.5t107 58.5t139 21h47v50h71v-606h-118zM437 58v414h-75q-45 0 -88.5 -15.5t-77 -42t-53.5 -65t-20 -84.5q0 -49 18.5 -87.5t50.5 -64.5t76 -40.5t94 -14.5h75zM298 725q0 63 29.5 98
t89.5 35h69v-71h-62q-32 0 -43 -11.5t-11 -35.5v-27h148v-71h-220v83z" />
    <glyph glyph-name="uni06C3" unicode="&#x6c3;" horiz-adv-x="584" 
d="M390 -13q-65 0 -126 15.5t-108 49.5t-75.5 87t-28.5 126q0 59 23.5 110t68.5 88.5t107 58.5t139 21h47v50h71v-606h-118zM437 58v414h-75q-45 0 -88.5 -15.5t-77 -42t-53.5 -65t-20 -84.5q0 -49 18.5 -87.5t50.5 -64.5t76 -40.5t94 -14.5h75zM289 685q-22 0 -38 16
t-16 38t16 38t38 16t38 -16t16 -38t-16 -38t-38 -16zM468 685q-22 0 -38 16t-16 38t16 38t38 16t38 -16t16 -38t-16 -38t-38 -16z" />
    <glyph glyph-name="uni06D5" unicode="&#x6d5;" horiz-adv-x="584" 
d="M390 -13q-65 0 -126 15.5t-108 49.5t-75.5 87t-28.5 126q0 59 23.5 110t68.5 88.5t107 58.5t139 21h47v50h71v-606h-118zM437 58v414h-75q-45 0 -88.5 -15.5t-77 -42t-53.5 -65t-20 -84.5q0 -49 18.5 -87.5t50.5 -64.5t76 -40.5t94 -14.5h75z" />
    <glyph glyph-name="uni06F0" unicode="&#x6f0;" horiz-adv-x="468" 
d="M234 372l82 -82l-82 -82l-82 82z" />
    <glyph glyph-name="uni06F1" unicode="&#x6f1;" horiz-adv-x="405" 
d="M167 -13v676h71v-676h-71z" />
    <glyph glyph-name="uni06F2" unicode="&#x6f2;" horiz-adv-x="625" 
d="M142 -13v676h71v-299q23 -11 60.5 -18t75.5 -7q66 0 97 32.5t31 102.5v189h71v-185q0 -100 -50.5 -155t-148.5 -55q-37 0 -80 7.5t-56 13.5v-302h-71z" />
    <glyph glyph-name="uni06F3" unicode="&#x6f3;" horiz-adv-x="715" 
d="M142 -13v676h71v-312q13 -5 33 -8.5t39 -3.5q23 0 38.5 5t24.5 17t14 33.5t5 55.5v213h71v-209q0 -66 -13 -96q9 -3 26 -6t39 -3q23 0 38.5 5t24.5 17t14 33.5t5 55.5v203h71v-199q0 -98 -38 -142t-115 -44q-28 0 -55 7t-46 15q-32 -32 -104 -32q-24 0 -45.5 3.5
t-26.5 6.5v-291h-71z" />
    <glyph glyph-name="uni06F4" unicode="&#x6f4;" horiz-adv-x="723" 
d="M142 -13v676h71v-284q14 -5 45 -11.5t42 -8.5q-8 26 -14.5 60.5t-6.5 73.5q0 38 12 74t35 62.5t56 43t75 16.5q40 0 69.5 -9t83.5 -30l-24 -65q-36 14 -52 19.5t-28 8.5t-24 4t-29 1q-52 0 -78 -36t-26 -92q0 -22 1.5 -39t5 -33.5t8.5 -33.5t11 -30h4q65 0 114.5 16
t112.5 44l33 -63q-70 -34 -129.5 -51t-130.5 -17q-19 0 -43 2t-49.5 5.5t-49.5 9.5l-24 6v-319h-71z" />
    <glyph glyph-name="uni06F5" unicode="&#x6f5;" horiz-adv-x="670" 
d="M245 -23q-29 0 -56.5 11.5t-49.5 37.5t-34.5 66t-12.5 97q0 124 56 227.5t145 185.5q-10 7 -31.5 22t-55.5 36l38 61q81 -47 144 -102.5t109 -126.5q46 -68 74 -146.5t28 -152.5q0 -58 -12.5 -98.5t-34.5 -67t-51 -38.5t-62 -12q-36 0 -64 11t-31 19q-5 -8 -33.5 -19
t-65.5 -11zM413 488q-17 20 -34.5 39t-28.5 28q-36 -28 -72 -70.5t-61.5 -90.5t-39 -100t-13.5 -105q0 -33 7 -60t18.5 -45t26 -27t29.5 -9q21 0 33.5 7t20 18t10.5 26t3 43h66q0 -28 3 -42.5t10 -26t19 -18.5t30 -7q36 0 61.5 30t25.5 100q0 86 -30.5 164t-83.5 146z" />
    <glyph glyph-name="uni06F6" unicode="&#x6f6;" horiz-adv-x="629" 
d="M122 -13v174q0 46 19.5 82.5t45.5 58.5q-16 37 -27.5 80t-11.5 93q0 47 15 86t43.5 67.5t69 44t90.5 15.5q25 0 45.5 -2.5t40 -8.5t41.5 -14l57 -21l-22 -65l-62 23q-21 6 -37 10t-32 5.5t-37 1.5q-66 0 -103.5 -38.5t-37.5 -108.5q0 -39 8.5 -72t19.5 -56q17 10 53 22.5
t78 23.5l111 26l14 -70l-119 -28q-36 -8 -71 -22t-61.5 -33t-42.5 -44t-16 -56v-174h-71z" />
    <glyph glyph-name="uni06F7" unicode="&#x6f7;" horiz-adv-x="630" 
d="M269 -13l-222 676h75l199 -611h-18l206 611h74l-230 -676h-84z" />
    <glyph glyph-name="uni06F8" unicode="&#x6f8;" horiz-adv-x="630" 
d="M509 -13l-206 611h18l-199 -611h-75l222 676h84l230 -676h-74z" />
    <glyph glyph-name="uni06F9" unicode="&#x6f9;" horiz-adv-x="633" 
d="M420 -13v217q-2 0 -19 -1t-33 -1q-58 0 -108 11t-88 37t-59 69.5t-21 105.5q0 115 75.5 176.5t229.5 61.5h94v-676h-71zM340 273q26 0 47.5 1t32.5 2v316h-41q-102 0 -159 -41t-57 -126q0 -41 13 -69.5t36 -46.5t55.5 -27t72.5 -9z" />
    <glyph glyph-name="endash" unicode="&#x2013;" horiz-adv-x="590" 
d="M32 302h526v-69h-526v69z" />
    <glyph glyph-name="emdash" unicode="&#x2014;" horiz-adv-x="830" 
d="M32 302h766v-69h-766v69z" />
    <glyph glyph-name="quoteleft" unicode="&#x2018;" horiz-adv-x="247" 
d="M109 558h-79l98 266h60z" />
    <glyph glyph-name="quoteright" unicode="&#x2019;" horiz-adv-x="247" 
d="M111 824h79l-98 -266h-60z" />
    <glyph glyph-name="quotesinglbase" unicode="&#x201a;" horiz-adv-x="247" 
d="M111 87h79l-98 -266h-60z" />
    <glyph glyph-name="quotedblleft" unicode="&#x201c;" horiz-adv-x="437" 
d="M299 558h-79l98 266h60zM109 558h-79l98 266h60z" />
    <glyph glyph-name="quotedblright" unicode="&#x201d;" horiz-adv-x="437" 
d="M111 824h79l-98 -266h-60zM301 824h79l-98 -266h-60z" />
    <glyph glyph-name="quotedblbase" unicode="&#x201e;" horiz-adv-x="437" 
d="M111 87h79l-98 -266h-60zM301 87h79l-98 -266h-60z" />
    <glyph glyph-name="dagger" unicode="&#x2020;" horiz-adv-x="595" 
d="M262 514h-240v69h240v241h71v-241h240v-69h-240v-527h-71v527z" />
    <glyph glyph-name="daggerdbl" unicode="&#x2021;" horiz-adv-x="625" 
d="M277 529h-240v69h240v226h71v-226h240v-69h-240v-241h240v-69h-240v-232h-71v232h-240v69h240v241z" />
    <glyph glyph-name="bullet" unicode="&#x2022;" horiz-adv-x="467" 
d="M234 176q-44 0 -81 16t-63.5 43.5t-42 63.5t-15.5 78t15.5 78.5t42 64t63.5 43.5t81 16q43 0 79.5 -16t64 -43.5t42.5 -64t15 -78.5t-15 -78t-42.5 -63.5t-64 -43.5t-79.5 -16z" />
    <glyph glyph-name="ellipsis" unicode="&#x2026;" horiz-adv-x="806" 
d="M121 -23q-22 0 -38 16t-16 38t16 38t38 16t38 -16t16 -38t-16 -38t-38 -16zM403 -23q-22 0 -38 16t-16 38t16 38t38 16t38 -16t16 -38t-16 -38t-38 -16zM685 -23q-22 0 -38 16t-16 38t16 38t38 16t38 -16t16 -38t-16 -38t-38 -16z" />
    <glyph glyph-name="perthousand" unicode="&#x2030;" horiz-adv-x="1422" 
d="M157 -13l585 837h83l-585 -837h-83zM736 -23q-50 0 -87 19t-60.5 53t-35 80t-11.5 102t11.5 101.5t35 79.5t60.5 52.5t87 18.5q49 0 86 -18.5t61 -52t35.5 -79.5t11.5 -102t-11.5 -102.5t-35.5 -80t-61 -52.5t-86 -19zM736 45q56 0 89 44.5t33 141.5t-33 141t-89 44
t-89 -44t-33 -141t33.5 -141.5t88.5 -44.5zM246 329q-50 0 -87 19t-60.5 53t-35 80t-11.5 102t11.5 101.5t35 79.5t60.5 52.5t87 18.5q49 0 86 -18.5t61 -52t35.5 -79.5t11.5 -102t-11.5 -102.5t-35.5 -80t-61 -52.5t-86 -19zM246 397q56 0 89 44.5t33 141.5t-33 141t-89 44
t-89 -44t-33 -141t33.5 -141.5t88.5 -44.5zM1176 -23q-50 0 -87 19t-60.5 53t-35 80t-11.5 102t11.5 101.5t35 79.5t60.5 52.5t87 18.5q49 0 86 -18.5t61 -52t35.5 -79.5t11.5 -102t-11.5 -102.5t-35.5 -80t-61 -52.5t-86 -19zM1176 45q56 0 89 44.5t33 141.5t-33 141
t-89 44t-89 -44t-33 -141t33.5 -141.5t88.5 -44.5z" />
    <glyph glyph-name="guilsinglleft" unicode="&#x2039;" horiz-adv-x="308" 
d="M24 275l187 268h82l-184 -267l184 -269h-81z" />
    <glyph glyph-name="guilsinglright" unicode="&#x203a;" horiz-adv-x="308" 
d="M96 7h-81l184 269l-184 267h82l187 -268z" />
    <glyph glyph-name="fraction" unicode="&#x2044;" horiz-adv-x="518" 
d="M-75 -13l585 837h83l-585 -837h-83z" />
    <glyph glyph-name="Euro" unicode="&#x20ac;" horiz-adv-x="910" 
d="M176 342q-4 23 -4 64q0 27 2.5 52.5t4.5 34.5h-189l32 69h174q17 53 54 104.5t88 89.5t116 58.5t141 20.5q77 0 145 -17.5t132 -56.5l-33 -63q-57 34 -116 50.5t-128 16.5q-54 0 -104 -14.5t-92.5 -43t-75.5 -69t-45 -76.5h357l-32 -69h-346q-8 -37 -8 -87q0 -40 4 -64
h309l-32 -69h-261q12 -42 44.5 -87.5t76.5 -76t96 -46.5t109 -16q69 0 128 16.5t116 50.5l33 -63q-64 -39 -132 -56.5t-145 -17.5q-80 0 -147 22.5t-119.5 63t-88 97t-50.5 113.5h-200l32 69h154z" />
    <glyph glyph-name="trademark" unicode="&#x2122;" horiz-adv-x="1008" 
d="M156 757h-154v67h377v-67h-154v-406h-69v406zM624 351l-151 357v-357h-69v473h96l158 -376l156 376h97v-473h-69v357l-151 -357h-67z" />
    <glyph glyph-name="Omega" unicode="&#x2126;" horiz-adv-x="904" 
d="M452 835q75 0 146.5 -23t128 -69t91 -113.5t34.5 -155.5q0 -71 -23 -128t-59 -99.5t-82 -70.5t-83 -38v-82h210v-69h-282v203q62 12 106 37t74.5 61.5t47.5 83t17 102.5q0 70 -26 124.5t-70.5 92t-103.5 58t-126 20.5t-126 -20.5t-103.5 -58t-71 -92t-26.5 -124.5
q0 -56 17 -102.5t48 -83t75 -61.5t106 -37v-203h-282v69h208v82q-36 10 -82 38t-82 70.5t-58.5 100t-22.5 127.5q0 88 34.5 155.5t91 113.5t128 69t146.5 23z" />
    <glyph glyph-name="twothirds" unicode="&#x2154;" horiz-adv-x="985" 
d="M741 -23q-29 0 -56 9t-47.5 26.5t-33 41.5t-12.5 66h58q6 -45 28 -64t62 -19q21 0 39 6.5t31 17.5t20.5 26.5t7.5 33.5q0 39 -27 60t-82 21v60q52 0 77 20.5t25 56.5q0 31 -23.5 49.5t-58.5 18.5q-37 0 -57 -16.5t-23 -61.5h-60q7 70 43 104t98 34q28 0 54 -10t45.5 -27
t30.5 -41t11 -51q0 -39 -22 -70.5t-28 -33.5q8 -3 32.5 -37t24.5 -74q0 -31 -12 -58t-33.5 -46.5t-50 -30.5t-61.5 -11zM270 -4l460 794l55 -31l-460 -794zM273 494l29 31q15 16 27.5 33t20 35t7.5 35q0 38 -28.5 60.5t-71.5 22.5q-46 0 -73 -23t-27 -76h-61q2 39 8.5 62.5
t26.5 44.5q23 25 57.5 38.5t68.5 13.5q32 0 61.5 -11t51.5 -30.5t34.5 -46t12.5 -57.5q0 -25 -8.5 -48t-22.5 -43.5t-30 -38.5t-31 -33l-114 -116h204v-60h-346z" />
    <glyph glyph-name="partialdiff" unicode="&#x2202;" horiz-adv-x="682" 
d="M342 -23q-67 0 -124 25t-98 67.5t-64.5 97t-23.5 113.5q0 63 24 118t65 96t96 65t118 24q32 0 58 -6.5t39 -12.5l-186 260h86l226 -316q25 -36 43 -65.5t29 -56t15.5 -52.5t4.5 -54q0 -64 -24.5 -119.5t-66.5 -96t-98 -64t-119 -23.5zM341 47q49 0 91.5 19t74 51t49.5 75
t18 90q0 46 -18 88.5t-49.5 74t-74.5 50t-91 18.5q-49 0 -92 -18.5t-74 -50t-49 -74t-18 -88.5q0 -47 18 -90t49.5 -75t74 -51t91.5 -19z" />
    <glyph glyph-name="Delta" unicode="&#x2206;" horiz-adv-x="784" 
d="M392 829l403 -843h-806zM392 672l-291 -617h584z" />
    <glyph glyph-name="product" unicode="&#x220f;" horiz-adv-x="798" 
d="M97 -233v1057h604v-1057h-71v988h-462v-988h-71z" />
    <glyph glyph-name="summation" unicode="&#x2211;" horiz-adv-x="655" 
d="M363 295l-346 469v60h621v-69h-528l344 -460l-344 -460h528v-69h-621v60z" />
    <glyph glyph-name="minus" unicode="&#x2212;" horiz-adv-x="595" 
d="M32 302h531v-69h-531v69z" />
    <glyph glyph-name="radical" unicode="&#x221a;" horiz-adv-x="668" 
d="M171 303l192 -425l198 946h73l-221 -1057h-75l-204 441l-80 -39l-31 66z" />
    <glyph glyph-name="infinity" unicode="&#x221e;" horiz-adv-x="935" 
d="M231 91q-43 0 -80 14.5t-63.5 40.5t-41 60.5t-14.5 75.5t14.5 75.5t41.5 60.5t64.5 40.5t81.5 14.5q61 0 119.5 -33.5t113.5 -100.5q51 63 108 98.5t124 35.5q45 0 82.5 -14.5t64.5 -40t42 -60.5t15 -76t-14.5 -75.5t-41 -60.5t-63.5 -40.5t-80 -14.5q-70 0 -130 38.5
t-108 98.5q-48 -61 -106 -99t-129 -38zM704 161q27 0 49.5 8.5t38.5 24t25.5 38.5t9.5 50q0 55 -35 89t-95 34q-50 0 -95.5 -32.5t-91.5 -88.5q49 -60 95 -91.5t99 -31.5zM233 405q-28 0 -50.5 -8.5t-39 -24.5t-26 -39t-9.5 -51q0 -26 9.5 -48.5t25.5 -38.5t39 -25t49 -9
q59 0 103.5 32.5t87.5 88.5q-48 60 -92.5 91.5t-96.5 31.5z" />
    <glyph glyph-name="integral" unicode="&#x222b;" horiz-adv-x="299" 
d="M185 -35q0 -53 -15 -90.5t-43 -61.5t-64.5 -35t-80.5 -11h-45v69h52q71 0 98 35.5t27 121.5v633q0 51 15 89.5t43 62.5t64.5 35t80.5 11h45v-69h-52q-71 0 -98 -35.5t-27 -121.5v-633z" />
    <glyph glyph-name="approxequal" unicode="&#x2248;" horiz-adv-x="635" 
d="M450 361q33 0 54.5 17.5t29.5 68.5h71q-11 -85 -52 -120.5t-103 -35.5q-38 0 -72.5 14.5t-67.5 31t-64.5 30t-61.5 13.5q-33 0 -54 -18t-29 -69h-71q11 85 51.5 120.5t102.5 35.5q41 0 78 -14.5t69.5 -31t62 -29.5t56.5 -13zM450 141q33 0 54.5 18t29.5 69h71
q-11 -85 -52 -120t-103 -35q-38 0 -72.5 14t-67.5 30.5t-64.5 29.5t-61.5 13q-33 0 -54 -17.5t-29 -67.5h-71q11 84 51.5 119.5t102.5 35.5q41 0 78 -14.5t69.5 -31t62 -30t56.5 -13.5z" />
    <glyph glyph-name="notequal" unicode="&#x2260;" horiz-adv-x="595" 
d="M32 412h350l114 132h82l-113 -132h98v-69h-157l-130 -151h287v-69h-346l-116 -136h-85l117 136h-101v69h160l131 151h-291v69z" />
    <glyph glyph-name="lessequal" unicode="&#x2264;" horiz-adv-x="733" 
d="M686 154v-76l-639 210v63l639 208v-76l-518 -163zM47 56h639v-69h-639v69z" />
    <glyph glyph-name="greaterequal" unicode="&#x2265;" horiz-adv-x="733" 
d="M565 320l-518 163v76l639 -208v-63l-639 -210v76zM686 -13h-639v69h639v-69z" />
    <glyph glyph-name="lozenge" unicode="&#x25ca;" horiz-adv-x="637" 
d="M112 375l207 -356l208 356l-208 355zM319 865l288 -490l-288 -491l-289 491z" />
    <glyph glyph-name="uni25CC" unicode="&#x25cc;" horiz-adv-x="685" 
d="M298 448q0 18 13 31t32 13q18 0 31 -13t13 -31q0 -19 -13 -32t-31 -13q-19 0 -32 13t-13 32zM194 423q0 18 13 31t32 13q18 0 31 -13t13 -31q0 -19 -13 -32t-31 -13q-19 0 -32 13t-13 32zM405 423q0 18 13 31t31 13q20 0 32 -13t12 -31q0 -19 -12 -32t-32 -13
q-18 0 -31 13t-13 32zM485 341q0 18 13 31t31 13t31 -13t13 -31t-13 -31t-31 -13t-31 13t-13 31zM116 341q0 18 12 31t32 13q18 0 31 -13t13 -31t-13 -31t-31 -13q-20 0 -32 13t-12 31zM87 233q0 18 13 31t31 13q20 0 32 -13t12 -31q0 -19 -12.5 -31.5t-31.5 -12.5
q-18 0 -31 12t-13 32zM510 233q0 18 13 31t31 13t31 -13t13 -31q0 -20 -13 -32t-31 -12t-31 12t-13 32zM485 128q0 18 13 31t31 13t31 -13t13 -31t-13 -31t-31 -13t-31 13t-13 31zM116 128q0 18 12 31t32 13q18 0 31 -13t13 -31t-13 -31t-31 -13q-20 0 -32 13t-12 31z
M194 51q0 18 13 31t32 13q18 0 31 -13t13 -31q0 -20 -13 -32t-31 -12q-19 0 -32 12t-13 32zM405 51q0 18 13 31t31 13q20 0 32 -13t12 -31q0 -19 -12.5 -31.5t-31.5 -12.5q-18 0 -31 12t-13 32zM298 22q0 20 13 32t32 12q18 0 31 -12t13 -32q0 -18 -13 -31t-31 -13
q-19 0 -32 13t-13 31z" />
    <glyph glyph-name="uni274A" unicode="&#x274a;" horiz-adv-x="550" 
d="M260 522q-29 -14 -61.5 -19.5t-69.5 -5.5q-34 0 -68.5 6t-63.5 18v33q30 16 63 21t69 5q37 0 70 -7.5t61 -18.5v-32zM553 522q-29 -14 -61.5 -19.5t-69.5 -5.5q-35 0 -69.5 6t-62.5 18v33q30 15 62.5 20.5t69.5 5.5t69.5 -7.5t61.5 -18.5v-32zM291 523q14 -29 19.5 -61.5
t5.5 -69.5q0 -34 -6 -68.5t-18 -63.5h-33q-16 30 -21 63t-5 69q0 37 7.5 70t18.5 61h32zM291 816q14 -29 19.5 -61.5t5.5 -69.5q0 -35 -6 -69.5t-18 -62.5h-33q-15 30 -20.5 62.5t-5.5 69.5t7.5 69.5t18.5 61.5h32zM276 517q-11 -30 -29.5 -57.5t-45.5 -53.5
q-25 -24 -54 -44t-56 -33l-24 25q11 32 30 58.5t46 51.5q26 27 54.5 45t54.5 29zM483 722q-11 -29 -30 -55.5t-46 -53.5q-24 -25 -53 -44.5t-57 -31.5l-23 23q11 32 29.5 58.5t45.5 53.5q26 26 54.5 44t56.5 29zM296 539q30 -11 57.5 -29.5t53.5 -45.5q24 -25 44 -54t33 -56
l-25 -24q-32 11 -58.5 30t-51.5 46q-27 26 -45 54.5t-29 54.5zM91 746q29 -11 55.5 -30t53.5 -46q25 -24 44.5 -53t31.5 -57l-23 -23q-32 11 -58.5 29.5t-53.5 45.5q-26 26 -44 54.5t-29 56.5z" />
    <glyph glyph-name="apple" unicode="&#xf8ff;" horiz-adv-x="849" 
d="M243 817h-66v66h66v-66zM355 824h136v-703h-72v-288h7v53h65v-119h-136v421h71v571h-7v-551h-64v616zM282 826h65v-1059h-206v66h141v993zM141 51h-54v65h119v-213h6v218h-71v703h136v-986h-136v213zM206 759v-571h6v571h-6zM507 825h131v-43h-90v-1015h-41v1058z
M720 -233v366h-72v692h114v-1058h-42zM691 782v-608h29v608h-29z" />
    <glyph glyph-name="uniFB01" unicode="&#xfb01;" horiz-adv-x="695" 
d="M17 543h118v86q0 105 54.5 150t148.5 45h105v-69h-112q-36 0 -60 -7t-38 -22.5t-20.5 -43t-6.5 -71.5v-68h230v-69h-230v-487h-71v487h-118v69zM527 543h71v-556h-71v556zM563 774q22 0 38 -16t16 -38t-16 -38t-38 -16t-38 16t-16 38t16 38t38 16z" />
    <glyph glyph-name="uniFB02" unicode="&#xfb02;" horiz-adv-x="695" 
d="M17 543h118v86q0 105 54.5 150t148.5 45h105v-69h-112q-36 0 -60 -7t-38 -22.5t-20.5 -43t-6.5 -71.5v-68h230v-69h-230v-487h-71v487h-118v69zM527 -13v837h71v-837h-71z" />
    <glyph glyph-name="uniFD3E" unicode="&#xfd3e;" horiz-adv-x="314" 
d="M242 -233q-43 0 -71.5 7.5t-45.5 26.5t-23 47.5t-6 68.5v222q0 25 -3 47.5t-9.5 38.5t-20 25t-46.5 12v68q33 3 46.5 12t20 25t9.5 38.5t3 47.5v221q0 40 6 68.5t23 47.5t45.5 26.5t71.5 7.5h35v-69h-24q-32 0 -49 -3.5t-24.5 -12t-10 -25.5t-2.5 -47v-215
q0 -40 -5 -68.5t-16 -49t-27.5 -32t-34.5 -16.5v20q18 -5 34.5 -16.5t27.5 -32t16 -49t5 -68.5v-216q0 -30 2.5 -47t10 -25.5t24.5 -12t49 -3.5h24v-69h-35z" />
    <glyph glyph-name="uniFD3F" unicode="&#xfd3f;" horiz-adv-x="314" 
d="M52 -233h-35v69h24q32 0 49 3.5t24.5 12t10 25.5t2.5 47v216q0 40 5 68.5t16 49t27 32t35 16.5v-20q-19 5 -35 16.5t-27 32t-16 49t-5 68.5v215q0 30 -2.5 47t-10 25.5t-24.5 12t-49 3.5h-24v69h35q43 0 71.5 -7.5t45.5 -26.5t23 -47.5t6 -68.5v-221q0 -25 3 -47.5
t9.5 -38.5t19.5 -25t47 -12v-68q-34 -3 -47 -12t-19.5 -25t-9.5 -38.5t-3 -47.5v-222q0 -40 -6 -68.5t-23 -47.5t-45.5 -26.5t-71.5 -7.5z" />
    <glyph glyph-name="uni0627.short" horiz-adv-x="270" 
d="M117 703h71v-716h-71v716z" />
    <glyph glyph-name="uni0627.shortfina" horiz-adv-x="311" 
d="M117 703h71v-645h156v-71h-227v716z" />
    <glyph glyph-name="uni066E.initalt" horiz-adv-x="346" 
d="M-13 58h226v485h71v-556h-297v71z" />
    <glyph glyph-name="uni066E.medialt" horiz-adv-x="465" 
d="M-13 58h226v485h71v-485h214v-71h-511v71z" />
    <glyph glyph-name="uni06C3.fina" horiz-adv-x="533" 
d="M377 -13v485h-103q-36 0 -61 -7t-45.5 -23t-32.5 -42.5t-12 -52.5v-186h-71v180q0 51 17 87.5t51 67.5q29 25 66.5 36t75.5 11h186v-485h118v-71h-189zM227 637q-22 0 -38 16t-16 38t16 38t38 16t38 -16t16 -38t-16 -38t-38 -16zM406 637q-22 0 -38 16t-16 38t16 38
t38 16t38 -16t16 -38t-16 -38t-38 -16z" />
    <glyph glyph-name="uni06BA.init" horiz-adv-x="262" 
d="M-13 58h126v485h71v-556h-197v71zM146 646q-22 0 -38 16t-16 38t16 38t38 16t38 -16t16 -38t-16 -38t-38 -16z" />
    <glyph glyph-name="uni06BA.medi" horiz-adv-x="285" 
d="M-13 58h126v485h71v-485h134v-71h-331v71zM145 646q-22 0 -38 16t-16 38t16 38t38 16t38 -16t16 -38t-16 -38t-38 -16z" />
    <glyph glyph-name="uni06C2.fina" horiz-adv-x="533" 
d="M377 -13v485h-103q-36 0 -61 -7t-45.5 -23t-32.5 -42.5t-12 -52.5v-186h-71v180q0 51 17 87.5t51 67.5q29 25 66.5 36t75.5 11h186v-485h118v-71h-189zM238 725q0 63 29.5 98t89.5 35h69v-71h-62q-32 0 -43 -11.5t-11 -35.5v-27h148v-71h-220v83z" />
    <glyph glyph-name="wasle" horiz-adv-x="134" 
d="M12 58h155v-71h-187z" />
    <glyph glyph-name="wasle_alt" horiz-adv-x="214" 
d="M12 58h235v-71h-267z" />
    <glyph glyph-name="uni0654.medi" horiz-adv-x="335" 
d="M63 690q0 63 29.5 98t89.5 35h69v-71h-62q-32 0 -43 -11.5t-11 -35.5v-27h148v-71h-220v83z" />
    <glyph glyph-name="uni0654064B" 
d="M-85 30q0 63 29.5 98t89.5 35h49v-71h-42q-32 0 -43 -11.5t-11 -22.5h128v-71h-200v43zM-124 237l250 36v-54l-250 -36v54zM-125 304l250 36v-54l-250 -36v54z" />
    <glyph glyph-name="uni0654064E" 
d="M-88 30q0 63 29.5 98t89.5 35h49v-71h-42q-32 0 -43 -11.5t-11 -22.5h128v-71h-200v43zM-125 234l250 36v-56l-250 -36v56z" />
    <glyph glyph-name="uni0654064C" 
d="M-26 237q-2 7 -2 25q0 40 22.5 67t67.5 27q34 0 55 -24.5t21 -59.5q0 -14 -1 -25t-7 -41l-227 -33l-44 115l54 20l28 -76zM-69 30q0 63 29.5 98t89.5 35h49v-71h-42q-32 0 -43 -11.5t-11 -22.5h128v-71h-200v43zM27 270q0 -17 2 -24l61 9q-12 -61 -9 -28t3 39
q0 14 -6.5 24.5t-22.5 10.5q-12 0 -20 -8t-8 -23z" />
    <glyph glyph-name="uni0654064F" 
d="M-123 222l81 12q-2 7 -2 26q0 40 22.5 67t67.5 27q34 0 55 -24.5t21 -59.5q0 -14 -1 -25t-7 -41l-231 -33zM-78 30q0 63 29.5 98t89.5 35h49v-71h-42q-32 0 -43 -11.5t-11 -22.5h128v-71h-200v43zM11 266q0 -17 2 -22l61 9q-12 -61 -9 -28t3 39q0 14 -6.5 24.5
t-22.5 10.5q-12 0 -20 -8t-8 -25z" />
    <glyph glyph-name="uni06540652" 
d="M-100 30q0 63 29.5 98t89.5 35h49v-71h-42q-32 0 -43 -11.5t-11 -22.5h128v-71h-200v43zM-6 180q-37 0 -60 22.5t-23 68.5q0 43 25 68t64 25q41 0 63 -25.5t22 -68t-26 -66.5t-65 -24zM-3 231q12 0 23 7t11 32q0 23 -10.5 32.5t-23.5 9.5q-10 0 -20.5 -8t-10.5 -32
q0 -27 9 -34t22 -7z" />
    <glyph glyph-name="uni0654064D" 
d="M-107 -120q0 63 29.5 98t89.5 35h49v-71h-42q-32 0 -43 -11.5t-11 -22.5h128v-71h-200v43zM-124 -280l250 36v-54l-250 -36v54zM-125 -213l250 36v-54l-250 -36v54z" />
    <glyph glyph-name="uni06550650" 
d="M-107 -120q0 63 29.5 98t89.5 35h49v-71h-42q-32 0 -43 -11.5t-11 -22.5h128v-71h-200v43zM-125 -214l250 36v-56l-250 -36v56z" />
    <glyph glyph-name="wasla" 
d="M-125 53h55q0 30 26 57.5t67 27.5q51 0 77 -29.5t26 -72.5v-49h-251v66zM23 77q-14 0 -23 -9t-9 -15h63q0 3 -8 13.5t-23 10.5z" />
    <glyph glyph-name="uni0651064B" 
d="M-54 -13q-25 0 -48 15t-30 53l-11 61l56 11l12 -58q4 -17 10 -21.5t14 -4.5q12 0 20 10t8 28q0 19 -7 56l57 9l12 -59q2 -10 8 -16t15 -6q13 0 19.5 5.5t6.5 19.5q0 28 -15 70l59 14q4 -26 7 -37q2 -11 3.5 -22t1.5 -20q0 -41 -23 -63.5t-63 -22.5q-21 0 -31.5 9
t-12.5 14q-3 -13 -19 -29t-49 -16zM-138 214l250 36v-54l-250 -36v54zM-139 281l250 36v-54l-250 -36v54z" />
    <glyph glyph-name="uni06F4.urdu" horiz-adv-x="610" 
d="M142 -13v676h63l161 -164l182 183v-98l-182 -189l-153 160v-568h-71z" />
    <glyph glyph-name="uni06F7.urdu" horiz-adv-x="495" 
d="M62 -13v61l270 615h74l-262 -605h289v-71h-371z" />
    <glyph glyph-name="acute.case" horiz-adv-x="252" 
d="M79 832h-78l149 170h104z" />
    <glyph glyph-name="circumflex.case" horiz-adv-x="415" 
d="M418 832h-85l-124 101l-127 -101h-85l185 170h53z" />
    <glyph glyph-name="dieresis.case" horiz-adv-x="412" 
d="M71 967q22 0 38 -16t16 -38t-16 -38t-38 -16t-38 16t-16 38t16 38t38 16zM341 967q22 0 38 -16t16 -38t-16 -38t-38 -16t-38 16t-16 38t16 38t38 16z" />
    <glyph glyph-name="grave.case" horiz-adv-x="252" 
d="M-2 1002h104l149 -170h-78z" />
    <glyph glyph-name="ring.case" horiz-adv-x="257" 
d="M129 1044q46 0 78.5 -29.5t32.5 -76.5q0 -48 -32.5 -77t-78.5 -29q-47 0 -79.5 29t-32.5 77q0 47 32.5 76.5t79.5 29.5zM129 987q-20 0 -35 -13t-15 -36t15 -36t35 -13t34.5 13t14.5 36t-14.5 36t-34.5 13z" />
    <glyph glyph-name="tilde.case" horiz-adv-x="430" 
d="M296 917q22 0 34 13.5t19 52.5h66q-11 -70 -40.5 -101t-75.5 -31q-28 0 -51 11.5t-43 24t-37 22t-35 9.5q-22 0 -33 -14t-18 -53h-67q11 71 42 101.5t75 30.5q29 0 52 -11.5t43 -23.5l37 -23q16 -8 32 -8z" />
    <glyph glyph-name="cedilla.case" horiz-adv-x="247" 
d="M33 -154q25 -10 41 -13.5t30 -3.5q12 0 23.5 2t19 6.5t12 10.5t4.5 16q0 16 -13 24t-32 8q-24 0 -52 -14l-28 30l62 101h64l-38 -65q25 5 9 5q41 0 68 -22.5t27 -63.5q0 -27 -11 -45t-29 -30t-39.5 -17t-42.5 -5q-42 0 -94 18z" />
    <glyph glyph-name="caron.case" horiz-adv-x="415" 
d="M-3 1002h85l125 -101l126 101h85l-184 -170h-54z" />
    <glyph glyph-name="macron.case" horiz-adv-x="357" 
d="M17 880v66h323v-66h-323z" />
    <glyph glyph-name="breve.case" horiz-adv-x="381" 
d="M365 1006q-13 -174 -175 -174q-163 0 -174 174h67q6 -68 32 -89.5t75.5 -21.5t76.5 21t33 90h65z" />
    <glyph glyph-name="dotaccent.case" horiz-adv-x="142" 
d="M71 967q22 0 38 -16t16 -38t-16 -38t-38 -16t-38 16t-16 38t16 38t38 16z" />
    <glyph glyph-name="hungarumlaut.case" horiz-adv-x="443" 
d="M79 832h-78l149 170h104zM271 832h-78l149 170h103z" />
    </font>
</defs>
</svg>
